<svg class="plus01" version="1.1" xmlns="http://www.w3.org/2000/svg" xmlns:xlink="http://www.w3.org/1999/xlink" x="0px" y="0px" viewBox="0 0 122 108" style="enable-background:new 0 0 122 108;" xml:space="preserve">
  <line class="st0" x1="7" y1="1" x2="7" y2="11"/><line class="st0" x1="12" y1="6" x2="2" y2="6"/><line class="st0" x1="25" y1="1" x2="25" y2="11"/><line class="st0" x1="30" y1="6" x2="20" y2="6"/><line class="st0" x1="43" y1="1" x2="43" y2="11"/><line class="st0" x1="48" y1="6" x2="38" y2="6"/>
  <line class="st0" x1="61" y1="1" x2="61" y2="11"/><line class="st0" x1="66" y1="6" x2="56" y2="6"/><line class="st0" x1="79" y1="1" x2="79" y2="11"/><line class="st0" x1="84" y1="6" x2="74" y2="6"/><line class="st0" x1="97" y1="1" x2="97" y2="11"/><line class="st0" x1="102" y1="6" x2="92" y2="6"/>
  <line class="st0" x1="115" y1="1" x2="115" y2="11"/><line class="st0" x1="120" y1="6" x2="110" y2="6"/><line class="st0" x1="7" y1="17" x2="7" y2="27"/><line class="st0" x1="12" y1="22" x2="2" y2="22"/><line class="st0" x1="25" y1="17" x2="25" y2="27"/><line class="st0" x1="30" y1="22" x2="20" y2="22"/>
  <line class="st0" x1="43" y1="17" x2="43" y2="27"/><line class="st0" x1="48" y1="22" x2="38" y2="22"/><line class="st0" x1="61" y1="17" x2="61" y2="27"/><line class="st0" x1="66" y1="22" x2="56" y2="22"/><line class="st0" x1="79" y1="17" x2="79" y2="27"/><line class="st0" x1="84" y1="22" x2="74" y2="22"/>
  <line class="st0" x1="97" y1="17" x2="97" y2="27"/><line class="st0" x1="102" y1="22" x2="92" y2="22"/><line class="st0" x1="115" y1="17" x2="115" y2="27"/><line class="st0" x1="120" y1="22" x2="110" y2="22"/><line class="st0" x1="7" y1="33" x2="7" y2="43"/><line class="st0" x1="12" y1="38" x2="2" y2="38"/>
  <line class="st0" x1="25" y1="33" x2="25" y2="43"/><line class="st0" x1="30" y1="38" x2="20" y2="38"/><line class="st0" x1="43" y1="33" x2="43" y2="43"/><line class="st0" x1="48" y1="38" x2="38" y2="38"/><line class="st0" x1="61" y1="33" x2="61" y2="43"/><line class="st0" x1="66" y1="38" x2="56" y2="38"/><line class="st0" x1="79" y1="33" x2="79" y2="43"/><line class="st0" x1="84" y1="38" x2="74" y2="38"/>
  <line class="st0" x1="97" y1="33" x2="97" y2="43"/><line class="st0" x1="102" y1="38" x2="92" y2="38"/><line class="st0" x1="115" y1="33" x2="115" y2="43"/><line class="st0" x1="120" y1="38" x2="110" y2="38"/><line class="st0" x1="7" y1="49" x2="7" y2="59"/><line class="st0" x1="12" y1="54" x2="2" y2="54"/>
  <line class="st0" x1="25" y1="49" x2="25" y2="59"/><line class="st0" x1="30" y1="54" x2="20" y2="54"/><line class="st0" x1="43" y1="49" x2="43" y2="59"/><line class="st0" x1="48" y1="54" x2="38" y2="54"/><line class="st0" x1="61" y1="49" x2="61" y2="59"/><line class="st0" x1="66" y1="54" x2="56" y2="54"/>
  <line class="st0" x1="79" y1="49" x2="79" y2="59"/><line class="st0" x1="84" y1="54" x2="74" y2="54"/><line class="st0" x1="97" y1="49" x2="97" y2="59"/><line class="st0" x1="102" y1="54" x2="92" y2="54"/><line class="st0" x1="115" y1="49" x2="115" y2="59"/><line class="st0" x1="120" y1="54" x2="110" y2="54"/>
  <line class="st0" x1="7" y1="65" x2="7" y2="75"/><line class="st0" x1="12" y1="70" x2="2" y2="70"/><line class="st0" x1="25" y1="65" x2="25" y2="75"/><line class="st0" x1="30" y1="70" x2="20" y2="70"/><line class="st0" x1="43" y1="65" x2="43" y2="75"/><line class="st0" x1="48" y1="70" x2="38" y2="70"/>
  <line class="st0" x1="61" y1="65" x2="61" y2="75"/><line class="st0" x1="66" y1="70" x2="56" y2="70"/><line class="st0" x1="79" y1="65" x2="79" y2="75"/><line class="st0" x1="84" y1="70" x2="74" y2="70"/><line class="st0" x1="97" y1="65" x2="97" y2="75"/><line class="st0" x1="102" y1="70" x2="92" y2="70"/>
  <line class="st0" x1="115" y1="65" x2="115" y2="75"/><line class="st0" x1="120" y1="70" x2="110" y2="70"/><line class="st0" x1="7" y1="81" x2="7" y2="91"/><line class="st0" x1="12" y1="86" x2="2" y2="86"/><line class="st0" x1="25" y1="81" x2="25" y2="91"/><line class="st0" x1="30" y1="86" x2="20" y2="86"/>
  <line class="st0" x1="43" y1="81" x2="43" y2="91"/><line class="st0" x1="48" y1="86" x2="38" y2="86"/><line class="st0" x1="61" y1="81" x2="61" y2="91"/><line class="st0" x1="66" y1="86" x2="56" y2="86"/><line class="st0" x1="79" y1="81" x2="79" y2="91"/><line class="st0" x1="84" y1="86" x2="74" y2="86"/>
  <line class="st0" x1="97" y1="81" x2="97" y2="91"/><line class="st0" x1="102" y1="86" x2="92" y2="86"/><line class="st0" x1="115" y1="81" x2="115" y2="91"/><line class="st0" x1="120" y1="86" x2="110" y2="86"/><line class="st0" x1="7" y1="97" x2="7" y2="107"/><line class="st0" x1="12" y1="102" x2="2" y2="102"/>
  <line class="st0" x1="25" y1="97" x2="25" y2="107"/><line class="st0" x1="30" y1="102" x2="20" y2="102"/><line class="st0" x1="43" y1="97" x2="43" y2="107"/><line class="st0" x1="48" y1="102" x2="38" y2="102"/><line class="st0" x1="61" y1="97" x2="61" y2="107"/><line class="st0" x1="66" y1="102" x2="56" y2="102"/>
  <line class="st0" x1="79" y1="97" x2="79" y2="107"/><line class="st0" x1="84" y1="102" x2="74" y2="102"/><line class="st0" x1="97" y1="97" x2="97" y2="107"/><line class="st0" x1="102" y1="102" x2="92" y2="102"/><line class="st0" x1="115" y1="97" x2="115" y2="107"/><line class="st0" x1="120" y1="102" x2="110" y2="102"/>
</svg>
