<svg version="1.1" id="_x31_6beat" xmlns="http://www.w3.org/2000/svg" xmlns:xlink="http://www.w3.org/1999/xlink" x="0px" y="0px"
	 viewBox="0 0 610.2 73.1" style="enable-background:new 0 0 610.2 73.1;" xml:space="preserve">
<style type="text/css">
	.st0{fill:none;stroke:#000000;stroke-width:0.5;}
  .st3{fill:#000;stroke:none;}
</style>
<g>
	<line class="st0" x1="1.3" y1="49.2" x2="152.9" y2="49.2"/>
	<line class="st0" x1="1.3" y1="18.6" x2="152.9" y2="18.6"/>
	<line class="st0" x1="1.3" y1="26.3" x2="152.9" y2="26.3"/>
	<line class="st0" x1="1.3" y1="33.9" x2="152.9" y2="33.9"/>
	<line class="st0" x1="1.3" y1="41.6" x2="152.9" y2="41.6"/>
	<line class="st0" x1="152.9" y1="49.2" x2="304.6" y2="49.2"/>
	<line class="st0" x1="152.9" y1="18.6" x2="304.6" y2="18.6"/>
	<line class="st0" x1="152.9" y1="26.3" x2="304.6" y2="26.3"/>
	<line class="st0" x1="152.9" y1="33.9" x2="304.6" y2="33.9"/>
	<line class="st0" x1="152.9" y1="41.6" x2="304.6" y2="41.6"/>
	<line class="st0" x1="456.1" y1="49.2" x2="607.7" y2="49.2"/>
	<line class="st0" x1="456.1" y1="18.6" x2="607.7" y2="18.6"/>
	<line class="st0" x1="456.1" y1="26.3" x2="607.7" y2="26.3"/>
	<line class="st0" x1="456.1" y1="33.9" x2="607.7" y2="33.9"/>
	<line class="st0" x1="456.1" y1="41.6" x2="607.7" y2="41.6"/>
	<line class="st0" x1="304.5" y1="49.2" x2="456.1" y2="49.2"/>
	<line class="st0" x1="304.5" y1="18.6" x2="456.1" y2="18.6"/>
	<line class="st0" x1="304.5" y1="26.3" x2="456.1" y2="26.3"/>
	<line class="st0" x1="304.5" y1="33.9" x2="456.1" y2="33.9"/>
	<line class="st0" x1="304.5" y1="41.6" x2="456.1" y2="41.6"/>
	<line class="st0" x1="1.4" y1="18.6" x2="1.4" y2="49.2"/>
	<line class="st0" x1="152.9" y1="18.6" x2="152.9" y2="49.2"/>
	<line class="st0" x1="304.5" y1="18.6" x2="304.5" y2="49.2"/>
	<line class="st0" x1="456.1" y1="18.6" x2="456.1" y2="49.2"/>
	<line class="st0" x1="607.6" y1="18.6" x2="607.6" y2="49.2"/>
</g>
<g>
	<path class="st3" d="M15.3,56.3c0,1.4-1.2,2.6-2.6,2.6s-2.6-1.2-2.6-2.6c0-1.4,1.2-2.6,2.6-2.6S15.3,54.9,15.3,56.3z"/>
	<path class="st3" d="M10.3,57.4c0.8,2,3,3.4,5.7,3.1c4.3-0.5,5.9-4.7,5.2-9.8c-0.4-3-4-26.3-4.3-30.1c-0.5-6,7.1-13.1,7.1-8
		c0,2.7-1.8,7.2-6,10.9c-3,2.6-10,7.7-10,16.8c0,5.1,4.2,9.1,9.5,9.1c4.7,0,9.5-3.1,9.5-7.9c0-6.2-4.2-8-8-7.7
		c-4.4,0.3-5.7,3.9-5.6,5.9c0.1,1.9,1.5,3.2,2.5,3.9c-1.4-2.5-0.7-6.7,3.2-6.9c3-0.1,5,1.4,5,4.8c0,3.5-2,6.7-6.6,6.7
		c-5.3,0-7.6-4.1-7.6-7.5c0-7.2,7.3-11.7,10.6-15c3.5-3.5,4.3-8.1,4.2-11.9c-0.2-10.5-9.7-4.5-9.2,5.4c0.2,4.5,3.9,23.5,4.5,32.1
		c0.1,1.6,0.3,7.9-4.6,8.2c-2,0.1-3.8-1.1-2.9-2.9"/>
</g>
<path class="st3" id="do14" d="M44.3,42.4c1.2,1.4,0.6,3.9-1.3,5.5c-1.9,1.6-4.5,1.8-5.7,0.3c-1.2-1.4-0.6-3.9,1.3-5.5
	C40.5,41.1,43.1,41,44.3,42.4z"/>
<path class="st3" id="do13" d="M130.1,42.4c1.2,1.4,0.6,3.9-1.3,5.5c-1.9,1.6-4.5,1.8-5.7,0.3c-1.2-1.4-0.6-3.9,1.3-5.5
	C126.4,41.1,128.9,41,130.1,42.4z"/>
<path class="st3" id="do12" d="M250.2,42.4c1.2,1.4,0.6,3.9-1.3,5.5c-1.9,1.6-4.5,1.8-5.7,0.3c-1.2-1.4-0.6-3.9,1.3-5.5
	C246.5,41.1,249,41,250.2,42.4z"/>
<path class="st3" id="do11" d="M359.9,42.4c1.2,1.4,0.6,3.9-1.3,5.5c-1.9,1.6-4.5,1.8-5.7,0.3c-1.2-1.4-0.6-3.9,1.3-5.5
	C356.1,41.1,358.7,41,359.9,42.4z"/>
<path class="st3" id="ta12" d="M177.9,27.1c1.2,1.4,0.6,3.8-1.3,5.4c-1.9,1.6-4.3,1.7-5.5,0.3c-1.2-1.4-0.6-3.8,1.3-5.4
	C174.3,25.9,176.7,25.8,177.9,27.1z"/>
<path class="st3" id="ta11" d="M477.7,27.1c1.2,1.4,0.6,3.8-1.3,5.4c-1.9,1.6-4.3,1.7-5.5,0.3c-1.2-1.4-0.6-3.8,1.3-5.4
	C474.1,25.9,476.5,25.8,477.7,27.1z"/>
<polygon class="st3" id="chi11" points="43.9,12.6 43.2,11.9 40.9,14.3 38.5,11.9 37.8,12.6 40.1,15 37.8,17.3 38.5,18 40.9,15.7 43.2,18
	43.9,17.3 41.6,15 "/>
<polygon class="st3" id="chi12" points="77.6,12.6 76.9,11.9 74.6,14.3 72.2,11.9 71.5,12.6 73.9,15 71.5,17.3 72.2,18 74.6,15.7 76.9,18
	77.6,17.3 75.3,15 "/>
<polygon class="st3" id="chi13" points="112.5,12.6 111.8,11.9 109.5,14.3 107.1,11.9 106.4,12.6 108.8,15 106.4,17.3 107.1,18 109.5,15.7
	111.8,18 112.5,17.3 110.2,15 "/>
<polygon class="st3" id="chi14" points="150.5,12.6 149.8,11.9 147.4,14.3 145.1,11.9 144.4,12.6 146.7,15 144.4,17.3 145.1,18 147.4,15.7
	149.8,18 150.5,17.3 148.1,15 "/>
<polygon class="st3" id="chi15" points="214.9,12.6 214.2,11.9 211.8,14.3 209.5,11.9 208.8,12.6 211.1,15 208.8,17.3 209.5,18 211.8,15.7
	214.2,18 214.9,17.3 212.5,15 "/>
<polygon class="st3" id="chi16" points="249.8,12.6 249.1,11.9 246.7,14.3 244.4,11.9 243.7,12.6 246,15 243.7,17.3 244.4,18 246.7,15.7
	249.1,18 249.8,17.3 247.4,15 "/>
<polygon class="st3" id="chi16_1_" points="287.8,12.6 287,11.9 284.7,14.3 282.3,11.9 281.6,12.6 284,15 281.6,17.3 282.3,18 284.7,15.7
	287,18 287.8,17.3 285.4,15 "/>
<polygon class="st3" id="chi17" points="330.1,12.6 329.3,11.9 327,14.3 324.6,11.9 323.9,12.6 326.3,15 323.9,17.3 324.6,18 327,15.7 329.3,18
	330.1,17.3 327.7,15 "/>
<polygon class="st3" id="chi18" points="363.8,12.6 363.1,11.9 360.7,14.3 358.4,11.9 357.6,12.6 360,15 357.6,17.3 358.4,18 360.7,15.7
	363.1,18 363.8,17.3 361.4,15 "/>
<polygon class="st3" id="chi19" points="398.7,12.6 398,11.9 395.6,14.3 393.3,11.9 392.6,12.6 394.9,15 392.6,17.3 393.3,18 395.6,15.7 398,18
	398.7,17.3 396.3,15 "/>
<polygon class="st3" id="chi20" points="436.6,12.6 435.9,11.9 433.6,14.3 431.2,11.9 430.5,12.6 432.9,15 430.5,17.3 431.2,18 433.6,15.7
	435.9,18 436.6,17.3 434.3,15 "/>
<polygon class="st3" id="chi21" points="511,12.6 510.3,11.9 508,14.3 505.6,11.9 504.9,12.6 507.3,15 504.9,17.3 505.6,18 508,15.7 510.3,18
	511,17.3 508.7,15 "/>
<polygon class="st3" id="chi22" points="546,12.6 545.3,11.9 542.9,14.3 540.5,11.9 539.8,12.6 542.2,15 539.8,17.3 540.5,18 542.9,15.7
	545.3,18 546,17.3 543.6,15 "/>
<polygon class="st3" id="chi23" points="583.9,12.6 583.2,11.9 580.9,14.3 578.5,11.9 577.8,12.6 580.2,15 577.8,17.3 578.5,18 580.9,15.7
	583.2,18 583.9,17.3 581.6,15 "/>
</svg>
