<svg version="1.1" id="_x38_beat" xmlns="http://www.w3.org/2000/svg" xmlns:xlink="http://www.w3.org/1999/xlink" x="0px" y="0px"
	 viewBox="0 0 154.5 73.1" style="enable-background:new 0 0 154.5 73.1;" xml:space="preserve">
<style type="text/css">
	.st0{fill:none;stroke:#000000;stroke-width:0.5;}
</style>
<g>
	<line class="st0" x1="1.3" y1="49.2" x2="152.9" y2="49.2"/>
	<line class="st0" x1="1.3" y1="18.6" x2="152.9" y2="18.6"/>
	<line class="st0" x1="1.3" y1="26.3" x2="152.9" y2="26.3"/>
	<line class="st0" x1="1.3" y1="33.9" x2="152.9" y2="33.9"/>
	<line class="st0" x1="1.3" y1="41.6" x2="152.9" y2="41.6"/>
</g>
<line class="st0" x1="1.4" y1="18.6" x2="1.4" y2="49.2"/>
<line class="st0" x1="152.9" y1="18.6" x2="152.9" y2="49.2"/>
<g>
	<path d="M15.3,56.3c0,1.4-1.2,2.6-2.6,2.6s-2.6-1.2-2.6-2.6c0-1.4,1.2-2.6,2.6-2.6S15.3,54.9,15.3,56.3z"/>
	<path d="M10.3,57.4c0.8,2,3,3.4,5.7,3.1c4.3-0.5,5.9-4.7,5.2-9.8c-0.4-3-4-26.3-4.3-30.1c-0.5-6,7.1-13.1,7.1-8
		c0,2.7-1.8,7.2-6,10.9c-3,2.6-10,7.7-10,16.8c0,5.1,4.2,9.1,9.5,9.1c4.7,0,9.5-3.1,9.5-7.9c0-6.2-4.2-8-8-7.7
		c-4.4,0.3-5.7,3.9-5.6,5.9c0.1,1.9,1.5,3.2,2.5,3.9c-1.4-2.5-0.7-6.7,3.2-6.9c3-0.1,5,1.4,5,4.8c0,3.5-2,6.7-6.6,6.7
		c-5.3,0-7.6-4.1-7.6-7.5c0-7.2,7.3-11.7,10.6-15c3.5-3.5,4.3-8.1,4.2-11.9c-0.2-10.5-9.7-4.5-9.2,5.4c0.2,4.5,3.9,23.5,4.5,32.1
		c0.1,1.6,0.3,7.9-4.6,8.2c-2,0.1-3.8-1.1-2.9-2.9"/>
</g>
<path id="do01" d="M44.3,42.4c1.2,1.4,0.6,3.9-1.3,5.5c-1.9,1.6-4.5,1.8-5.7,0.3c-1.2-1.4-0.6-3.9,1.3-5.5
	C40.5,41.1,43.1,41,44.3,42.4z"/>
<path id="do02" d="M115.4,42.4c1.2,1.4,0.6,3.9-1.3,5.5s-4.5,1.8-5.7,0.3c-1.2-1.4-0.6-3.9,1.3-5.5C111.6,41.1,114.2,41,115.4,42.4z
	"/>
<path id="do03" d="M136,42.4c1.2,1.4,0.6,3.9-1.3,5.5c-1.9,1.6-4.5,1.8-5.7,0.3c-1.2-1.4-0.6-3.9,1.3-5.5
	C132.2,41.1,134.8,41,136,42.4z"/>
<path id="ta02" d="M150.5,27.1c1.2,1.4,0.6,3.8-1.3,5.4c-1.9,1.6-4.3,1.7-5.5,0.3c-1.2-1.4-0.6-3.8,1.3-5.4
	C146.9,25.9,149.4,25.8,150.5,27.1z"/>
<path id="ta01" d="M79.8,27.1c1.2,1.4,0.6,3.8-1.3,5.4c-1.9,1.6-4.3,1.7-5.5,0.3c-1.2-1.4-0.6-3.8,1.3-5.4
	C76.2,25.9,78.7,25.8,79.8,27.1z"/>
<polygon id="chi01" points="43.9,12.6 43.3,12 40.9,14.5 38.4,12 37.8,12.6 40.3,15 37.8,17.4 38.4,18 40.9,15.5 43.3,18 43.9,17.4
	41.4,15 "/>
<polygon id="chi02" points="79.4,12.6 78.8,12 76.4,14.5 74,12 73.4,12.6 75.9,15 73.4,17.4 74,18 76.4,15.5 78.8,18 79.4,17.4
	76.9,15 "/>
<polygon id="chi03" points="114.9,12.6 114.3,12 111.8,14.5 109.4,12 108.8,12.6 111.3,15 108.8,17.4 109.4,18 111.8,15.5 114.3,18
	114.9,17.4 112.4,15 "/>
<polygon id="chi04" points="150.4,12.6 149.8,12 147.4,14.5 145,12 144.4,12.6 146.9,15 144.4,17.4 145,18 147.4,15.5 149.8,18
	150.4,17.4 147.9,15 "/>
</svg>
