<?xml version="1.0" encoding="utf-8"?>
<!-- Generator: Adobe Illustrator 25.3.1, SVG Export Plug-In . SVG Version: 6.00 Build 0)  -->
<svg version="1.1" id="_x38_beat" xmlns="http://www.w3.org/2000/svg" xmlns:xlink="http://www.w3.org/1999/xlink" x="0px" y="0px"
	 viewBox="0 0 154.5 73.1" style="enable-background:new 0 0 154.5 73.1;" xml:space="preserve">
<style type="text/css">
	.st0{fill:none;stroke:#000000;stroke-width:0.5;}
	.st1{fill:none;stroke:#000000;stroke-width:0.75;}
	.st2{fill:#FFFFFF;stroke:#000000;stroke-width:0.5;stroke-miterlimit:10;}
	.st3{fill:none;stroke:#000000;stroke-miterlimit:10;}
</style>
<g>
	<line class="st0" x1="1.3" y1="49.2" x2="152.9" y2="49.2"/>
	<line class="st0" x1="1.3" y1="18.6" x2="152.9" y2="18.6"/>
	<line class="st0" x1="1.3" y1="26.3" x2="152.9" y2="26.3"/>
	<line class="st0" x1="1.3" y1="33.9" x2="152.9" y2="33.9"/>
	<line class="st0" x1="1.3" y1="41.6" x2="152.9" y2="41.6"/>
</g>
<line class="st1" x1="1.4" y1="18.6" x2="1.4" y2="49.2"/>
<line class="st2" x1="152.9" y1="18.6" x2="152.9" y2="49.2"/>
<g>
	<path d="M15.3,56.3c0,1.4-1.2,2.6-2.6,2.6s-2.6-1.2-2.6-2.6c0-1.4,1.2-2.6,2.6-2.6S15.3,54.9,15.3,56.3z"/>
	<path d="M10.3,57.4c0.8,2,3,3.4,5.7,3.1c4.3-0.5,5.9-4.7,5.2-9.8c-0.4-3-4-26.3-4.3-30.1c-0.5-6,7.1-13.1,7.1-8
		c0,2.7-1.8,7.2-6,10.9c-3,2.6-10,7.7-10,16.8c0,5.1,4.2,9.1,9.5,9.1c4.7,0,9.5-3.1,9.5-7.9c0-6.2-4.2-8-8-7.7
		c-4.4,0.3-5.7,3.9-5.6,5.9c0.1,1.9,1.5,3.2,2.5,3.9c-1.4-2.5-0.7-6.7,3.2-6.9c3-0.1,5,1.4,5,4.8c0,3.5-2,6.7-6.6,6.7
		c-5.3,0-7.6-4.1-7.6-7.5c0-7.2,7.3-11.7,10.6-15c3.5-3.5,4.3-8.1,4.2-11.9c-0.2-10.5-9.7-4.5-9.2,5.4c0.2,4.5,3.9,23.5,4.5,32.1
		c0.1,1.6,0.3,7.9-4.6,8.2c-2,0.1-3.8-1.1-2.9-2.9"/>
</g>
<path d="M105.7,54.6c0,0.7,2.8,2.7,4.1,4.5c-1.5-0.5-3.6-0.3-4.1,1.3c-0.5,1.8,1.5,2.8,3.1,3.7c-1.2-1.1-1.2-2.1-0.8-3
	c0.6-1.2,2.1-1.2,3.7-0.9c-1.9-3.5-2.9-4.4-2.9-5.4c0-1.4,3.4-4.9,3.4-7c0-0.9-2.8-4.3-5.4-6.9c1.5,3,2.6,5.2,2.6,6.8
	C109.3,48.6,105.7,53.2,105.7,54.6z"/>
<rect x="111.4" y="3" width="0.8" height="25.9"/>
<rect x="71.1" y="3" width="0.8" height="12"/>
<rect x="40.5" y="0.9" width="107.3" height="2.1"/>
<rect x="40.5" y="3" width="0.8" height="12"/>
<rect x="147.1" y="3" width="0.8" height="12"/>
<rect x="36.6" y="46.1" width="0.8" height="25.7"/>
<path id="do" d="M44.3,42.4c1.2,1.4,0.6,3.9-1.3,5.5c-1.9,1.6-4.5,1.8-5.7,0.3c-1.2-1.4-0.6-3.9,1.3-5.5
	C40.5,41.1,43.1,41,44.3,42.4z"/>
<path id="ta" d="M111.5,27.1c1.2,1.4,0.6,3.8-1.3,5.4c-1.9,1.6-4.3,1.7-5.5,0.3c-1.2-1.4-0.6-3.8,1.3-5.4
	C107.9,25.9,110.4,25.8,111.5,27.1z"/>
<g id="chi01">
	<line class="st3" x1="43.6" y1="17.7" x2="38.1" y2="12.3"/>
	<line class="st3" x1="38.1" y1="17.7" x2="43.6" y2="12.3"/>
</g>
<g id="chi02">
	<line class="st3" x1="74.2" y1="17.7" x2="68.8" y2="12.3"/>
	<line class="st3" x1="68.8" y1="17.7" x2="74.2" y2="12.3"/>
</g>
<g id="chi03">
	<line class="st3" x1="114.5" y1="17.7" x2="109" y2="12.3"/>
	<line class="st3" x1="109" y1="17.7" x2="114.5" y2="12.3"/>
</g>
<g id="chi04">
	<line class="st3" x1="150.1" y1="17.7" x2="144.7" y2="12.3"/>
	<line class="st3" x1="144.7" y1="17.7" x2="150.1" y2="12.3"/>
</g>
</svg>
