<?xml version="1.0" encoding="utf-8"?>
<!-- Generator: Adobe Illustrator 25.3.1, SVG Export Plug-In . SVG Version: 6.00 Build 0)  -->
<svg version="1.1" xmlns="http://www.w3.org/2000/svg" xmlns:xlink="http://www.w3.org/1999/xlink" x="0px" y="0px"
   viewBox="0 0 222.1 69.7" style="enable-background:new 0 0 222.1 69.7;" xml:space="preserve">
<style type="text/css">
  .st0{fill:#1B99D7;}
  .st1{fill:#E99B18;}
</style>
<g id="layer2">
  <rect x="9.3" y="41.5" width="197.5" height="0.5"/>
  <rect x="9.3" y="10.9" width="197.5" height="0.5"/>
  <rect x="9.3" y="18.6" width="197.5" height="0.5"/>
  <rect x="9.3" y="26.2" width="197.5" height="0.5"/>
  <rect x="9.3" y="33.6" class="st0" width="197.5" height="1"/>
  <rect x="9" y="10.9" width="0.4" height="31.1"/>
  <path d="M23.1,48.9c0,1.4-1.2,2.6-2.6,2.6c-1.4,0-2.6-1.2-2.6-2.6c0-1.4,1.2-2.6,2.6-2.6C22,46.3,23.1,47.4,23.1,48.9z"/>
  <path d="M18.2,49.9c0.8,2,3,3.4,5.7,3.1c4.3-0.5,5.9-4.7,5.2-9.8c-0.4-3-4-26.3-4.3-30.1c-0.5-6,7.1-13.1,7.1-8
    c0,2.7-1.8,7.2-6,10.9c-3,2.6-10,7.7-10,16.8c0,5.1,4.2,9.1,9.5,9.1c4.7,0,9.5-3.1,9.5-7.9c0-6.2-4.2-8-8-7.7
    c-4.4,0.3-5.7,3.9-5.6,5.9c0.1,1.9,1.5,3.2,2.5,3.9c-1.4-2.5-0.7-6.7,3.2-6.9c3-0.1,5,1.4,5,4.8c0,3.5-2,6.7-6.6,6.7
    c-5.3,0-7.6-4.1-7.6-7.5c0-7.2,7.3-11.7,10.6-15c3.5-3.5,4.3-8.1,4.2-11.9c-0.2-10.5-9.7-4.5-9.2,5.4c0.2,4.5,3.9,23.5,4.5,32.1
    c0.1,1.6,0.3,7.9-4.6,8.2c-2,0.1-3.8-1.1-2.9-2.9"/>
  <rect x="54.4" y="48.3" class="st1" width="14.1" height="1"/>
</g>
<g id="layer1">
  <g id="c">
    <path d="M66.9,48.7c0-2-2.3-3.7-5-3.6c-2.7,0-5,1.7-4.9,3.7c0,2,2.3,3.7,5,3.6C64.7,52.4,66.9,50.8,66.9,48.7z M61.9,50.6
      c-2.4,0-4.3-0.8-4.3-1.8c0-1,1.9-1.8,4.3-1.9c2.4,0,4.3,0.8,4.3,1.8C66.2,49.7,64.3,50.6,61.9,50.6z"/>
    <path d="M66.9,41.3c0-2-2.3-3.7-5-3.6c-2.7,0-5,1.7-4.9,3.7c0,2,2.3,3.7,5,3.6C64.7,45,66.9,43.4,66.9,41.3z M61.9,43.2
      c-2.4,0-4.3-0.8-4.3-1.8c0-1,1.9-1.8,4.3-1.9c2.4,0,4.3,0.8,4.3,1.8C66.2,42.4,64.3,43.2,61.9,43.2z"/>
    <path d="M66.9,34c0-2-2.3-3.7-5-3.6c-2.7,0-5,1.7-4.9,3.7c0,2,2.3,3.7,5,3.6C64.7,37.7,66.9,36,66.9,34z M61.9,35.8
      c-2.4,0-4.3-0.8-4.3-1.8c0-1,1.9-1.8,4.3-1.9c2.4,0,4.3,0.8,4.3,1.8C66.2,35,64.3,35.8,61.9,35.8z"/>
    <g>
      <path d="M62.2,65.3c-0.1,0.1-0.2,0.1-0.3,0.1s-0.2,0-0.3-0.1c-0.1-0.1-0.1-0.2-0.1-0.3v-6.4c0-0.1,0-0.2,0.1-0.3
        c0.1-0.1,0.2-0.1,0.3-0.1s0.2,0,0.3,0.1c0.1,0.1,0.1,0.2,0.1,0.3V65C62.4,65.1,62.3,65.2,62.2,65.3z"/>
    </g>
  </g>
  <g id="d">
    <path d="M87.2,45.1c0-2-2.3-3.7-5-3.6c-2.7,0-5,1.7-4.9,3.7c0,2,2.3,3.7,5,3.6C85,48.8,87.2,47.2,87.2,45.1z M82.2,47
      c-2.4,0-4.3-0.8-4.3-1.8c0-1,1.9-1.8,4.3-1.9c2.4,0,4.3,0.8,4.3,1.8C86.5,46.2,84.6,47,82.2,47z"/>
    <path d="M87.2,37.8c0-2-2.3-3.7-5-3.6c-2.7,0-5,1.7-4.9,3.7c0,2,2.3,3.7,5,3.6C85,41.5,87.2,39.8,87.2,37.8z M82.2,39.6
      c-2.4,0-4.3-0.8-4.3-1.8c0-1,1.9-1.8,4.3-1.9c2.4,0,4.3,0.8,4.3,1.8C86.5,38.8,84.6,39.6,82.2,39.6z"/>
    <path d="M87.2,30.4c0-2-2.3-3.7-5-3.6c-2.7,0-5,1.7-4.9,3.7c0,2,2.3,3.7,5,3.6C85,34.1,87.2,32.4,87.2,30.4z M82.2,32.3
      c-2.4,0-4.3-0.8-4.3-1.8c0-1,1.9-1.8,4.3-1.9c2.4,0,4.3,0.8,4.3,1.8C86.5,31.4,84.6,32.2,82.2,32.3z"/>
    <g>
      <path d="M81.3,65.3c-0.1,0.1-0.2,0.1-0.3,0.1s-0.2,0-0.3-0.1c-0.1-0.1-0.1-0.2-0.1-0.3v-6.5c0-0.1,0-0.2,0.1-0.3
        c0.1-0.1,0.2-0.1,0.3-0.1s0.2,0,0.3,0.1c0.1,0.1,0.1,0.2,0.1,0.3V65C81.5,65.1,81.4,65.2,81.3,65.3z M84,65.3
        c-0.1,0.1-0.2,0.1-0.3,0.1s-0.2,0-0.3-0.1c-0.1-0.1-0.1-0.2-0.1-0.3v-6.5c0-0.1,0-0.2,0.1-0.3c0.1-0.1,0.2-0.1,0.3-0.1
        s0.2,0,0.3,0.1c0.1,0.1,0.1,0.2,0.1,0.3V65C84.1,65.1,84.1,65.2,84,65.3z"/>
    </g>
  </g>
  <g id="e">
    <path d="M108.9,41.9c0-2.2-2.5-4-5.5-4c-3,0-5.4,1.8-5.4,4.1c0,2.2,2.5,4,5.5,4C106.5,46,108.9,44.2,108.9,41.9z M103.5,44
      c-2.6,0-4.7-0.9-4.7-2c0-1.1,2.1-2,4.7-2c2.6,0,4.7,0.9,4.7,2C108.1,43,106,44,103.5,44z"/>
    <path d="M108.6,34.1c0-2.1-2.4-3.8-5.2-3.8c-2.9,0-5.2,1.8-5.2,3.9c0,2.1,2.4,3.8,5.2,3.8C106.3,37.9,108.6,36.2,108.6,34.1z
       M103.5,36c-2.5,0-4.5-0.8-4.5-1.9c0-1.1,2-1.9,4.4-1.9c2.5,0,4.5,0.8,4.5,1.9C107.9,35.1,105.9,36,103.5,36z"/>
    <path d="M108.4,26.7c0-2-2.3-3.7-5-3.6c-2.7,0-5,1.7-4.9,3.7c0,2,2.3,3.7,5,3.6C106.2,30.4,108.4,28.7,108.4,26.7z M103.5,28.6
      c-2.4,0-4.3-0.8-4.3-1.8c0-1,1.9-1.8,4.3-1.9c2.4,0,4.3,0.8,4.3,1.8C107.7,27.7,105.8,28.6,103.5,28.6z"/>
    <g>
      <path d="M101.5,65.3c-0.1,0.1-0.2,0.1-0.3,0.1c-0.1,0-0.2,0-0.3-0.1c-0.1-0.1-0.1-0.2-0.1-0.3v-6.5c0-0.1,0-0.2,0.1-0.3
        c0.1-0.1,0.2-0.1,0.3-0.1c0.1,0,0.2,0,0.3,0.1c0.1,0.1,0.1,0.2,0.1,0.3V65C101.6,65.1,101.6,65.2,101.5,65.3z M104,65.3
        c-0.1,0.1-0.2,0.1-0.3,0.1s-0.2,0-0.3-0.1s-0.1-0.2-0.1-0.3v-6.5c0-0.1,0-0.2,0.1-0.3c0.1-0.1,0.2-0.1,0.3-0.1s0.2,0,0.3,0.1
        c0.1,0.1,0.1,0.2,0.1,0.3V65C104.1,65.1,104,65.2,104,65.3z M105.7,58.5c0-0.1,0-0.2,0.1-0.3c0.1-0.1,0.2-0.1,0.3-0.1
        s0.2,0,0.3,0.1c0.1,0.1,0.1,0.2,0.1,0.3V65c0,0.1,0,0.2-0.1,0.3s-0.2,0.1-0.3,0.1s-0.2,0-0.3-0.1s-0.1-0.2-0.1-0.3V58.5z"/>
    </g>
  </g>
  <g id="f">
    <path d="M129.2,37.8c0-2-2.3-3.7-5-3.6c-2.7,0-5,1.7-4.9,3.7c0,2,2.3,3.7,5,3.6C127,41.5,129.2,39.8,129.2,37.8z M124.3,39.6
      c-2.4,0-4.3-0.8-4.3-1.8c0-1,1.9-1.8,4.3-1.9c2.4,0,4.3,0.8,4.3,1.8C128.5,38.8,126.6,39.6,124.3,39.6z"/>
    <path d="M129.2,30.4c0-2-2.3-3.7-5-3.6c-2.7,0-5,1.7-4.9,3.7c0,2,2.3,3.7,5,3.6C127,34.1,129.2,32.4,129.2,30.4z M124.3,32.3
      c-2.4,0-4.3-0.8-4.3-1.8c0-1,1.9-1.8,4.3-1.9c2.4,0,4.3,0.8,4.3,1.8C128.5,31.4,126.6,32.2,124.3,32.3z"/>
    <path d="M129.2,23c0-2-2.3-3.7-5-3.6c-2.7,0-5,1.7-4.9,3.7c0,2,2.3,3.7,5,3.6C127,26.7,129.2,25,129.2,23z M124.3,24.9
      c-2.4,0-4.3-0.8-4.3-1.8c0-1,1.9-1.8,4.3-1.9c2.4,0,4.3,0.8,4.3,1.8C128.5,24,126.6,24.9,124.3,24.9z"/>
    <g>
      <path d="M121.6,65.3c-0.1,0.1-0.2,0.1-0.3,0.1s-0.2,0-0.3-0.1c-0.1-0.1-0.1-0.2-0.1-0.3v-6.5c0-0.1,0-0.2,0.1-0.3
        c0.1-0.1,0.2-0.1,0.3-0.1s0.2,0,0.3,0.1c0.1,0.1,0.1,0.2,0.1,0.3V65C121.8,65.1,121.7,65.2,121.6,65.3z M125.8,65.3
        c-0.1,0.1-0.2,0.1-0.4,0.1c-0.1,0-0.3,0-0.4-0.1c-0.1-0.1-0.2-0.2-0.2-0.3l-2.4-6.5c0-0.1,0-0.2,0-0.3c0.1-0.1,0.1-0.1,0.2-0.1
        c0.1,0,0.2,0,0.4,0.1s0.2,0.2,0.2,0.3l2.1,6.1c0,0,0,0,0,0c0,0,0,0,0,0l2.1-6.1c0.1-0.3,0.3-0.4,0.6-0.4c0.1,0,0.2,0,0.2,0.1
        c0.1,0.1,0.1,0.2,0,0.3l-2.4,6.5C126,65.1,125.9,65.2,125.8,65.3z"/>
    </g>
  </g>
  <g id="g">
    <path d="M150.8,34c0-2.1-2.3-3.8-5.2-3.8c-2.9,0-5.2,1.8-5.1,3.9c0,2.1,2.3,3.8,5.2,3.8C148.5,37.8,150.8,36.1,150.8,34z
       M145.6,35.9c-2.5,0-4.4-0.8-4.5-1.9c0-1,2-1.9,4.4-1.9c2.5,0,4.4,0.8,4.5,1.9C150.1,35,148.1,35.9,145.6,35.9z"/>
    <path d="M150.5,26.4c0-2-2.3-3.7-5-3.6c-2.7,0-5,1.7-4.9,3.7c0,2,2.3,3.7,5,3.6C148.3,30.1,150.5,28.5,150.5,26.4z M145.5,28.3
      c-2.4,0-4.3-0.8-4.3-1.8c0-1,1.9-1.8,4.3-1.9c2.4,0,4.3,0.8,4.3,1.8C149.8,27.4,147.9,28.3,145.5,28.3z"/>
    <path d="M150.5,19c0-2-2.3-3.7-5-3.6c-2.7,0-5,1.7-4.9,3.7c0,2,2.3,3.7,5,3.6C148.3,22.7,150.5,21.1,150.5,19z M145.5,20.9
      c-2.4,0-4.3-0.8-4.3-1.8c0-1,1.9-1.8,4.3-1.9c2.4,0,4.3,0.8,4.3,1.8C149.8,20,147.9,20.9,145.5,20.9z"/>
    <g>
      <path d="M145,65l-2.4-6.5c0-0.1,0-0.2,0-0.3c0.1-0.1,0.1-0.1,0.2-0.1c0.1,0,0.2,0,0.3,0.1s0.2,0.2,0.2,0.3l2.1,6.1c0,0,0,0,0,0
        c0,0,0,0,0,0l2.1-6.1c0-0.1,0.1-0.2,0.2-0.3c0.1-0.1,0.2-0.1,0.3-0.1c0.1,0,0.2,0,0.2,0.1c0.1,0.1,0.1,0.2,0,0.3l-2.4,6.5
        c0,0.1-0.1,0.2-0.2,0.3c-0.1,0.1-0.2,0.1-0.4,0.1s-0.3,0-0.4-0.1C145.1,65.2,145,65.1,145,65z"/>
    </g>
  </g>
  <g id="a">
    <path d="M171.5,30.4c0-2-2.3-3.7-5-3.6c-2.7,0-5,1.7-4.9,3.7c0,2,2.3,3.7,5,3.6C169.3,34.1,171.5,32.4,171.5,30.4z M166.6,32.3
      c-2.4,0-4.3-0.8-4.3-1.8c0-1,1.9-1.8,4.3-1.9c2.4,0,4.3,0.8,4.3,1.8C170.8,31.4,168.9,32.2,166.6,32.3z"/>
    <path d="M171.5,23c0-2-2.3-3.7-5-3.6c-2.7,0-5,1.7-4.9,3.7c0,2,2.3,3.7,5,3.6C169.3,26.7,171.5,25,171.5,23z M166.6,24.9
      c-2.4,0-4.3-0.8-4.3-1.8c0-1,1.9-1.8,4.3-1.9c2.4,0,4.3,0.8,4.3,1.8C170.8,24,168.9,24.9,166.6,24.9z"/>
    <path d="M171.5,15.6c0-2-2.3-3.7-5-3.6c-2.7,0-5,1.7-4.9,3.7c0,2,2.3,3.7,5,3.6C169.3,19.3,171.5,17.7,171.5,15.6z M166.6,17.5
      c-2.4,0-4.3-0.8-4.3-1.8c0-1,1.9-1.8,4.3-1.9c2.4,0,4.3,0.8,4.3,1.8C170.8,16.7,168.9,17.5,166.6,17.5z"/>
    <g>
      <path d="M168.9,58.1c0.1,0,0.2,0,0.2,0.1c0.1,0.1,0.1,0.2,0,0.3l-2.4,6.5c0,0.1-0.1,0.2-0.2,0.3c-0.1,0.1-0.2,0.1-0.4,0.1
        s-0.3,0-0.4-0.1c-0.1-0.1-0.2-0.2-0.2-0.3l-2.4-6.5c0-0.1,0-0.2,0-0.3c0.1-0.1,0.1-0.1,0.2-0.1c0.1,0,0.2,0,0.3,0.1
        s0.2,0.2,0.2,0.3l2.1,6.1c0,0,0,0,0,0s0,0,0,0l2.1-6.1c0-0.1,0.1-0.2,0.2-0.3S168.8,58.1,168.9,58.1z M170.6,65.3
        c-0.1,0.1-0.2,0.1-0.3,0.1s-0.2,0-0.3-0.1c-0.1-0.1-0.1-0.2-0.1-0.3v-6.5c0-0.1,0-0.2,0.1-0.3c0.1-0.1,0.2-0.1,0.3-0.1
        s0.2,0,0.3,0.1c0.1,0.1,0.1,0.2,0.1,0.3V65C170.8,65.1,170.7,65.2,170.6,65.3z"/>
    </g>
  </g>
  <g id="b">
    <path d="M193.8,26.2c0-2-2.3-3.7-5-3.6c-2.7,0-5,1.7-4.9,3.7c0,2,2.3,3.7,5,3.6C191.7,29.9,193.9,28.2,193.8,26.2z M188.9,28
      c-2.4,0-4.3-0.8-4.3-1.8c0-1,1.9-1.8,4.3-1.9c2.4,0,4.3,0.8,4.3,1.8C193.2,27.2,191.3,28,188.9,28z"/>
    <path d="M193.8,18.8c0-2-2.3-3.7-5-3.6c-2.7,0-5,1.7-4.9,3.7c0,2,2.3,3.7,5,3.6C191.7,22.5,193.9,20.8,193.8,18.8z M188.9,20.6
      c-2.4,0-4.3-0.8-4.3-1.8c0-1,1.9-1.8,4.3-1.9c2.4,0,4.3,0.8,4.3,1.8C193.2,19.8,191.3,20.6,188.9,20.6z"/>
    <path d="M193.8,11.4c0-2-2.3-3.7-5-3.6c-2.7,0-5,1.7-4.9,3.7c0,2,2.3,3.7,5,3.6C191.7,15.1,193.9,13.4,193.8,11.4z M188.9,13.3
      c-2.4,0-4.3-0.8-4.3-1.8c0-1,1.9-1.8,4.3-1.9c2.4,0,4.3,0.8,4.3,1.8C193.2,12.4,191.3,13.3,188.9,13.3z"/>
    <g>
      <path d="M190,58.1c0.1,0,0.2,0,0.2,0.1c0.1,0.1,0.1,0.2,0,0.3l-2.4,6.5c0,0.1-0.1,0.2-0.2,0.3c-0.1,0.1-0.2,0.1-0.4,0.1
        s-0.3,0-0.4-0.1c-0.1-0.1-0.2-0.2-0.2-0.3l-2.4-6.5c0-0.1,0-0.2,0-0.3c0.1-0.1,0.1-0.1,0.2-0.1c0.1,0,0.2,0,0.3,0.1
        s0.2,0.2,0.2,0.3l2.1,6.1c0,0,0,0,0,0c0,0,0,0,0,0l2.1-6.1c0-0.1,0.1-0.2,0.2-0.3S189.8,58.1,190,58.1z M191.7,65.3
        c-0.1,0.1-0.2,0.1-0.3,0.1c-0.1,0-0.2,0-0.3-0.1c-0.1-0.1-0.1-0.2-0.1-0.3v-6.5c0-0.1,0-0.2,0.1-0.3c0.1-0.1,0.2-0.1,0.3-0.1
        c0.1,0,0.2,0,0.3,0.1c0.1,0.1,0.1,0.2,0.1,0.3V65C191.8,65.1,191.8,65.2,191.7,65.3z M194.1,65.3c-0.1,0.1-0.2,0.1-0.3,0.1
        s-0.2,0-0.3-0.1s-0.1-0.2-0.1-0.3v-6.5c0-0.1,0-0.2,0.1-0.3c0.1-0.1,0.2-0.1,0.3-0.1s0.2,0,0.3,0.1c0.1,0.1,0.1,0.2,0.1,0.3V65
        C194.2,65.1,194.2,65.2,194.1,65.3z"/>
    </g>
  </g>
</g>
</svg>
