<svg version="1.1" xmlns="http://www.w3.org/2000/svg" xmlns:xlink="http://www.w3.org/1999/xlink" x="0px" y="0px"
   viewBox="0 0 236.7 58.2" style="enable-background:new 0 0 236.7 58.2;" xml:space="preserve">
<style type="text/css">
  .st0{fill:none;stroke:#000000;stroke-width:0.5073;}
  .st1{fill:none;stroke:#00A3E8;stroke-width:0.5073;}
  .st2{fill:none;stroke:#000000;stroke-width:0.7609;}
  .st3{fill:#FFFFFF;stroke:#000000;stroke-width:0.5073;stroke-miterlimit:10;}
  .st4{fill:#040000;}
  .st5{fill:#EF7D1B;}
</style>
<g id="_x3C_layer_x3E_">
  <path class="st0" d="M235,30"/>
  <path class="st0" d="M1.3,30"/>
  <path class="st0" d="M235,14.7"/>
  <path class="st0" d="M1.3,14.7"/>
  <path class="st0" d="M235,19.8"/>
  <path class="st0" d="M1.3,19.8"/>
  <path class="st0" d="M235,24.9"/>
  <path class="st0" d="M1.3,24.9"/>
  <line class="st0" x1="1.3" y1="30" x2="235" y2="30"/>
  <line class="st0" x1="1.3" y1="9.6" x2="235" y2="9.6"/>
  <line class="st0" x1="1.3" y1="14.7" x2="235" y2="14.7"/>
  <line class="st0" x1="1.3" y1="19.8" x2="235" y2="19.8"/>
  <line class="st1" x1="1.3" y1="24.9" x2="235" y2="24.9"/>
  <path class="st2" d="M1.3,30"/>
  <path class="st2" d="M1.3,9.6"/>
  <line class="st3" x1="235" y1="9.6" x2="235" y2="30.1"/>
</g>
<g id="layer_2">
  <path class="st4" d="M19,21.3c0.5,0,0.9,0.1,1.3,0.3c0.4,0.2,0.8,0.4,1.1,0.7c0.3,0.3,0.5,0.7,0.7,1.1c0.2,0.4,0.3,0.8,0.3,1.3
    c0,0.4-0.1,0.8-0.2,1.2c-0.1,0.4-0.3,0.8-0.5,1.1c-0.2,0.3-0.4,0.7-0.7,0.9c-0.3,0.3-0.6,0.5-0.9,0.7l-1.3-7.3H19z M19.4,29
    c-0.6,0.2-1.2,0.3-1.7,0.3c-0.8,0-1.5-0.1-2.1-0.4c-0.7-0.3-1.2-0.7-1.7-1.2c-0.5-0.5-0.9-1.1-1.2-1.7c-0.3-0.7-0.4-1.4-0.4-2.1
    c0-0.7,0.1-1.3,0.2-1.8c0.1-0.5,0.3-1,0.5-1.5c0.2-0.5,0.5-0.9,0.8-1.3c0.3-0.4,0.7-0.8,1-1.1c0.4-0.4,0.7-0.7,1.1-1.1
    c0.4-0.4,0.8-0.7,1.2-1.1l0.6,3.3c-0.5,0.1-0.9,0.4-1.3,0.6c-0.4,0.3-0.8,0.6-1.1,1c-0.3,0.4-0.5,0.8-0.7,1.3
    c-0.2,0.5-0.3,1-0.3,1.5c0,0.5,0.1,1,0.3,1.5c0.2,0.5,0.5,0.9,0.8,1.2s0.7,0.6,1.2,0.8c0.5,0.2,0.9,0.3,1.5,0.3v-0.4
    c-0.3,0-0.7-0.1-1-0.2c-0.3-0.1-0.6-0.3-0.8-0.5c-0.2-0.2-0.4-0.5-0.5-0.8c-0.1-0.3-0.2-0.6-0.2-1c0-0.4,0.1-0.7,0.2-1.1
    c0.1-0.3,0.3-0.7,0.5-0.9c0.2-0.3,0.5-0.5,0.8-0.7c0.3-0.2,0.6-0.4,1-0.4L19.4,29z M17,10.2c0-0.5-0.1-1-0.1-1.4
    c0-0.6,0-1.2,0.1-1.6c0.1-0.5,0.2-0.8,0.3-1.2c0.1-0.3,0.3-0.6,0.4-0.8C17.9,5,18,4.8,18.2,4.7c0.2-0.1,0.3-0.2,0.5-0.2
    c0.2,0,0.3-0.1,0.4-0.1c0.2,0,0.4,0,0.5,0.1c0.2,0.1,0.3,0.2,0.4,0.4c0.1,0.2,0.2,0.3,0.3,0.6c0.1,0.2,0.1,0.5,0.1,0.7
    c0,0.6-0.1,1.1-0.3,1.6c-0.2,0.5-0.4,1-0.7,1.5c-0.3,0.5-0.6,0.9-1,1.3c-0.4,0.4-0.8,0.9-1.3,1.3C17.1,11.3,17,10.7,17,10.2z
     M20.3,33.7c0,0.1,0,0.1,0,0.2s0,0.2,0,0.3c0,0.1,0,0.2,0,0.3c0,0.1,0,0.2,0,0.2c0,0.4-0.1,0.8-0.2,1.1c-0.2,0.4-0.4,0.7-0.6,0.9
    c-0.3,0.3-0.6,0.5-0.9,0.6c-0.4,0.2-0.7,0.2-1.1,0.2c-0.3,0-0.5,0-0.6-0.1c-0.1-0.1-0.1-0.2-0.1-0.3c0-0.1,0-0.2,0.1-0.2
    c0,0,0.1-0.1,0.2-0.2l0.2-0.2c0.1-0.1,0.1-0.2,0.2-0.3c0-0.1,0.1-0.2,0.1-0.4c0-0.2,0-0.3,0-0.6c0-0.3-0.1-0.5-0.2-0.8
    c-0.1-0.2-0.2-0.5-0.4-0.6c-0.2-0.2-0.4-0.3-0.6-0.4c-0.2-0.1-0.5-0.2-0.8-0.2c-0.3,0-0.5,0.1-0.8,0.2c-0.2,0.1-0.5,0.2-0.6,0.4
    c-0.2,0.2-0.3,0.4-0.4,0.6c-0.1,0.2-0.2,0.5-0.2,0.8c0,0.5,0.1,0.9,0.3,1.3c0.2,0.4,0.5,0.7,0.9,0.9c0.4,0.3,0.8,0.4,1.2,0.6
    c0.5,0.1,1,0.2,1.5,0.2c0.5,0,1-0.1,1.4-0.3c0.4-0.2,0.8-0.5,1.2-0.8c0.3-0.3,0.6-0.7,0.8-1.2c0.2-0.4,0.3-0.9,0.3-1.4
    c0-0.1,0-0.1,0-0.2c0-0.1,0-0.2,0-0.3c0-0.1,0-0.2,0-0.3c0-0.1,0-0.2,0-0.3l-0.7-4.1c0.5-0.3,1-0.6,1.4-1c0.4-0.4,0.8-0.8,1.1-1.3
    c0.3-0.5,0.5-1,0.7-1.6c0.2-0.6,0.3-1.2,0.3-1.8c0-0.6-0.1-1.3-0.4-1.8c-0.2-0.6-0.6-1.1-1-1.5c-0.4-0.4-0.9-0.8-1.5-1
    c-0.6-0.2-1.2-0.4-1.8-0.4c-0.1,0-0.2,0-0.3,0c-0.1,0-0.2,0-0.3,0l-0.7-3.8c0.5-0.5,0.9-1,1.3-1.6c0.4-0.6,0.8-1.3,1.1-2
    c0.3-0.8,0.6-1.6,0.7-2.5c0.2-0.9,0.3-2,0.3-3.2c0-0.3,0-0.6-0.1-1s-0.2-0.7-0.3-1.1c-0.1-0.4-0.3-0.7-0.4-1
    c-0.2-0.3-0.3-0.6-0.5-0.9c-0.2-0.3-0.4-0.5-0.6-0.6c-0.2-0.2-0.4-0.2-0.7-0.2c-0.2,0-0.5,0.1-0.8,0.4c-0.3,0.3-0.6,0.7-0.8,1.2
    c-0.3,0.5-0.5,1.2-0.7,2.1c-0.2,0.8-0.3,1.8-0.3,3c0,0.5,0,1.2,0.1,2c0.1,0.8,0.2,1.7,0.4,2.8c-0.8,0.7-1.5,1.4-2.2,2.1
    c-0.7,0.7-1.3,1.3-1.8,2c-0.5,0.7-0.9,1.5-1.2,2.3c-0.3,0.8-0.4,1.7-0.4,2.7c0,0.8,0.1,1.5,0.2,2.2c0.2,0.7,0.4,1.4,0.7,2
    c0.3,0.6,0.7,1.2,1.1,1.7c0.4,0.5,0.9,1,1.4,1.3c0.5,0.4,1.1,0.6,1.6,0.9c0.6,0.2,1.2,0.3,1.8,0.3c0.6,0,1.2-0.1,1.9-0.3L20.3,33.7
    z"/>
  <path class="st4" d="M33.5,16.3h-3l3-4.7V16.3z M36.4,19.2v-0.4h-0.3c-0.2,0-0.4,0-0.5-0.1c-0.1-0.1-0.2-0.3-0.2-0.5V17h0.6
    c0.1,0,0.2,0,0.3,0l0.2,0.2c0,0.1,0.1,0.2,0.1,0.3c0,0.1,0,0.3,0,0.5h0.4v-2.6h-0.4c0,0.4,0,0.6-0.1,0.8c-0.1,0.1-0.2,0.2-0.4,0.2
    h-0.6V9.6h-1.2l-4.3,6.8L30,17h3.5v1.2c0,0.2-0.1,0.4-0.2,0.5c-0.1,0.1-0.3,0.1-0.5,0.1h-0.3v0.4H36.4z"/>
  <path class="st4" d="M33.5,27h-3l3-4.7V27z M36.4,29.9v-0.4h-0.3c-0.2,0-0.4,0-0.5-0.1c-0.1-0.1-0.2-0.3-0.2-0.5v-1.2h0.6
    c0.1,0,0.2,0,0.3,0l0.2,0.2c0,0.1,0.1,0.2,0.1,0.3c0,0.1,0,0.3,0,0.5h0.4V26h-0.4c0,0.4,0,0.6-0.1,0.8c-0.1,0.1-0.2,0.2-0.4,0.2
    h-0.6v-6.8h-1.2L29.9,27l0.1,0.6h3.5v1.2c0,0.2-0.1,0.4-0.2,0.5c-0.1,0.1-0.3,0.1-0.5,0.1h-0.3v0.4H36.4z"/>
  <polyline class="st4" points="1.7,9.3 1.7,30.1 1.3,30.1 1.3,9.3 	"/>
  <polyline class="st4" points="58.3,16.6 58.3,53.2 57.8,53.2 57.8,16.6 	"/>
  <polyline class="st5" points="49.5,35 60,35 60,35.5 49.5,35.5 	"/>
  <polyline class="st4" points="49.5,40.4 60,40.4 60,40.8 49.5,40.8 	"/>
  <polyline class="st4" points="49.5,45.7 60,45.7 60,46.2 49.5,46.2 	"/>
  <polyline class="st4" points="49.5,51 60,51 60,51.5 49.5,51.5 	"/>
  <g id="c10c">
    <path class="st4" d="M58.1,52.3c-0.1-0.2-0.3-0.4-0.5-0.6c-0.2-0.2-0.5-0.3-0.7-0.4c-0.3-0.1-0.6-0.1-0.9-0.1
      c-0.6,0-1.1,0.1-1.7,0.3c-0.6,0.2-1,0.5-1.5,0.8c-0.4,0.3-0.8,0.7-1,1.1c-0.3,0.4-0.4,0.9-0.4,1.3c0,0.3,0.1,0.6,0.2,0.8
      c0.1,0.2,0.3,0.4,0.5,0.6c0.2,0.2,0.5,0.3,0.7,0.4c0.3,0.1,0.6,0.1,0.9,0.1c0.6,0,1.1-0.1,1.7-0.3c0.5-0.2,1-0.4,1.5-0.8
      c0.4-0.3,0.8-0.7,1.1-1.1c0.3-0.4,0.4-0.9,0.4-1.3C58.3,52.8,58.2,52.5,58.1,52.3z"/>
    <path class="st4" d="M58.1,33.6c-0.1-0.2-0.3-0.4-0.5-0.6c-0.2-0.2-0.5-0.3-0.7-0.4c-0.3-0.1-0.6-0.1-0.9-0.1
      c-0.6,0-1.1,0.1-1.7,0.3c-0.6,0.2-1,0.5-1.5,0.8c-0.4,0.3-0.8,0.7-1,1.1c-0.3,0.4-0.4,0.9-0.4,1.3c0,0.3,0.1,0.6,0.2,0.8
      c0.1,0.2,0.3,0.4,0.5,0.6c0.2,0.2,0.5,0.3,0.7,0.4c0.3,0.1,0.6,0.1,0.9,0.1c0.6,0,1.1-0.1,1.7-0.3c0.5-0.2,1-0.4,1.5-0.8
      c0.4-0.3,0.8-0.7,1.1-1.1c0.3-0.4,0.4-0.9,0.4-1.3C58.3,34.1,58.2,33.8,58.1,33.6z"/>
  </g>
  <polyline class="st4" points="93.1,11.2 93.1,29.2 92.6,29.2 92.6,11.2 	"/>
  <path id="c10e" class="st4" d="M92.9,28.3c-0.1-0.2-0.3-0.4-0.5-0.6c-0.2-0.2-0.5-0.3-0.7-0.4c-0.3-0.1-0.6-0.1-0.9-0.1
    c-0.6,0-1.1,0.1-1.7,0.3c-0.6,0.2-1,0.5-1.5,0.8c-0.4,0.3-0.8,0.7-1,1.1c-0.3,0.4-0.4,0.9-0.4,1.3c0,0.3,0.1,0.6,0.2,0.8
    c0.1,0.2,0.3,0.4,0.5,0.6c0.2,0.2,0.5,0.3,0.7,0.4c0.3,0.1,0.6,0.1,0.9,0.1c0.6,0,1.1-0.1,1.7-0.3c0.5-0.2,1-0.4,1.5-0.8
    c0.4-0.3,0.8-0.7,1.1-1.1c0.3-0.4,0.4-0.9,0.4-1.3C93.1,28.7,93,28.5,92.9,28.3z"/>
  <polyline class="st4" points="124.4,5.9 124.4,23.9 123.9,23.9 123.9,5.9 	"/>
  <path id="c10g" class="st4" d="M120.1,26.1c-0.5,0.2-1,0.3-1.4,0.3c-0.2,0-0.4,0-0.5-0.1c-0.1-0.1-0.2-0.2-0.2-0.3
    c0-0.1,0.1-0.3,0.2-0.5c0.1-0.2,0.2-0.4,0.4-0.6c0.2-0.2,0.4-0.4,0.7-0.6c0.3-0.2,0.6-0.4,0.9-0.6c0.6-0.3,1.1-0.6,1.6-0.8
    c0.5-0.2,1-0.3,1.4-0.3c0.2,0,0.4,0,0.5,0.1c0.1,0.1,0.2,0.2,0.2,0.3c0,0.1-0.1,0.3-0.2,0.5s-0.3,0.4-0.4,0.6
    c-0.2,0.2-0.4,0.4-0.7,0.6c-0.3,0.2-0.6,0.4-0.9,0.6C121.1,25.7,120.6,26,120.1,26.1z M124.2,22.9c-0.1-0.2-0.3-0.4-0.5-0.6
    c-0.2-0.2-0.5-0.3-0.7-0.4c-0.3-0.1-0.6-0.1-0.9-0.1c-0.6,0-1.1,0.1-1.7,0.3c-0.6,0.2-1,0.5-1.5,0.8c-0.4,0.3-0.8,0.7-1,1.1
    c-0.3,0.4-0.4,0.9-0.4,1.3c0,0.3,0.1,0.6,0.2,0.8c0.1,0.2,0.3,0.4,0.5,0.6c0.2,0.2,0.5,0.3,0.7,0.4c0.3,0.1,0.6,0.1,0.9,0.1
    c0.6,0,1.1-0.1,1.7-0.3c0.5-0.2,1-0.4,1.5-0.8c0.4-0.3,0.8-0.7,1.1-1.1c0.3-0.4,0.4-0.9,0.4-1.3C124.4,23.4,124.4,23.1,124.2,22.9z
    "/>
  <polyline class="st4" points="170.1,9.4 170.1,29.9 169.6,29.9 169.6,9.4 	"/>
  <path class="st4" d="M178.4,27.7l0.2-0.3l-1.3-0.9c-0.4-0.3-0.6-0.6-0.9-0.9c-0.2-0.3-0.3-0.7-0.3-1.1c0-0.2,0-0.4,0.1-0.5
    c0.1-0.2,0.2-0.3,0.3-0.4c0.1-0.1,0.3-0.2,0.4-0.3c0.2-0.1,0.3-0.1,0.5-0.1c0.2,0,0.5,0,0.7,0.1c0.2,0.1,0.5,0.2,0.8,0.3l0.3-0.4
    c-0.2-0.2-0.5-0.5-0.7-0.7c-0.2-0.3-0.4-0.5-0.6-0.8c-0.2-0.3-0.3-0.6-0.5-0.9c-0.1-0.3-0.2-0.6-0.2-0.9c0-0.3,0.1-0.6,0.2-0.8
    c0.1-0.3,0.3-0.6,0.4-0.9c0.2-0.3,0.4-0.6,0.7-0.9s0.5-0.5,0.8-0.8l-4.5-4.9l-0.3,0.3l0.3,0.3c0.3,0.3,0.5,0.6,0.7,0.8
    c0.2,0.2,0.4,0.4,0.5,0.7c0.1,0.2,0.2,0.4,0.3,0.6c0.1,0.2,0.1,0.4,0.1,0.6c0,0.3-0.1,0.6-0.2,0.9c-0.1,0.3-0.3,0.6-0.4,0.9
    c-0.2,0.3-0.4,0.5-0.6,0.8c-0.2,0.3-0.5,0.5-0.7,0.7l4,4.8c-0.2-0.2-0.3-0.3-0.5-0.4c-0.2-0.1-0.4-0.2-0.5-0.3
    c-0.2-0.1-0.3-0.1-0.5-0.2c-0.2,0-0.3,0-0.4,0c-0.3,0-0.5,0-0.7,0.1c-0.2,0.1-0.4,0.2-0.6,0.3c-0.2,0.1-0.3,0.3-0.4,0.5
    c-0.1,0.2-0.1,0.4-0.1,0.7c0,0.3,0.1,0.7,0.2,1s0.3,0.6,0.6,0.9c0.2,0.3,0.5,0.6,0.8,0.8s0.7,0.5,1,0.8L178.4,27.7z"/>
  <polyline class="st4" points="210.5,5.9 210.5,53.2 210,53.2 210,5.9 	"/>
  <polyline class="st5" points="201.8,35 212.2,35 212.2,35.5 201.8,35.5 	"/>
  <polyline class="st4" points="201.8,40.4 212.2,40.4 212.2,40.8 201.8,40.8 	"/>
  <polyline class="st4" points="201.8,45.7 212.2,45.7 212.2,46.2 201.8,46.2 	"/>
  <polyline class="st4" points="201.8,51 212.2,51 212.2,51.5 201.8,51.5 	"/>
  <g id="c10">
    <path class="st4" d="M206.2,55.5c-0.5,0.2-1,0.3-1.4,0.3c-0.2,0-0.4,0-0.5-0.1c-0.1-0.1-0.2-0.2-0.2-0.3c0-0.1,0.1-0.3,0.2-0.5
      c0.1-0.2,0.2-0.4,0.4-0.6c0.2-0.2,0.4-0.4,0.7-0.6c0.3-0.2,0.6-0.4,0.9-0.6c0.6-0.3,1.1-0.6,1.6-0.8c0.5-0.2,1-0.3,1.4-0.3
      c0.2,0,0.4,0,0.5,0.1c0.1,0.1,0.2,0.2,0.2,0.3c0,0.1-0.1,0.3-0.2,0.5c-0.1,0.2-0.3,0.4-0.4,0.6c-0.2,0.2-0.4,0.4-0.7,0.6
      c-0.3,0.2-0.6,0.4-0.9,0.6C207.2,55.1,206.7,55.3,206.2,55.5z M210.3,52.3c-0.1-0.2-0.3-0.4-0.5-0.6c-0.2-0.2-0.5-0.3-0.7-0.4
      c-0.3-0.1-0.6-0.1-0.9-0.1c-0.6,0-1.1,0.1-1.7,0.3c-0.6,0.2-1,0.5-1.5,0.8c-0.4,0.3-0.8,0.7-1,1.1c-0.3,0.4-0.4,0.9-0.4,1.3
      c0,0.3,0.1,0.6,0.2,0.8c0.1,0.2,0.3,0.4,0.5,0.6c0.2,0.2,0.5,0.3,0.7,0.4c0.3,0.1,0.6,0.1,0.9,0.1c0.6,0,1.1-0.1,1.7-0.3
      c0.5-0.2,1-0.4,1.5-0.8c0.4-0.3,0.8-0.7,1.1-1.1c0.3-0.4,0.4-0.9,0.4-1.3C210.5,52.8,210.5,52.5,210.3,52.3z"/>
    <path class="st4" d="M206.2,36.8c-0.5,0.2-1,0.3-1.4,0.3c-0.2,0-0.4,0-0.5-0.1c-0.1-0.1-0.2-0.2-0.2-0.3c0-0.1,0.1-0.3,0.2-0.5
      c0.1-0.2,0.2-0.4,0.4-0.6c0.2-0.2,0.4-0.4,0.7-0.6c0.3-0.2,0.6-0.4,0.9-0.6c0.6-0.3,1.1-0.6,1.6-0.8c0.5-0.2,1-0.3,1.4-0.3
      c0.2,0,0.4,0,0.5,0.1c0.1,0.1,0.2,0.2,0.2,0.3c0,0.1-0.1,0.3-0.2,0.5c-0.1,0.2-0.3,0.4-0.4,0.6c-0.2,0.2-0.4,0.4-0.7,0.6
      c-0.3,0.2-0.6,0.4-0.9,0.6C207.2,36.4,206.7,36.6,206.2,36.8z M210.3,33.6c-0.1-0.2-0.3-0.4-0.5-0.6c-0.2-0.2-0.5-0.3-0.7-0.4
      c-0.3-0.1-0.6-0.1-0.9-0.1c-0.6,0-1.1,0.1-1.7,0.3c-0.6,0.2-1,0.5-1.5,0.8c-0.4,0.3-0.8,0.7-1,1.1c-0.3,0.4-0.4,0.9-0.4,1.3
      c0,0.3,0.1,0.6,0.2,0.8c0.1,0.2,0.3,0.4,0.5,0.6c0.2,0.2,0.5,0.3,0.7,0.4c0.3,0.1,0.6,0.1,0.9,0.1c0.6,0,1.1-0.1,1.7-0.3
      c0.5-0.2,1-0.4,1.5-0.8c0.4-0.3,0.8-0.7,1.1-1.1c0.3-0.4,0.4-0.9,0.4-1.3C210.5,34.1,210.5,33.8,210.3,33.6z"/>
    <path class="st4" d="M206.2,31.5c-0.5,0.2-1,0.3-1.4,0.3c-0.2,0-0.4,0-0.5-0.1c-0.1-0.1-0.2-0.2-0.2-0.3c0-0.1,0.1-0.3,0.2-0.5
      c0.1-0.2,0.2-0.4,0.4-0.6c0.2-0.2,0.4-0.4,0.7-0.6c0.3-0.2,0.6-0.4,0.9-0.6c0.6-0.3,1.1-0.6,1.6-0.8c0.5-0.2,1-0.3,1.4-0.3
      c0.2,0,0.4,0,0.5,0.1c0.1,0.1,0.2,0.2,0.2,0.3c0,0.1-0.1,0.3-0.2,0.5c-0.1,0.2-0.3,0.4-0.4,0.6c-0.2,0.2-0.4,0.4-0.7,0.6
      c-0.3,0.2-0.6,0.4-0.9,0.6C207.2,31,206.7,31.3,206.2,31.5z M210.3,28.3c-0.1-0.2-0.3-0.4-0.5-0.6c-0.2-0.2-0.5-0.3-0.7-0.4
      c-0.3-0.1-0.6-0.1-0.9-0.1c-0.6,0-1.1,0.1-1.7,0.3c-0.6,0.2-1,0.5-1.5,0.8c-0.4,0.3-0.8,0.7-1,1.1c-0.3,0.4-0.4,0.9-0.4,1.3
      c0,0.3,0.1,0.6,0.2,0.8c0.1,0.2,0.3,0.4,0.5,0.6c0.2,0.2,0.5,0.3,0.7,0.4c0.3,0.1,0.6,0.1,0.9,0.1c0.6,0,1.1-0.1,1.7-0.3
      c0.5-0.2,1-0.4,1.5-0.8c0.4-0.3,0.8-0.7,1.1-1.1c0.3-0.4,0.4-0.9,0.4-1.3C210.5,28.7,210.5,28.5,210.3,28.3z"/>
    <path class="st4" d="M206.2,26.1c-0.5,0.2-1,0.3-1.4,0.3c-0.2,0-0.4,0-0.5-0.1c-0.1-0.1-0.2-0.2-0.2-0.3c0-0.1,0.1-0.3,0.2-0.5
      c0.1-0.2,0.2-0.4,0.4-0.6c0.2-0.2,0.4-0.4,0.7-0.6c0.3-0.2,0.6-0.4,0.9-0.6c0.6-0.3,1.1-0.6,1.6-0.8c0.5-0.2,1-0.3,1.4-0.3
      c0.2,0,0.4,0,0.5,0.1c0.1,0.1,0.2,0.2,0.2,0.3c0,0.1-0.1,0.3-0.2,0.5c-0.1,0.2-0.3,0.4-0.4,0.6c-0.2,0.2-0.4,0.4-0.7,0.6
      c-0.3,0.2-0.6,0.4-0.9,0.6C207.2,25.7,206.7,26,206.2,26.1z M210.3,22.9c-0.1-0.2-0.3-0.4-0.5-0.6c-0.2-0.2-0.5-0.3-0.7-0.4
      c-0.3-0.1-0.6-0.1-0.9-0.1c-0.6,0-1.1,0.1-1.7,0.3c-0.6,0.2-1,0.5-1.5,0.8c-0.4,0.3-0.8,0.7-1,1.1c-0.3,0.4-0.4,0.9-0.4,1.3
      c0,0.3,0.1,0.6,0.2,0.8c0.1,0.2,0.3,0.4,0.5,0.6c0.2,0.2,0.5,0.3,0.7,0.4c0.3,0.1,0.6,0.1,0.9,0.1c0.6,0,1.1-0.1,1.7-0.3
      c0.5-0.2,1-0.4,1.5-0.8c0.4-0.3,0.8-0.7,1.1-1.1c0.3-0.4,0.4-0.9,0.4-1.3C210.5,23.4,210.5,23.1,210.3,22.9z"/>
  </g>
</g>
</svg>
