<svg version="1.1" id="svg01" xmlns="http://www.w3.org/2000/svg" xmlns:xlink="http://www.w3.org/1999/xlink" x="0px"
	 y="0px" viewBox="0 0 371.3 66.9" style="enable-background:new 0 0 371.3 66.9;" xml:space="preserve">
<style type="text/css">
	.st0{fill:#1E9EC0;}
	.st1{fill:#F58A15;}
</style>
<g>
	<polyline points="4.4,10.7 367.6,10.7 367.6,11.2 4.4,11.2 	"/>
	<polyline points="4.4,16.1 367.6,16.1 367.6,16.6 4.4,16.6 	"/>
	<polyline points="4.4,21.4 367.6,21.4 367.6,21.9 4.4,21.9 	"/>
	<polyline class="st0" points="4.4,26.5 367.6,26.5 367.6,27.5 4.4,27.5 	"/>
	<polyline points="4.4,32.1 367.6,32.1 367.6,32.6 4.4,32.6 	"/>
	<polyline points="4.6,11 4.6,32.3 4.2,32.3 4.2,11 	"/>
	<path d="M17.5,23.7c0.5,0,0.9,0.1,1.3,0.3c0.4,0.2,0.8,0.4,1.1,0.7c0.3,0.3,0.5,0.7,0.7,1.1c0.2,0.4,0.3,0.8,0.3,1.3
		c0,0.4-0.1,0.8-0.2,1.2c-0.1,0.4-0.3,0.8-0.5,1.1c-0.2,0.3-0.4,0.7-0.7,0.9c-0.3,0.3-0.6,0.5-0.9,0.7l-1.3-7.3H17.5z M17.9,31.4
		c-0.6,0.2-1.2,0.3-1.7,0.3c-0.8,0-1.5-0.1-2.1-0.4c-0.7-0.3-1.2-0.7-1.7-1.2c-0.5-0.5-0.9-1.1-1.2-1.7c-0.3-0.7-0.4-1.4-0.4-2.1
		c0-0.7,0.1-1.3,0.2-1.8c0.1-0.5,0.3-1,0.5-1.5c0.2-0.5,0.5-0.9,0.8-1.3c0.3-0.4,0.7-0.8,1-1.1c0.4-0.4,0.7-0.7,1.1-1.1
		c0.4-0.4,0.8-0.7,1.2-1.1l0.6,3.3c-0.5,0.1-0.9,0.4-1.3,0.6c-0.4,0.3-0.8,0.6-1.1,1c-0.3,0.4-0.5,0.8-0.7,1.3
		c-0.2,0.5-0.3,1-0.3,1.5c0,0.5,0.1,1,0.3,1.5s0.5,0.9,0.8,1.2c0.3,0.3,0.7,0.6,1.2,0.8c0.5,0.2,0.9,0.3,1.5,0.3v-0.4
		c-0.3,0-0.7-0.1-1-0.2c-0.3-0.1-0.6-0.3-0.8-0.5c-0.2-0.2-0.4-0.5-0.5-0.8c-0.1-0.3-0.2-0.6-0.2-1c0-0.4,0.1-0.7,0.2-1.1
		c0.1-0.3,0.3-0.7,0.5-0.9c0.2-0.3,0.5-0.5,0.8-0.7c0.3-0.2,0.6-0.4,1-0.4L17.9,31.4z M15.5,12.6c0-0.5-0.1-1-0.1-1.4
		c0-0.6,0-1.2,0.1-1.6c0.1-0.5,0.2-0.8,0.3-1.2c0.1-0.3,0.3-0.6,0.4-0.8c0.2-0.2,0.3-0.4,0.5-0.5C16.8,7,17,6.9,17.1,6.9
		c0.2,0,0.3-0.1,0.4-0.1c0.2,0,0.4,0,0.5,0.1c0.2,0.1,0.3,0.2,0.4,0.4c0.1,0.2,0.2,0.3,0.3,0.6c0.1,0.2,0.1,0.5,0.1,0.7
		c0,0.6-0.1,1.1-0.3,1.6c-0.2,0.5-0.4,1-0.7,1.5c-0.3,0.5-0.6,0.9-1,1.3c-0.4,0.4-0.8,0.9-1.3,1.3C15.6,13.7,15.5,13.1,15.5,12.6z
		 M18.8,36.1c0,0.1,0,0.1,0,0.2s0,0.2,0,0.3c0,0.1,0,0.2,0,0.3c0,0.1,0,0.2,0,0.2c0,0.4-0.1,0.8-0.2,1.1c-0.2,0.4-0.4,0.7-0.6,0.9
		c-0.3,0.3-0.6,0.5-0.9,0.6c-0.4,0.2-0.7,0.2-1.1,0.2c-0.3,0-0.5,0-0.6-0.1c-0.1-0.1-0.1-0.2-0.1-0.3c0-0.1,0-0.2,0.1-0.2
		c0,0,0.1-0.1,0.2-0.2l0.2-0.2c0.1-0.1,0.1-0.2,0.2-0.3c0-0.1,0.1-0.2,0.1-0.4c0-0.2,0-0.3,0-0.6c0-0.3-0.1-0.5-0.2-0.8
		c-0.1-0.2-0.2-0.5-0.4-0.6c-0.2-0.2-0.4-0.3-0.6-0.4c-0.2-0.1-0.5-0.2-0.8-0.2c-0.3,0-0.5,0.1-0.8,0.2s-0.5,0.2-0.6,0.4
		c-0.2,0.2-0.3,0.4-0.4,0.6C12,37.3,12,37.6,12,37.8c0,0.5,0.1,0.9,0.3,1.3c0.2,0.4,0.5,0.7,0.9,0.9c0.4,0.3,0.8,0.4,1.2,0.6
		c0.5,0.1,1,0.2,1.5,0.2c0.5,0,1-0.1,1.4-0.3c0.4-0.2,0.8-0.5,1.2-0.8c0.3-0.3,0.6-0.7,0.8-1.2c0.2-0.4,0.3-0.9,0.3-1.4
		c0-0.1,0-0.1,0-0.2c0-0.1,0-0.2,0-0.3c0-0.1,0-0.2,0-0.3c0-0.1,0-0.2,0-0.3l-0.7-4.1c0.5-0.3,1-0.6,1.4-1c0.4-0.4,0.8-0.8,1.1-1.3
		c0.3-0.5,0.5-1,0.7-1.6c0.2-0.6,0.3-1.2,0.3-1.8c0-0.6-0.1-1.3-0.4-1.8c-0.2-0.6-0.6-1.1-1-1.5c-0.4-0.4-0.9-0.8-1.5-1
		c-0.6-0.2-1.2-0.4-1.8-0.4c-0.1,0-0.2,0-0.3,0c-0.1,0-0.2,0-0.3,0l-0.7-3.8c0.5-0.5,0.9-1,1.3-1.6c0.4-0.6,0.8-1.3,1.1-2
		c0.3-0.8,0.6-1.6,0.7-2.5c0.2-0.9,0.3-2,0.3-3.2c0-0.3,0-0.6-0.1-1c-0.1-0.4-0.2-0.7-0.3-1.1c-0.1-0.4-0.3-0.7-0.4-1
		c-0.2-0.3-0.3-0.6-0.5-0.9c-0.2-0.3-0.4-0.5-0.6-0.6c-0.2-0.2-0.4-0.2-0.7-0.2c-0.2,0-0.5,0.1-0.8,0.4c-0.3,0.3-0.6,0.7-0.8,1.2
		c-0.3,0.5-0.5,1.2-0.7,2.1c-0.2,0.8-0.3,1.8-0.3,3c0,0.5,0,1.2,0.1,2c0.1,0.8,0.2,1.7,0.4,2.8c-0.8,0.7-1.5,1.4-2.2,2.1
		c-0.7,0.7-1.3,1.3-1.8,2c-0.5,0.7-0.9,1.5-1.2,2.3C9.5,22.1,9.3,23,9.3,24c0,0.8,0.1,1.5,0.2,2.2c0.2,0.7,0.4,1.4,0.7,2
		c0.3,0.6,0.7,1.2,1.1,1.7c0.4,0.5,0.9,1,1.4,1.3c0.5,0.4,1.1,0.6,1.6,0.9c0.6,0.2,1.2,0.3,1.8,0.3c0.6,0,1.2-0.1,1.9-0.3L18.8,36.1
		z"/>
	<path d="M32,18.8h-3l3-4.7V18.8z M34.9,21.6v-0.4h-0.3c-0.2,0-0.4,0-0.5-0.1c-0.1-0.1-0.2-0.3-0.2-0.5v-1.2h0.6c0.1,0,0.2,0,0.3,0
		l0.2,0.2c0,0.1,0.1,0.2,0.1,0.3c0,0.1,0,0.3,0,0.5h0.4v-2.6h-0.4c0,0.4,0,0.6-0.1,0.8c-0.1,0.1-0.2,0.2-0.4,0.2h-0.6V12h-1.2
		l-4.3,6.8l0.1,0.6H32v1.2c0,0.2-0.1,0.4-0.2,0.5c-0.1,0.1-0.3,0.1-0.5,0.1H31v0.4H34.9z"/>
	<path d="M32,29.4h-3l3-4.7V29.4z M34.9,32.3v-0.4h-0.3c-0.2,0-0.4,0-0.5-0.1c-0.1-0.1-0.2-0.3-0.2-0.5v-1.2h0.6c0.1,0,0.2,0,0.3,0
		l0.2,0.2c0,0.1,0.1,0.2,0.1,0.3c0,0.1,0,0.3,0,0.5h0.4v-2.6h-0.4c0,0.4,0,0.6-0.1,0.8c-0.1,0.1-0.2,0.2-0.4,0.2h-0.6v-6.8h-1.2
		l-4.3,6.8l0.1,0.6H32v1.2c0,0.2-0.1,0.4-0.2,0.5c-0.1,0.1-0.3,0.1-0.5,0.1H31v0.4H34.9z"/>
	<polyline class="st1" points="43.3,37.1 53.7,37.1 53.7,38.2 43.3,38.2 	"/>
	<polyline points="255.2,11 255.2,32.3 254.7,32.3 254.7,11 	"/>
	<polyline class="st1" points="259.2,37.1 269.6,37.1 269.6,38.2 259.2,38.2 	"/>
	<polyline points="367.8,11 367.8,32.3 367.3,32.3 367.3,11 	"/>
	<polyline points="4.6,11 4.6,33 4.2,33 4.2,11 	"/>
	<polyline points="255.2,11 255.2,32 254.7,32 254.7,11 	"/>
	<polyline points="367.8,11 367.8,33 367.3,33 367.3,11 	"/>
</g>
<g id="g01">
	<path d="M152.7,36.6c-0.5,0.2-1,0.3-1.4,0.3c-0.2,0-0.4,0-0.5-0.1c-0.1-0.1-0.2-0.2-0.2-0.3c0-0.1,0.1-0.3,0.2-0.5
		c0.1-0.2,0.2-0.4,0.4-0.6c0.2-0.2,0.4-0.4,0.7-0.6c0.3-0.2,0.6-0.4,0.9-0.6c0.6-0.3,1.1-0.6,1.6-0.8c0.5-0.2,1-0.3,1.4-0.3
		c0.2,0,0.4,0,0.5,0.1c0.1,0.1,0.2,0.2,0.2,0.3c0,0.1-0.1,0.3-0.2,0.5c-0.1,0.2-0.3,0.4-0.4,0.6c-0.2,0.2-0.4,0.4-0.7,0.6
		c-0.3,0.2-0.6,0.4-0.9,0.6C153.8,36.1,153.3,36.4,152.7,36.6z M156.9,33.3c-0.1-0.2-0.3-0.4-0.5-0.6c-0.2-0.2-0.5-0.3-0.7-0.4
		c-0.3-0.1-0.6-0.1-0.9-0.1c-0.6,0-1.1,0.1-1.7,0.3s-1,0.5-1.5,0.8c-0.4,0.3-0.8,0.7-1,1.1c-0.3,0.4-0.4,0.9-0.4,1.3
		c0,0.3,0.1,0.6,0.2,0.8s0.3,0.4,0.5,0.6c0.2,0.2,0.5,0.3,0.7,0.4c0.3,0.1,0.6,0.1,0.9,0.1c0.6,0,1.1-0.1,1.7-0.3
		c0.5-0.2,1-0.4,1.5-0.8c0.4-0.3,0.8-0.7,1.1-1.1c0.3-0.4,0.4-0.9,0.4-1.3C157.1,33.8,157,33.6,156.9,33.3z"/>
	<polyline points="157.1,16.3 157.1,34.3 156.6,34.3 156.6,16.3 	"/>
	<path d="M152.7,46.9c-0.5,0.2-1,0.3-1.4,0.3c-0.2,0-0.4,0-0.5-0.1c-0.1-0.1-0.2-0.2-0.2-0.3c0-0.1,0.1-0.3,0.2-0.5
		c0.1-0.2,0.2-0.4,0.4-0.6c0.2-0.2,0.4-0.4,0.7-0.6c0.3-0.2,0.6-0.4,0.9-0.6c0.6-0.3,1.1-0.6,1.6-0.8c0.5-0.2,1-0.3,1.4-0.3
		c0.2,0,0.4,0,0.5,0.1c0.1,0.1,0.2,0.2,0.2,0.3c0,0.1-0.1,0.3-0.2,0.5s-0.3,0.4-0.4,0.6c-0.2,0.2-0.4,0.4-0.7,0.6
		c-0.3,0.2-0.6,0.4-0.9,0.6C153.7,46.5,153.2,46.7,152.7,46.9z M156.9,43.7c-0.1-0.2-0.3-0.4-0.5-0.6c-0.2-0.2-0.5-0.3-0.7-0.4
		c-0.3-0.1-0.6-0.1-0.9-0.1c-0.6,0-1.1,0.1-1.7,0.3c-0.6,0.2-1,0.5-1.5,0.8c-0.4,0.3-0.8,0.7-1,1.1c-0.3,0.4-0.4,0.9-0.4,1.3
		c0,0.3,0.1,0.6,0.2,0.8c0.1,0.2,0.3,0.4,0.5,0.6c0.2,0.2,0.5,0.3,0.7,0.4c0.3,0.1,0.6,0.1,0.9,0.1c0.6,0,1.1-0.1,1.7-0.3
		c0.5-0.2,1-0.4,1.5-0.8c0.4-0.3,0.8-0.7,1.1-1.1c0.3-0.4,0.4-0.9,0.4-1.3C157.1,44.2,157,43.9,156.9,43.7z"/>
	<path d="M152.7,41.6c-0.5,0.2-1,0.3-1.4,0.3c-0.2,0-0.4,0-0.5-0.1c-0.1-0.1-0.2-0.2-0.2-0.3c0-0.1,0.1-0.3,0.2-0.5
		c0.1-0.2,0.2-0.4,0.4-0.6c0.2-0.2,0.4-0.4,0.7-0.6c0.3-0.2,0.6-0.4,0.9-0.6c0.6-0.3,1.1-0.6,1.6-0.8c0.5-0.2,1-0.3,1.4-0.3
		c0.2,0,0.4,0,0.5,0.1c0.1,0.1,0.2,0.2,0.2,0.3c0,0.1-0.1,0.3-0.2,0.5s-0.3,0.4-0.4,0.6c-0.2,0.2-0.4,0.4-0.7,0.6
		c-0.3,0.2-0.6,0.4-0.9,0.6C153.7,41.1,153.2,41.4,152.7,41.6z M156.9,38.4c-0.1-0.2-0.3-0.4-0.5-0.6c-0.2-0.2-0.5-0.3-0.7-0.4
		c-0.3-0.1-0.6-0.1-0.9-0.1c-0.6,0-1.1,0.1-1.7,0.3c-0.6,0.2-1,0.5-1.5,0.8c-0.4,0.3-0.8,0.7-1,1.1c-0.3,0.4-0.4,0.9-0.4,1.3
		c0,0.3,0.1,0.6,0.2,0.8c0.1,0.2,0.3,0.4,0.5,0.6c0.2,0.2,0.5,0.3,0.7,0.4c0.3,0.1,0.6,0.1,0.9,0.1c0.6,0,1.1-0.1,1.7-0.3
		c0.5-0.2,1-0.4,1.5-0.8c0.4-0.3,0.8-0.7,1.1-1.1c0.3-0.4,0.4-0.9,0.4-1.3C157.1,38.9,157,38.6,156.9,38.4z"/>
	<polyline points="150.6,40.7 150.6,64 150.1,64 150.1,40.7 	"/>
</g>
<g id="c02">
	<path d="M263.6,39.2c-0.5,0.2-1,0.3-1.4,0.3c-0.2,0-0.4,0-0.5-0.1c-0.1-0.1-0.2-0.2-0.2-0.3c0-0.1,0.1-0.3,0.2-0.5
		c0.1-0.2,0.2-0.4,0.4-0.6c0.2-0.2,0.4-0.4,0.7-0.6c0.3-0.2,0.6-0.4,0.9-0.6c0.6-0.3,1.1-0.6,1.6-0.8c0.5-0.2,1-0.3,1.4-0.3
		c0.2,0,0.4,0,0.5,0.1c0.1,0.1,0.2,0.2,0.2,0.3c0,0.1-0.1,0.3-0.2,0.5s-0.3,0.4-0.4,0.6c-0.2,0.2-0.4,0.4-0.7,0.6
		c-0.3,0.2-0.6,0.4-0.9,0.6C264.6,38.8,264.1,39.1,263.6,39.2z M267.7,36c-0.1-0.2-0.3-0.4-0.5-0.6c-0.2-0.2-0.5-0.3-0.7-0.4
		c-0.3-0.1-0.6-0.1-0.9-0.1c-0.6,0-1.1,0.1-1.7,0.3c-0.6,0.2-1,0.5-1.5,0.8c-0.4,0.3-0.8,0.7-1,1.1c-0.3,0.4-0.4,0.9-0.4,1.3
		c0,0.3,0.1,0.6,0.2,0.8c0.1,0.2,0.3,0.4,0.5,0.6c0.2,0.2,0.5,0.3,0.7,0.4c0.3,0.1,0.6,0.1,0.9,0.1c0.6,0,1.1-0.1,1.7-0.3
		c0.5-0.2,1-0.4,1.5-0.8c0.4-0.3,0.8-0.7,1.1-1.1c0.3-0.4,0.4-0.9,0.4-1.3C267.9,36.5,267.9,36.2,267.7,36z"/>
	<path d="M263.6,33.9c-0.5,0.2-1,0.3-1.4,0.3c-0.2,0-0.4,0-0.5-0.1c-0.1-0.1-0.2-0.2-0.2-0.3c0-0.1,0.1-0.3,0.2-0.5
		c0.1-0.2,0.2-0.4,0.4-0.6c0.2-0.2,0.4-0.4,0.7-0.6c0.3-0.2,0.6-0.4,0.9-0.6c0.6-0.3,1.1-0.6,1.6-0.8c0.5-0.2,1-0.3,1.4-0.3
		c0.2,0,0.4,0,0.5,0.1c0.1,0.1,0.2,0.2,0.2,0.3c0,0.1-0.1,0.3-0.2,0.5s-0.3,0.4-0.4,0.6c-0.2,0.2-0.4,0.4-0.7,0.6
		c-0.3,0.2-0.6,0.4-0.9,0.6C264.6,33.5,264.1,33.7,263.6,33.9z M267.7,30.7c-0.1-0.2-0.3-0.4-0.5-0.6c-0.2-0.2-0.5-0.3-0.7-0.4
		c-0.3-0.1-0.6-0.1-0.9-0.1c-0.6,0-1.1,0.1-1.7,0.3c-0.6,0.2-1,0.5-1.5,0.8c-0.4,0.3-0.8,0.7-1,1.1c-0.3,0.4-0.4,0.9-0.4,1.3
		c0,0.3,0.1,0.6,0.2,0.8c0.1,0.2,0.3,0.4,0.5,0.6c0.2,0.2,0.5,0.3,0.7,0.4c0.3,0.1,0.6,0.1,0.9,0.1c0.6,0,1.1-0.1,1.7-0.3
		c0.5-0.2,1-0.4,1.5-0.8c0.4-0.3,0.8-0.7,1.1-1.1c0.3-0.4,0.4-0.9,0.4-1.3C267.9,31.2,267.9,30.9,267.7,30.7z"/>
	<path d="M263.6,28.6c-0.5,0.2-1,0.3-1.4,0.3c-0.2,0-0.4,0-0.5-0.1c-0.1-0.1-0.2-0.2-0.2-0.3c0-0.1,0.1-0.3,0.2-0.5
		c0.1-0.2,0.2-0.4,0.4-0.6c0.2-0.2,0.4-0.4,0.7-0.6c0.3-0.2,0.6-0.4,0.9-0.6c0.6-0.3,1.1-0.6,1.6-0.8c0.5-0.2,1-0.3,1.4-0.3
		c0.2,0,0.4,0,0.5,0.1c0.1,0.1,0.2,0.2,0.2,0.3c0,0.1-0.1,0.3-0.2,0.5s-0.3,0.4-0.4,0.6c-0.2,0.2-0.4,0.4-0.7,0.6
		c-0.3,0.2-0.6,0.4-0.9,0.6C264.6,28.1,264.1,28.4,263.6,28.6z M267.7,25.3c-0.1-0.2-0.3-0.4-0.5-0.6c-0.2-0.2-0.5-0.3-0.7-0.4
		c-0.3-0.1-0.6-0.1-0.9-0.1c-0.6,0-1.1,0.1-1.7,0.3c-0.6,0.2-1,0.5-1.5,0.8c-0.4,0.3-0.8,0.7-1,1.1c-0.3,0.4-0.4,0.9-0.4,1.3
		c0,0.3,0.1,0.6,0.2,0.8c0.1,0.2,0.3,0.4,0.5,0.6c0.2,0.2,0.5,0.3,0.7,0.4c0.3,0.1,0.6,0.1,0.9,0.1c0.6,0,1.1-0.1,1.7-0.3
		c0.5-0.2,1-0.4,1.5-0.8c0.4-0.3,0.8-0.7,1.1-1.1c0.3-0.4,0.4-0.9,0.4-1.3C267.9,25.8,267.9,25.6,267.7,25.3z"/>
	<polyline points="267.9,8.3 267.9,37 267.4,37 267.4,8.3 	"/>
</g>
<g id="c01">
	<path d="M47.7,39.2c-0.5,0.2-1,0.3-1.4,0.3c-0.2,0-0.4,0-0.5-0.1c-0.1-0.1-0.2-0.2-0.2-0.3c0-0.1,0.1-0.3,0.2-0.5
		c0.1-0.2,0.2-0.4,0.4-0.6c0.2-0.2,0.4-0.4,0.7-0.6c0.3-0.2,0.6-0.4,0.9-0.6c0.6-0.3,1.1-0.6,1.6-0.8c0.5-0.2,1-0.3,1.4-0.3
		c0.2,0,0.4,0,0.5,0.1c0.1,0.1,0.2,0.2,0.2,0.3c0,0.1-0.1,0.3-0.2,0.5c-0.1,0.2-0.3,0.4-0.4,0.6c-0.2,0.2-0.4,0.4-0.7,0.6
		c-0.3,0.2-0.6,0.4-0.9,0.6C48.7,38.8,48.2,39.1,47.7,39.2z M51.8,36c-0.1-0.2-0.3-0.4-0.5-0.6c-0.2-0.2-0.5-0.3-0.7-0.4
		c-0.3-0.1-0.6-0.1-0.9-0.1c-0.6,0-1.1,0.1-1.7,0.3c-0.6,0.2-1,0.5-1.5,0.8c-0.4,0.3-0.8,0.7-1,1.1c-0.3,0.4-0.4,0.9-0.4,1.3
		c0,0.3,0.1,0.6,0.2,0.8c0.1,0.2,0.3,0.4,0.5,0.6c0.2,0.2,0.5,0.3,0.7,0.4c0.3,0.1,0.6,0.1,0.9,0.1c0.6,0,1.1-0.1,1.7-0.3
		c0.5-0.2,1-0.4,1.5-0.8c0.4-0.3,0.8-0.7,1.1-1.1c0.3-0.4,0.4-0.9,0.4-1.3C52,36.5,52,36.2,51.8,36z"/>
	<path d="M47.7,33.9c-0.5,0.2-1,0.3-1.4,0.3c-0.2,0-0.4,0-0.5-0.1c-0.1-0.1-0.2-0.2-0.2-0.3c0-0.1,0.1-0.3,0.2-0.5
		c0.1-0.2,0.2-0.4,0.4-0.6c0.2-0.2,0.4-0.4,0.7-0.6c0.3-0.2,0.6-0.4,0.9-0.6c0.6-0.3,1.1-0.6,1.6-0.8c0.5-0.2,1-0.3,1.4-0.3
		c0.2,0,0.4,0,0.5,0.1c0.1,0.1,0.2,0.2,0.2,0.3c0,0.1-0.1,0.3-0.2,0.5c-0.1,0.2-0.3,0.4-0.4,0.6c-0.2,0.2-0.4,0.4-0.7,0.6
		c-0.3,0.2-0.6,0.4-0.9,0.6C48.7,33.5,48.2,33.7,47.7,33.9z M51.8,30.7c-0.1-0.2-0.3-0.4-0.5-0.6c-0.2-0.2-0.5-0.3-0.7-0.4
		c-0.3-0.1-0.6-0.1-0.9-0.1c-0.6,0-1.1,0.1-1.7,0.3c-0.6,0.2-1,0.5-1.5,0.8c-0.4,0.3-0.8,0.7-1,1.1c-0.3,0.4-0.4,0.9-0.4,1.3
		c0,0.3,0.1,0.6,0.2,0.8c0.1,0.2,0.3,0.4,0.5,0.6c0.2,0.2,0.5,0.3,0.7,0.4c0.3,0.1,0.6,0.1,0.9,0.1c0.6,0,1.1-0.1,1.7-0.3
		c0.5-0.2,1-0.4,1.5-0.8c0.4-0.3,0.8-0.7,1.1-1.1c0.3-0.4,0.4-0.9,0.4-1.3C52,31.2,52,30.9,51.8,30.7z"/>
	<path d="M47.7,28.6c-0.5,0.2-1,0.3-1.4,0.3c-0.2,0-0.4,0-0.5-0.1c-0.1-0.1-0.2-0.2-0.2-0.3c0-0.1,0.1-0.3,0.2-0.5
		c0.1-0.2,0.2-0.4,0.4-0.6c0.2-0.2,0.4-0.4,0.7-0.6c0.3-0.2,0.6-0.4,0.9-0.6c0.6-0.3,1.1-0.6,1.6-0.8c0.5-0.2,1-0.3,1.4-0.3
		c0.2,0,0.4,0,0.5,0.1c0.1,0.1,0.2,0.2,0.2,0.3c0,0.1-0.1,0.3-0.2,0.5c-0.1,0.2-0.3,0.4-0.4,0.6c-0.2,0.2-0.4,0.4-0.7,0.6
		c-0.3,0.2-0.6,0.4-0.9,0.6C48.7,28.1,48.2,28.4,47.7,28.6z M51.8,25.3c-0.1-0.2-0.3-0.4-0.5-0.6c-0.2-0.2-0.5-0.3-0.7-0.4
		c-0.3-0.1-0.6-0.1-0.9-0.1c-0.6,0-1.1,0.1-1.7,0.3c-0.6,0.2-1,0.5-1.5,0.8c-0.4,0.3-0.8,0.7-1,1.1c-0.3,0.4-0.4,0.9-0.4,1.3
		c0,0.3,0.1,0.6,0.2,0.8c0.1,0.2,0.3,0.4,0.5,0.6c0.2,0.2,0.5,0.3,0.7,0.4c0.3,0.1,0.6,0.1,0.9,0.1c0.6,0,1.1-0.1,1.7-0.3
		c0.5-0.2,1-0.4,1.5-0.8c0.4-0.3,0.8-0.7,1.1-1.1c0.3-0.4,0.4-0.9,0.4-1.3C52,25.8,52,25.6,51.8,25.3z"/>
	<polyline points="52,8.3 52,37 51.5,37 51.5,8.3 	"/>
</g>
</svg>
