<?xml version="1.0" encoding="utf-8"?>
<!-- Generator: Adobe Illustrator 26.0.0, SVG Export Plug-In . SVG Version: 6.00 Build 0)  -->
<svg version="1.1" xmlns="http://www.w3.org/2000/svg" xmlns:xlink="http://www.w3.org/1999/xlink" x="0px" y="0px"
	 viewBox="0 0 236.7 58.2" style="enable-background:new 0 0 236.7 58.2;" xml:space="preserve">
<style type="text/css">
	.st0{fill:none;stroke:#000000;stroke-width:0.5073;}
	.st1{fill:none;stroke:#00A3E8;stroke-width:0.5073;}
	.st2{fill:none;stroke:#000000;stroke-width:0.7609;}
	.st3{fill:#FFFFFF;stroke:#000000;stroke-width:0.5073;stroke-miterlimit:10;}
	.st4{fill:#040000;}
	.st5{fill:#EF7D1B;}
</style>
<g id="layer_x5F_1">
	<g>
		<path class="st0" d="M235,30"/>
		<path class="st0" d="M1.3,30"/>
		<path class="st0" d="M235,14.7"/>
		<path class="st0" d="M1.3,14.7"/>
		<path class="st0" d="M235,19.8"/>
		<path class="st0" d="M1.3,19.8"/>
		<path class="st0" d="M235,24.9"/>
		<path class="st0" d="M1.3,24.9"/>
		<line class="st0" x1="1.3" y1="30" x2="235" y2="30"/>
		<line class="st0" x1="1.3" y1="9.6" x2="235" y2="9.6"/>
		<line class="st0" x1="1.3" y1="14.7" x2="235" y2="14.7"/>
		<line class="st0" x1="1.3" y1="19.8" x2="235" y2="19.8"/>
		<line class="st1" x1="1.3" y1="24.9" x2="235" y2="24.9"/>
		<path class="st2" d="M1.3,30"/>
		<path class="st2" d="M1.3,9.6"/>
		<line class="st3" x1="235" y1="9.6" x2="235" y2="30.1"/>
		<path class="st4" d="M19,21.3c0.5,0,0.9,0.1,1.3,0.3c0.4,0.2,0.8,0.4,1.1,0.7c0.3,0.3,0.5,0.7,0.7,1.1c0.2,0.4,0.3,0.8,0.3,1.3
			c0,0.4-0.1,0.8-0.2,1.2c-0.1,0.4-0.3,0.8-0.5,1.1c-0.2,0.3-0.4,0.7-0.7,0.9c-0.3,0.3-0.6,0.5-0.9,0.7l-1.3-7.3H19z M19.4,29
			c-0.6,0.2-1.2,0.3-1.7,0.3c-0.8,0-1.5-0.1-2.1-0.4c-0.7-0.3-1.2-0.7-1.7-1.2c-0.5-0.5-0.9-1.1-1.2-1.7c-0.3-0.7-0.4-1.4-0.4-2.1
			c0-0.7,0.1-1.3,0.2-1.8c0.1-0.5,0.3-1,0.5-1.5c0.2-0.5,0.5-0.9,0.8-1.3c0.3-0.4,0.7-0.8,1-1.1c0.4-0.4,0.7-0.7,1.1-1.1
			c0.4-0.4,0.8-0.7,1.2-1.1l0.6,3.3c-0.5,0.1-0.9,0.4-1.3,0.6c-0.4,0.3-0.8,0.6-1.1,1c-0.3,0.4-0.5,0.8-0.7,1.3
			c-0.2,0.5-0.3,1-0.3,1.5c0,0.5,0.1,1,0.3,1.5c0.2,0.5,0.5,0.9,0.8,1.2s0.7,0.6,1.2,0.8c0.5,0.2,0.9,0.3,1.5,0.3v-0.4
			c-0.3,0-0.7-0.1-1-0.2c-0.3-0.1-0.6-0.3-0.8-0.5c-0.2-0.2-0.4-0.5-0.5-0.8c-0.1-0.3-0.2-0.6-0.2-1c0-0.4,0.1-0.7,0.2-1.1
			c0.1-0.3,0.3-0.7,0.5-0.9c0.2-0.3,0.5-0.5,0.8-0.7c0.3-0.2,0.6-0.4,1-0.4L19.4,29z M17,10.2c0-0.5-0.1-1-0.1-1.4
			c0-0.6,0-1.2,0.1-1.6c0.1-0.5,0.2-0.8,0.3-1.2c0.1-0.3,0.3-0.6,0.4-0.8C17.9,5,18,4.8,18.2,4.7c0.2-0.1,0.3-0.2,0.5-0.2
			c0.2,0,0.3-0.1,0.4-0.1c0.2,0,0.4,0,0.5,0.1c0.2,0.1,0.3,0.2,0.4,0.4c0.1,0.2,0.2,0.3,0.3,0.6c0.1,0.2,0.1,0.5,0.1,0.7
			c0,0.6-0.1,1.1-0.3,1.6c-0.2,0.5-0.4,1-0.7,1.5c-0.3,0.5-0.6,0.9-1,1.3c-0.4,0.4-0.8,0.9-1.3,1.3C17.1,11.3,17,10.7,17,10.2z
			 M20.3,33.7c0,0.1,0,0.1,0,0.2s0,0.2,0,0.3c0,0.1,0,0.2,0,0.3c0,0.1,0,0.2,0,0.2c0,0.4-0.1,0.8-0.2,1.1c-0.2,0.4-0.4,0.7-0.6,0.9
			c-0.3,0.3-0.6,0.5-0.9,0.6c-0.4,0.2-0.7,0.2-1.1,0.2c-0.3,0-0.5,0-0.6-0.1c-0.1-0.1-0.1-0.2-0.1-0.3c0-0.1,0-0.2,0.1-0.2
			c0,0,0.1-0.1,0.2-0.2l0.2-0.2c0.1-0.1,0.1-0.2,0.2-0.3c0-0.1,0.1-0.2,0.1-0.4c0-0.2,0-0.3,0-0.6c0-0.3-0.1-0.5-0.2-0.8
			c-0.1-0.2-0.2-0.5-0.4-0.6c-0.2-0.2-0.4-0.3-0.6-0.4c-0.2-0.1-0.5-0.2-0.8-0.2c-0.3,0-0.5,0.1-0.8,0.2c-0.2,0.1-0.5,0.2-0.6,0.4
			c-0.2,0.2-0.3,0.4-0.4,0.6c-0.1,0.2-0.2,0.5-0.2,0.8c0,0.5,0.1,0.9,0.3,1.3c0.2,0.4,0.5,0.7,0.9,0.9c0.4,0.3,0.8,0.4,1.2,0.6
			c0.5,0.1,1,0.2,1.5,0.2c0.5,0,1-0.1,1.4-0.3c0.4-0.2,0.8-0.5,1.2-0.8c0.3-0.3,0.6-0.7,0.8-1.2c0.2-0.4,0.3-0.9,0.3-1.4
			c0-0.1,0-0.1,0-0.2c0-0.1,0-0.2,0-0.3c0-0.1,0-0.2,0-0.3c0-0.1,0-0.2,0-0.3l-0.7-4.1c0.5-0.3,1-0.6,1.4-1c0.4-0.4,0.8-0.8,1.1-1.3
			c0.3-0.5,0.5-1,0.7-1.6c0.2-0.6,0.3-1.2,0.3-1.8c0-0.6-0.1-1.3-0.4-1.8c-0.2-0.6-0.6-1.1-1-1.5c-0.4-0.4-0.9-0.8-1.5-1
			c-0.6-0.2-1.2-0.4-1.8-0.4c-0.1,0-0.2,0-0.3,0c-0.1,0-0.2,0-0.3,0l-0.7-3.8c0.5-0.5,0.9-1,1.3-1.6c0.4-0.6,0.8-1.3,1.1-2
			c0.3-0.8,0.6-1.6,0.7-2.5c0.2-0.9,0.3-2,0.3-3.2c0-0.3,0-0.6-0.1-1s-0.2-0.7-0.3-1.1c-0.1-0.4-0.3-0.7-0.4-1
			c-0.2-0.3-0.3-0.6-0.5-0.9c-0.2-0.3-0.4-0.5-0.6-0.6c-0.2-0.2-0.4-0.2-0.7-0.2c-0.2,0-0.5,0.1-0.8,0.4c-0.3,0.3-0.6,0.7-0.8,1.2
			c-0.3,0.5-0.5,1.2-0.7,2.1c-0.2,0.8-0.3,1.8-0.3,3c0,0.5,0,1.2,0.1,2c0.1,0.8,0.2,1.7,0.4,2.8c-0.8,0.7-1.5,1.4-2.2,2.1
			c-0.7,0.7-1.3,1.3-1.8,2c-0.5,0.7-0.9,1.5-1.2,2.3c-0.3,0.8-0.4,1.7-0.4,2.7c0,0.8,0.1,1.5,0.2,2.2c0.2,0.7,0.4,1.4,0.7,2
			c0.3,0.6,0.7,1.2,1.1,1.7c0.4,0.5,0.9,1,1.4,1.3c0.5,0.4,1.1,0.6,1.6,0.9c0.6,0.2,1.2,0.3,1.8,0.3c0.6,0,1.2-0.1,1.9-0.3
			L20.3,33.7z"/>
		<path class="st4" d="M33.5,16.3h-3l3-4.7V16.3z M36.4,19.2v-0.4h-0.3c-0.2,0-0.4,0-0.5-0.1c-0.1-0.1-0.2-0.3-0.2-0.5V17h0.6
			c0.1,0,0.2,0,0.3,0l0.2,0.2c0,0.1,0.1,0.2,0.1,0.3c0,0.1,0,0.3,0,0.5h0.4v-2.6h-0.4c0,0.4,0,0.6-0.1,0.8c-0.1,0.1-0.2,0.2-0.4,0.2
			h-0.6V9.6h-1.2l-4.3,6.8L30,17h3.5v1.2c0,0.2-0.1,0.4-0.2,0.5c-0.1,0.1-0.3,0.1-0.5,0.1h-0.3v0.4H36.4z"/>
		<path class="st4" d="M33.5,27h-3l3-4.7V27z M36.4,29.9v-0.4h-0.3c-0.2,0-0.4,0-0.5-0.1c-0.1-0.1-0.2-0.3-0.2-0.5v-1.2h0.6
			c0.1,0,0.2,0,0.3,0l0.2,0.2c0,0.1,0.1,0.2,0.1,0.3c0,0.1,0,0.3,0,0.5h0.4V26h-0.4c0,0.4,0,0.6-0.1,0.8c-0.1,0.1-0.2,0.2-0.4,0.2
			h-0.6v-6.8h-1.2L29.9,27l0.1,0.6h3.5v1.2c0,0.2-0.1,0.4-0.2,0.5c-0.1,0.1-0.3,0.1-0.5,0.1h-0.3v0.4H36.4z"/>
		<polyline class="st4" points="1.7,9.3 1.7,30.1 1.3,30.1 1.3,9.3 		"/>
	</g>
</g>
<g id="layer_x5F_2">
	<polyline class="st4" points="55.8,16.7 55.8,53.4 55.3,53.4 55.3,16.7 	"/>
	<polyline class="st5" points="47.1,35.1 57.5,35.1 57.5,35.6 47.1,35.6 	"/>
	<polyline class="st4" points="47.1,40.5 57.5,40.5 57.5,41 47.1,41 	"/>
	<polyline class="st4" points="47.1,45.8 57.5,45.8 57.5,46.3 47.1,46.3 	"/>
	<polyline class="st4" points="47.1,51.2 57.5,51.2 57.5,51.6 47.1,51.6 	"/>
	<g id="sus4c">
		<path class="st4" d="M55.6,52.4c-0.1-0.2-0.3-0.4-0.5-0.6c-0.2-0.2-0.5-0.3-0.7-0.4c-0.3-0.1-0.6-0.1-0.9-0.1
			c-0.6,0-1.1,0.1-1.7,0.3c-0.6,0.2-1,0.5-1.5,0.8c-0.4,0.3-0.8,0.7-1,1.1c-0.3,0.4-0.4,0.9-0.4,1.3c0,0.3,0.1,0.6,0.2,0.8
			c0.1,0.2,0.3,0.4,0.5,0.6c0.2,0.2,0.5,0.3,0.7,0.4c0.3,0.1,0.6,0.1,0.9,0.1c0.6,0,1.1-0.1,1.7-0.3c0.5-0.2,1-0.4,1.5-0.8
			c0.4-0.3,0.8-0.7,1.1-1.1c0.3-0.4,0.4-0.9,0.4-1.3C55.8,52.9,55.8,52.6,55.6,52.4z"/>
		<path class="st4" d="M55.6,33.7c-0.1-0.2-0.3-0.4-0.5-0.6c-0.2-0.2-0.5-0.3-0.7-0.4c-0.3-0.1-0.6-0.1-0.9-0.1
			c-0.6,0-1.1,0.1-1.7,0.3c-0.6,0.2-1,0.5-1.5,0.8c-0.4,0.3-0.8,0.7-1,1.1c-0.3,0.4-0.4,0.9-0.4,1.3c0,0.3,0.1,0.6,0.2,0.8
			c0.1,0.2,0.3,0.4,0.5,0.6c0.2,0.2,0.5,0.3,0.7,0.4c0.3,0.1,0.6,0.1,0.9,0.1c0.6,0,1.1-0.1,1.7-0.3c0.5-0.2,1-0.4,1.5-0.8
			c0.4-0.3,0.8-0.7,1.1-1.1c0.3-0.4,0.4-0.9,0.4-1.3C55.8,34.2,55.8,33.9,55.6,33.7z"/>
	</g>
	<polyline class="st4" points="90.7,8.6 90.7,26.7 90.2,26.7 90.2,8.6 	"/>
	<path id="sus4f" class="st4" d="M90.5,25.7c-0.1-0.2-0.3-0.4-0.5-0.6c-0.2-0.2-0.5-0.3-0.7-0.4c-0.3-0.1-0.6-0.1-0.9-0.1
		c-0.6,0-1.1,0.1-1.7,0.3c-0.6,0.2-1,0.5-1.5,0.8c-0.4,0.3-0.8,0.7-1,1.1c-0.3,0.4-0.4,0.9-0.4,1.3c0,0.3,0.1,0.6,0.2,0.8
		c0.1,0.2,0.3,0.4,0.5,0.6c0.2,0.2,0.5,0.3,0.7,0.4c0.3,0.1,0.6,0.1,0.9,0.1c0.6,0,1.1-0.1,1.7-0.3c0.5-0.2,1-0.4,1.5-0.8
		c0.4-0.3,0.8-0.7,1.1-1.1c0.3-0.4,0.4-0.9,0.4-1.3C90.7,26.2,90.6,25.9,90.5,25.7z"/>
	<polyline class="st4" points="122,6 122,24 121.5,24 121.5,6 	"/>
	<path id="sus4g" class="st4" d="M117.7,26.3c-0.5,0.2-1,0.3-1.4,0.3c-0.2,0-0.4,0-0.5-0.1c-0.1-0.1-0.2-0.2-0.2-0.3
		c0-0.1,0.1-0.3,0.2-0.5c0.1-0.2,0.2-0.4,0.4-0.6c0.2-0.2,0.4-0.4,0.7-0.6c0.3-0.2,0.6-0.4,0.9-0.6c0.6-0.3,1.1-0.6,1.6-0.8
		c0.5-0.2,1-0.3,1.4-0.3c0.2,0,0.4,0,0.5,0.1c0.1,0.1,0.2,0.2,0.2,0.3c0,0.1-0.1,0.3-0.2,0.5c-0.1,0.2-0.3,0.4-0.4,0.6
		c-0.2,0.2-0.4,0.4-0.7,0.6c-0.3,0.2-0.6,0.4-0.9,0.6C118.7,25.8,118.2,26.1,117.7,26.3z M121.8,23c-0.1-0.2-0.3-0.4-0.5-0.6
		c-0.2-0.2-0.5-0.3-0.7-0.4c-0.3-0.1-0.6-0.1-0.9-0.1c-0.6,0-1.1,0.1-1.7,0.3c-0.6,0.2-1,0.5-1.5,0.8c-0.4,0.3-0.8,0.7-1,1.1
		c-0.3,0.4-0.4,0.9-0.4,1.3c0,0.3,0.1,0.6,0.2,0.8c0.1,0.2,0.3,0.4,0.5,0.6c0.2,0.2,0.5,0.3,0.7,0.4c0.3,0.1,0.6,0.1,0.9,0.1
		c0.6,0,1.1-0.1,1.7-0.3c0.5-0.2,1-0.4,1.5-0.8c0.4-0.3,0.8-0.7,1.1-1.1c0.3-0.4,0.4-0.9,0.4-1.3C122,23.5,122,23.3,121.8,23z"/>
	<polyline class="st4" points="167.9,9.6 167.9,30 167.4,30 167.4,9.6 	"/>
	<path class="st4" d="M176.2,27.8l0.2-0.3l-1.3-0.9c-0.4-0.3-0.6-0.6-0.9-0.9c-0.2-0.3-0.3-0.7-0.3-1.1c0-0.2,0-0.4,0.1-0.5
		c0.1-0.2,0.2-0.3,0.3-0.4c0.1-0.1,0.3-0.2,0.4-0.3c0.2-0.1,0.3-0.1,0.5-0.1c0.2,0,0.5,0,0.7,0.1c0.2,0.1,0.5,0.2,0.8,0.3l0.3-0.4
		c-0.2-0.2-0.5-0.5-0.7-0.7c-0.2-0.3-0.4-0.5-0.6-0.8c-0.2-0.3-0.3-0.6-0.5-0.9c-0.1-0.3-0.2-0.6-0.2-0.9c0-0.3,0.1-0.6,0.2-0.8
		c0.1-0.3,0.3-0.6,0.4-0.9c0.2-0.3,0.4-0.6,0.7-0.9c0.3-0.3,0.5-0.5,0.8-0.8l-4.5-4.9l-0.3,0.3l0.3,0.3c0.3,0.3,0.5,0.6,0.7,0.8
		c0.2,0.2,0.4,0.4,0.5,0.7c0.1,0.2,0.2,0.4,0.3,0.6c0.1,0.2,0.1,0.4,0.1,0.6c0,0.3-0.1,0.6-0.2,0.9c-0.1,0.3-0.3,0.6-0.4,0.9
		c-0.2,0.3-0.4,0.5-0.6,0.8c-0.2,0.3-0.5,0.5-0.7,0.7l4,4.8c-0.2-0.2-0.3-0.3-0.5-0.4c-0.2-0.1-0.4-0.2-0.5-0.3
		c-0.2-0.1-0.3-0.1-0.5-0.2c-0.2,0-0.3,0-0.4,0c-0.3,0-0.5,0-0.7,0.1c-0.2,0.1-0.4,0.2-0.6,0.3c-0.2,0.1-0.3,0.3-0.4,0.5
		c-0.1,0.2-0.1,0.4-0.1,0.7c0,0.3,0.1,0.7,0.2,1c0.1,0.3,0.3,0.6,0.6,0.9c0.2,0.3,0.5,0.6,0.8,0.8c0.3,0.3,0.7,0.5,1,0.8L176.2,27.8
		z"/>
	<polyline class="st4" points="208.4,6 208.4,53.4 207.9,53.4 207.9,6 	"/>
	<polyline class="st5" points="199.7,35.1 210.1,35.1 210.1,35.6 199.7,35.6 	"/>
	<polyline class="st4" points="199.7,40.5 210.1,40.5 210.1,41 199.7,41 	"/>
	<polyline class="st4" points="199.7,45.8 210.1,45.8 210.1,46.3 199.7,46.3 	"/>
	<polyline class="st4" points="199.7,51.2 210.1,51.2 210.1,51.6 199.7,51.6 	"/>
	<g id="sus4">
		<path class="st4" d="M204.1,55.6c-0.5,0.2-1,0.3-1.4,0.3c-0.2,0-0.4,0-0.5-0.1c-0.1-0.1-0.2-0.2-0.2-0.3c0-0.1,0.1-0.3,0.2-0.5
			c0.1-0.2,0.2-0.4,0.4-0.6c0.2-0.2,0.4-0.4,0.7-0.6c0.3-0.2,0.6-0.4,0.9-0.6c0.6-0.3,1.1-0.6,1.6-0.8c0.5-0.2,1-0.3,1.4-0.3
			c0.2,0,0.4,0,0.5,0.1c0.1,0.1,0.2,0.2,0.2,0.3c0,0.1-0.1,0.3-0.2,0.5c-0.1,0.2-0.3,0.4-0.4,0.6c-0.2,0.2-0.4,0.4-0.7,0.6
			c-0.3,0.2-0.6,0.4-0.9,0.6C205.1,55.2,204.6,55.5,204.1,55.6z M208.2,52.4c-0.1-0.2-0.3-0.4-0.5-0.6c-0.2-0.2-0.5-0.3-0.7-0.4
			c-0.3-0.1-0.6-0.1-0.9-0.1c-0.6,0-1.1,0.1-1.7,0.3c-0.6,0.2-1,0.5-1.5,0.8c-0.4,0.3-0.8,0.7-1,1.1c-0.3,0.4-0.4,0.9-0.4,1.3
			c0,0.3,0.1,0.6,0.2,0.8c0.1,0.2,0.3,0.4,0.5,0.6c0.2,0.2,0.5,0.3,0.7,0.4c0.3,0.1,0.6,0.1,0.9,0.1c0.6,0,1.1-0.1,1.7-0.3
			c0.5-0.2,1-0.4,1.5-0.8c0.4-0.3,0.8-0.7,1.1-1.1c0.3-0.4,0.4-0.9,0.4-1.3C208.4,52.9,208.4,52.6,208.2,52.4z"/>
		<path class="st4" d="M204.1,37c-0.5,0.2-1,0.3-1.4,0.3c-0.2,0-0.4,0-0.5-0.1c-0.1-0.1-0.2-0.2-0.2-0.3c0-0.1,0.1-0.3,0.2-0.5
			c0.1-0.2,0.2-0.4,0.4-0.6c0.2-0.2,0.4-0.4,0.7-0.6c0.3-0.2,0.6-0.4,0.9-0.6c0.6-0.3,1.1-0.6,1.6-0.8c0.5-0.2,1-0.3,1.4-0.3
			c0.2,0,0.4,0,0.5,0.1c0.1,0.1,0.2,0.2,0.2,0.3c0,0.1-0.1,0.3-0.2,0.5c-0.1,0.2-0.3,0.4-0.4,0.6c-0.2,0.2-0.4,0.4-0.7,0.6
			c-0.3,0.2-0.6,0.4-0.9,0.6C205.1,36.5,204.6,36.8,204.1,37z M208.2,33.7c-0.1-0.2-0.3-0.4-0.5-0.6c-0.2-0.2-0.5-0.3-0.7-0.4
			c-0.3-0.1-0.6-0.1-0.9-0.1c-0.6,0-1.1,0.1-1.7,0.3c-0.6,0.2-1,0.5-1.5,0.8c-0.4,0.3-0.8,0.7-1,1.1c-0.3,0.4-0.4,0.9-0.4,1.3
			c0,0.3,0.1,0.6,0.2,0.8c0.1,0.2,0.3,0.4,0.5,0.6c0.2,0.2,0.5,0.3,0.7,0.4c0.3,0.1,0.6,0.1,0.9,0.1c0.6,0,1.1-0.1,1.7-0.3
			c0.5-0.2,1-0.4,1.5-0.8c0.4-0.3,0.8-0.7,1.1-1.1c0.3-0.4,0.4-0.9,0.4-1.3C208.4,34.2,208.4,33.9,208.2,33.7z"/>
		<path class="st4" d="M204.1,28.9c-0.5,0.2-1,0.3-1.4,0.3c-0.2,0-0.4,0-0.5-0.1c-0.1-0.1-0.2-0.2-0.2-0.3c0-0.1,0.1-0.3,0.2-0.5
			c0.1-0.2,0.2-0.4,0.4-0.6c0.2-0.2,0.4-0.4,0.7-0.6c0.3-0.2,0.6-0.4,0.9-0.6c0.6-0.3,1.1-0.6,1.6-0.8c0.5-0.2,1-0.3,1.4-0.3
			c0.2,0,0.4,0,0.5,0.1c0.1,0.1,0.2,0.2,0.2,0.3c0,0.1-0.1,0.3-0.2,0.5c-0.1,0.2-0.3,0.4-0.4,0.6c-0.2,0.2-0.4,0.4-0.7,0.6
			c-0.3,0.2-0.6,0.4-0.9,0.6C205.1,28.5,204.6,28.8,204.1,28.9z M208.2,25.7c-0.1-0.2-0.3-0.4-0.5-0.6c-0.2-0.2-0.5-0.3-0.7-0.4
			c-0.3-0.1-0.6-0.1-0.9-0.1c-0.6,0-1.1,0.1-1.7,0.3c-0.6,0.2-1,0.5-1.5,0.8c-0.4,0.3-0.8,0.7-1,1.1c-0.3,0.4-0.4,0.9-0.4,1.3
			c0,0.3,0.1,0.6,0.2,0.8c0.1,0.2,0.3,0.4,0.5,0.6c0.2,0.2,0.5,0.3,0.7,0.4c0.3,0.1,0.6,0.1,0.9,0.1c0.6,0,1.1-0.1,1.7-0.3
			c0.5-0.2,1-0.4,1.5-0.8c0.4-0.3,0.8-0.7,1.1-1.1c0.3-0.4,0.4-0.9,0.4-1.3C208.4,26.2,208.4,25.9,208.2,25.7z"/>
		<path class="st4" d="M211,26.3c-0.5,0.2-1,0.3-1.4,0.3c-0.2,0-0.4,0-0.5-0.1c-0.1-0.1-0.2-0.2-0.2-0.3c0-0.1,0.1-0.3,0.2-0.5
			c0.1-0.2,0.2-0.4,0.4-0.6c0.2-0.2,0.4-0.4,0.7-0.6c0.3-0.2,0.6-0.4,0.9-0.6c0.6-0.3,1.1-0.6,1.6-0.8c0.5-0.2,1-0.3,1.4-0.3
			c0.2,0,0.4,0,0.5,0.1c0.1,0.1,0.2,0.2,0.2,0.3c0,0.1-0.1,0.3-0.2,0.5c-0.1,0.2-0.3,0.4-0.4,0.6c-0.2,0.2-0.4,0.4-0.7,0.6
			c-0.3,0.2-0.6,0.4-0.9,0.6C212,25.8,211.5,26.1,211,26.3z M215.1,23c-0.1-0.2-0.3-0.4-0.5-0.6c-0.2-0.2-0.5-0.3-0.7-0.4
			c-0.3-0.1-0.6-0.1-0.9-0.1c-0.6,0-1.1,0.1-1.7,0.3c-0.6,0.2-1,0.5-1.5,0.8c-0.4,0.3-0.8,0.7-1,1.1c-0.3,0.4-0.4,0.9-0.4,1.3
			c0,0.3,0.1,0.6,0.2,0.8c0.1,0.2,0.3,0.4,0.5,0.6c0.2,0.2,0.5,0.3,0.7,0.4c0.3,0.1,0.6,0.1,0.9,0.1c0.6,0,1.1-0.1,1.7-0.3
			c0.5-0.2,1-0.4,1.5-0.8c0.4-0.3,0.8-0.7,1.1-1.1c0.3-0.4,0.4-0.9,0.4-1.3C215.3,23.5,215.2,23.3,215.1,23z"/>
	</g>
</g>
</svg>
