<svg version="1.1" xmlns="http://www.w3.org/2000/svg" xmlns:xlink="http://www.w3.org/1999/xlink" x="0px" y="0px"
   viewBox="0 0 236.7 58.2" style="enable-background:new 0 0 236.7 58.2;" xml:space="preserve">
<style type="text/css">
  .st0{fill:none;stroke:#000000;}
  .st1{fill:none;stroke:#00A3E8;}
  .st2{fill:none;stroke:#000000;}
  .st3{fill:none;stroke:#000000;}
  .st4{fill:#000000;}
  .st5{fill:#EF7D1B;}
</style>
<g id="layer1">
  <g>
    <path class="st0" d="M235,30"/>
    <path class="st0" d="M1.3,30"/>
    <path class="st0" d="M235,14.7"/>
    <path class="st0" d="M1.3,14.7"/>
    <path class="st0" d="M235,19.8"/>
    <path class="st0" d="M1.3,19.8"/>
    <path class="st0" d="M235,24.9"/>
    <path class="st0" d="M1.3,24.9"/>
    <line class="st0" x1="1.3" y1="30" x2="235" y2="30"/>
    <line class="st0" x1="1.3" y1="9.6" x2="235" y2="9.6"/>
    <line class="st0" x1="1.3" y1="14.7" x2="235" y2="14.7"/>
    <line class="st0" x1="1.3" y1="19.8" x2="235" y2="19.8"/>
    <line class="st1" x1="1.3" y1="24.9" x2="235" y2="24.9"/>
    <path class="st2" d="M1.3,30"/>
    <path class="st2" d="M1.3,9.6"/>
    <line class="st3" x1="235" y1="9.6" x2="235" y2="30.1"/>
    <path class="st4" d="M19,21.3c0.5,0,0.9,0.1,1.3,0.3c0.4,0.2,0.8,0.4,1.1,0.7c0.3,0.3,0.5,0.7,0.7,1.1c0.2,0.4,0.3,0.8,0.3,1.3
      c0,0.4-0.1,0.8-0.2,1.2c-0.1,0.4-0.3,0.8-0.5,1.1c-0.2,0.3-0.4,0.7-0.7,0.9c-0.3,0.3-0.6,0.5-0.9,0.7l-1.3-7.3H19z M19.4,29
      c-0.6,0.2-1.2,0.3-1.7,0.3c-0.8,0-1.5-0.1-2.1-0.4c-0.7-0.3-1.2-0.7-1.7-1.2c-0.5-0.5-0.9-1.1-1.2-1.7c-0.3-0.7-0.4-1.4-0.4-2.1
      c0-0.7,0.1-1.3,0.2-1.8c0.1-0.5,0.3-1,0.5-1.5c0.2-0.5,0.5-0.9,0.8-1.3c0.3-0.4,0.7-0.8,1-1.1c0.4-0.4,0.7-0.7,1.1-1.1
      c0.4-0.4,0.8-0.7,1.2-1.1l0.6,3.3c-0.5,0.1-0.9,0.4-1.3,0.6c-0.4,0.3-0.8,0.6-1.1,1c-0.3,0.4-0.5,0.8-0.7,1.3
      c-0.2,0.5-0.3,1-0.3,1.5c0,0.5,0.1,1,0.3,1.5c0.2,0.5,0.5,0.9,0.8,1.2s0.7,0.6,1.2,0.8c0.5,0.2,0.9,0.3,1.5,0.3v-0.4
      c-0.3,0-0.7-0.1-1-0.2c-0.3-0.1-0.6-0.3-0.8-0.5c-0.2-0.2-0.4-0.5-0.5-0.8c-0.1-0.3-0.2-0.6-0.2-1c0-0.4,0.1-0.7,0.2-1.1
      c0.1-0.3,0.3-0.7,0.5-0.9c0.2-0.3,0.5-0.5,0.8-0.7c0.3-0.2,0.6-0.4,1-0.4L19.4,29z M17,10.2c0-0.5-0.1-1-0.1-1.4
      c0-0.6,0-1.2,0.1-1.6c0.1-0.5,0.2-0.8,0.3-1.2c0.1-0.3,0.3-0.6,0.4-0.8C17.9,5,18,4.8,18.2,4.7c0.2-0.1,0.3-0.2,0.5-0.2
      c0.2,0,0.3-0.1,0.4-0.1c0.2,0,0.4,0,0.5,0.1c0.2,0.1,0.3,0.2,0.4,0.4c0.1,0.2,0.2,0.3,0.3,0.6c0.1,0.2,0.1,0.5,0.1,0.7
      c0,0.6-0.1,1.1-0.3,1.6c-0.2,0.5-0.4,1-0.7,1.5c-0.3,0.5-0.6,0.9-1,1.3c-0.4,0.4-0.8,0.9-1.3,1.3C17.1,11.3,17,10.7,17,10.2z
       M20.3,33.7c0,0.1,0,0.1,0,0.2s0,0.2,0,0.3c0,0.1,0,0.2,0,0.3c0,0.1,0,0.2,0,0.2c0,0.4-0.1,0.8-0.2,1.1c-0.2,0.4-0.4,0.7-0.6,0.9
      c-0.3,0.3-0.6,0.5-0.9,0.6c-0.4,0.2-0.7,0.2-1.1,0.2c-0.3,0-0.5,0-0.6-0.1c-0.1-0.1-0.1-0.2-0.1-0.3c0-0.1,0-0.2,0.1-0.2
      c0,0,0.1-0.1,0.2-0.2l0.2-0.2c0.1-0.1,0.1-0.2,0.2-0.3c0-0.1,0.1-0.2,0.1-0.4c0-0.2,0-0.3,0-0.6c0-0.3-0.1-0.5-0.2-0.8
      c-0.1-0.2-0.2-0.5-0.4-0.6c-0.2-0.2-0.4-0.3-0.6-0.4c-0.2-0.1-0.5-0.2-0.8-0.2c-0.3,0-0.5,0.1-0.8,0.2c-0.2,0.1-0.5,0.2-0.6,0.4
      c-0.2,0.2-0.3,0.4-0.4,0.6c-0.1,0.2-0.2,0.5-0.2,0.8c0,0.5,0.1,0.9,0.3,1.3c0.2,0.4,0.5,0.7,0.9,0.9c0.4,0.3,0.8,0.4,1.2,0.6
      c0.5,0.1,1,0.2,1.5,0.2c0.5,0,1-0.1,1.4-0.3c0.4-0.2,0.8-0.5,1.2-0.8c0.3-0.3,0.6-0.7,0.8-1.2c0.2-0.4,0.3-0.9,0.3-1.4
      c0-0.1,0-0.1,0-0.2c0-0.1,0-0.2,0-0.3c0-0.1,0-0.2,0-0.3c0-0.1,0-0.2,0-0.3l-0.7-4.1c0.5-0.3,1-0.6,1.4-1c0.4-0.4,0.8-0.8,1.1-1.3
      c0.3-0.5,0.5-1,0.7-1.6c0.2-0.6,0.3-1.2,0.3-1.8c0-0.6-0.1-1.3-0.4-1.8c-0.2-0.6-0.6-1.1-1-1.5c-0.4-0.4-0.9-0.8-1.5-1
      c-0.6-0.2-1.2-0.4-1.8-0.4c-0.1,0-0.2,0-0.3,0c-0.1,0-0.2,0-0.3,0l-0.7-3.8c0.5-0.5,0.9-1,1.3-1.6c0.4-0.6,0.8-1.3,1.1-2
      c0.3-0.8,0.6-1.6,0.7-2.5c0.2-0.9,0.3-2,0.3-3.2c0-0.3,0-0.6-0.1-1s-0.2-0.7-0.3-1.1c-0.1-0.4-0.3-0.7-0.4-1
      c-0.2-0.3-0.3-0.6-0.5-0.9c-0.2-0.3-0.4-0.5-0.6-0.6c-0.2-0.2-0.4-0.2-0.7-0.2c-0.2,0-0.5,0.1-0.8,0.4c-0.3,0.3-0.6,0.7-0.8,1.2
      c-0.3,0.5-0.5,1.2-0.7,2.1c-0.2,0.8-0.3,1.8-0.3,3c0,0.5,0,1.2,0.1,2c0.1,0.8,0.2,1.7,0.4,2.8c-0.8,0.7-1.5,1.4-2.2,2.1
      c-0.7,0.7-1.3,1.3-1.8,2c-0.5,0.7-0.9,1.5-1.2,2.3c-0.3,0.8-0.4,1.7-0.4,2.7c0,0.8,0.1,1.5,0.2,2.2c0.2,0.7,0.4,1.4,0.7,2
      c0.3,0.6,0.7,1.2,1.1,1.7c0.4,0.5,0.9,1,1.4,1.3c0.5,0.4,1.1,0.6,1.6,0.9c0.6,0.2,1.2,0.3,1.8,0.3c0.6,0,1.2-0.1,1.9-0.3
      L20.3,33.7z"/>
    <path class="st4" d="M33.5,16.3h-3l3-4.7V16.3z M36.4,19.2v-0.4h-0.3c-0.2,0-0.4,0-0.5-0.1c-0.1-0.1-0.2-0.3-0.2-0.5V17h0.6
      c0.1,0,0.2,0,0.3,0l0.2,0.2c0,0.1,0.1,0.2,0.1,0.3c0,0.1,0,0.3,0,0.5h0.4v-2.6h-0.4c0,0.4,0,0.6-0.1,0.8c-0.1,0.1-0.2,0.2-0.4,0.2
      h-0.6V9.6h-1.2l-4.3,6.8L30,17h3.5v1.2c0,0.2-0.1,0.4-0.2,0.5c-0.1,0.1-0.3,0.1-0.5,0.1h-0.3v0.4H36.4z"/>
    <path class="st4" d="M33.5,27h-3l3-4.7V27z M36.4,29.9v-0.4h-0.3c-0.2,0-0.4,0-0.5-0.1c-0.1-0.1-0.2-0.3-0.2-0.5v-1.2h0.6
      c0.1,0,0.2,0,0.3,0l0.2,0.2c0,0.1,0.1,0.2,0.1,0.3c0,0.1,0,0.3,0,0.5h0.4V26h-0.4c0,0.4,0,0.6-0.1,0.8c-0.1,0.1-0.2,0.2-0.4,0.2
      h-0.6v-6.8h-1.2L29.9,27l0.1,0.6h3.5v1.2c0,0.2-0.1,0.4-0.2,0.5c-0.1,0.1-0.3,0.1-0.5,0.1h-0.3v0.4H36.4z"/>
    <polyline class="st4" points="1.7,9.3 1.7,30.1 1.3,30.1 1.3,9.3 		"/>
  </g>
</g>
<g id="layer2_00000159458179188243210330000012595205505371248821_">
  <polyline class="st4" points="64.2,16.3 64.2,53 63.7,53 63.7,16.3 	"/>
  <polyline class="st5" points="55.4,34.7 65.9,34.7 65.9,35.2 55.4,35.2 	"/>
  <polyline class="st4" points="55.4,40.1 65.9,40.1 65.9,40.6 55.4,40.6 	"/>
  <polyline class="st4" points="55.4,45.4 65.9,45.4 65.9,45.9 55.4,45.9 	"/>
  <polyline class="st4" points="55.4,50.8 65.9,50.8 65.9,51.2 55.4,51.2 	"/>
  <g id="sus2c">
    <path class="st4" d="M64,52c-0.1-0.2-0.3-0.4-0.5-0.6c-0.2-0.2-0.5-0.3-0.7-0.4c-0.3-0.1-0.6-0.1-0.9-0.1c-0.6,0-1.1,0.1-1.7,0.3
      c-0.6,0.2-1,0.5-1.5,0.8c-0.4,0.3-0.8,0.7-1,1.1c-0.3,0.4-0.4,0.9-0.4,1.3c0,0.3,0.1,0.6,0.2,0.8c0.1,0.2,0.3,0.4,0.5,0.6
      c0.2,0.2,0.5,0.3,0.7,0.4c0.3,0.1,0.6,0.1,0.9,0.1c0.6,0,1.1-0.1,1.7-0.3c0.5-0.2,1-0.4,1.5-0.8c0.4-0.3,0.8-0.7,1.1-1.1
      c0.3-0.4,0.4-0.9,0.4-1.3C64.2,52.5,64.1,52.2,64,52z"/>
    <path class="st4" d="M64,33.3c-0.1-0.2-0.3-0.4-0.5-0.6c-0.2-0.2-0.5-0.3-0.7-0.4c-0.3-0.1-0.6-0.1-0.9-0.1
      c-0.6,0-1.1,0.1-1.7,0.3c-0.6,0.2-1,0.5-1.5,0.8c-0.4,0.3-0.8,0.7-1,1.1c-0.3,0.4-0.4,0.9-0.4,1.3c0,0.3,0.1,0.6,0.2,0.8
      c0.1,0.2,0.3,0.4,0.5,0.6c0.2,0.2,0.5,0.3,0.7,0.4c0.3,0.1,0.6,0.1,0.9,0.1c0.6,0,1.1-0.1,1.7-0.3c0.5-0.2,1-0.4,1.5-0.8
      c0.4-0.3,0.8-0.7,1.1-1.1c0.3-0.4,0.4-0.9,0.4-1.3C64.2,33.8,64.1,33.5,64,33.3z"/>
  </g>
  <polyline class="st4" points="99,13.6 99,31.6 98.6,31.6 98.6,13.6 	"/>
  <path id="sus2d" class="st4" d="M98.9,30.6c-0.1-0.2-0.3-0.4-0.5-0.6c-0.2-0.2-0.5-0.3-0.7-0.4c-0.3-0.1-0.6-0.1-0.9-0.1
    c-0.6,0-1.1,0.1-1.7,0.3c-0.6,0.2-1,0.5-1.5,0.8c-0.4,0.3-0.8,0.7-1,1.1c-0.3,0.4-0.4,0.9-0.4,1.3c0,0.3,0.1,0.6,0.2,0.8
    c0.1,0.2,0.3,0.4,0.5,0.6c0.2,0.2,0.5,0.3,0.7,0.4c0.3,0.1,0.6,0.1,0.9,0.1c0.6,0,1.1-0.1,1.7-0.3c0.5-0.2,1-0.4,1.5-0.8
    c0.4-0.3,0.8-0.7,1.1-1.1c0.3-0.4,0.4-0.9,0.4-1.3C99.1,31.1,99,30.9,98.9,30.6z"/>
  <polyline class="st4" points="130.4,5.6 130.4,23.6 129.9,23.6 129.9,5.6 	"/>
  <path id="sus2g" class="st4" d="M126,25.9c-0.5,0.2-1,0.3-1.4,0.3c-0.2,0-0.4,0-0.5-0.1c-0.1-0.1-0.2-0.2-0.2-0.3
    c0-0.1,0.1-0.3,0.2-0.5c0.1-0.2,0.2-0.4,0.4-0.6c0.2-0.2,0.4-0.4,0.7-0.6c0.3-0.2,0.6-0.4,0.9-0.6c0.6-0.3,1.1-0.6,1.6-0.8
    c0.5-0.2,1-0.3,1.4-0.3c0.2,0,0.4,0,0.5,0.1c0.1,0.1,0.2,0.2,0.2,0.3c0,0.1-0.1,0.3-0.2,0.5c-0.1,0.2-0.3,0.4-0.4,0.6
    c-0.2,0.2-0.4,0.4-0.7,0.6c-0.3,0.2-0.6,0.4-0.9,0.6C127.1,25.4,126.5,25.7,126,25.9z M130.2,22.6c-0.1-0.2-0.3-0.4-0.5-0.6
    c-0.2-0.2-0.5-0.3-0.7-0.4c-0.3-0.1-0.6-0.1-0.9-0.1c-0.6,0-1.1,0.1-1.7,0.3c-0.6,0.2-1,0.5-1.5,0.8c-0.4,0.3-0.8,0.7-1,1.1
    c-0.3,0.4-0.4,0.9-0.4,1.3c0,0.3,0.1,0.6,0.2,0.8c0.1,0.2,0.3,0.4,0.5,0.6c0.2,0.2,0.5,0.3,0.7,0.4c0.3,0.1,0.6,0.1,0.9,0.1
    c0.6,0,1.1-0.1,1.7-0.3c0.5-0.2,1-0.4,1.5-0.8c0.4-0.3,0.8-0.7,1.1-1.1c0.3-0.4,0.4-0.9,0.4-1.3C130.4,23.1,130.3,22.9,130.2,22.6z
    "/>
  <polyline class="st4" points="176.2,9.6 176.2,29.6 175.8,29.6 175.8,9.6 	"/>
  <path class="st4" d="M184.6,27.4l0.2-0.3l-1.3-0.9c-0.4-0.3-0.6-0.6-0.9-0.9c-0.2-0.3-0.3-0.7-0.3-1.1c0-0.2,0-0.4,0.1-0.5
    c0.1-0.2,0.2-0.3,0.3-0.4c0.1-0.1,0.3-0.2,0.4-0.3c0.2-0.1,0.3-0.1,0.5-0.1c0.2,0,0.5,0,0.7,0.1c0.2,0.1,0.5,0.2,0.8,0.3l0.3-0.4
    c-0.2-0.2-0.5-0.5-0.7-0.7c-0.2-0.3-0.4-0.5-0.6-0.8c-0.2-0.3-0.3-0.6-0.5-0.9c-0.1-0.3-0.2-0.6-0.2-0.9c0-0.3,0.1-0.6,0.2-0.8
    c0.1-0.3,0.3-0.6,0.4-0.9c0.2-0.3,0.4-0.6,0.7-0.9c0.3-0.3,0.5-0.5,0.8-0.8l-4.5-4.9l-0.3,0.3l0.3,0.3c0.3,0.3,0.5,0.6,0.7,0.8
    c0.2,0.2,0.4,0.4,0.5,0.7c0.1,0.2,0.2,0.4,0.3,0.6c0.1,0.2,0.1,0.4,0.1,0.6c0,0.3-0.1,0.6-0.2,0.9c-0.1,0.3-0.3,0.6-0.4,0.9
    c-0.2,0.3-0.4,0.5-0.6,0.8c-0.2,0.3-0.5,0.5-0.7,0.7l4,4.8c-0.2-0.2-0.3-0.3-0.5-0.4c-0.2-0.1-0.4-0.2-0.5-0.3
    c-0.2-0.1-0.3-0.1-0.5-0.2c-0.2,0-0.3,0-0.4,0c-0.3,0-0.5,0-0.7,0.1c-0.2,0.1-0.4,0.2-0.6,0.3c-0.2,0.1-0.3,0.3-0.4,0.5
    c-0.1,0.2-0.1,0.4-0.1,0.7c0,0.3,0.1,0.7,0.2,1c0.1,0.3,0.3,0.6,0.6,0.9c0.2,0.3,0.5,0.6,0.8,0.8c0.3,0.3,0.7,0.5,1,0.8L184.6,27.4
    z"/>
  <polyline class="st4" points="216.8,5.6 216.8,53 216.3,53 216.3,5.6 	"/>
  <polyline class="st5" points="208,34.7 218.5,34.7 218.5,35.2 208,35.2 	"/>
  <polyline class="st4" points="208,40.1 218.5,40.1 218.5,40.6 208,40.6 	"/>
  <polyline class="st4" points="208,45.4 218.5,45.4 218.5,45.9 208,45.9 	"/>
  <polyline class="st4" points="208,50.8 218.5,50.8 218.5,51.2 208,51.2 	"/>
  <g id="sus2">
    <path class="st4" d="M212.4,55.2c-0.5,0.2-1,0.3-1.4,0.3c-0.2,0-0.4,0-0.5-0.1c-0.1-0.1-0.2-0.2-0.2-0.3c0-0.1,0.1-0.3,0.2-0.5
      c0.1-0.2,0.2-0.4,0.4-0.6c0.2-0.2,0.4-0.4,0.7-0.6c0.3-0.2,0.6-0.4,0.9-0.6c0.6-0.3,1.1-0.6,1.6-0.8c0.5-0.2,1-0.3,1.4-0.3
      c0.2,0,0.4,0,0.5,0.1c0.1,0.1,0.2,0.2,0.2,0.3c0,0.1-0.1,0.3-0.2,0.5c-0.1,0.2-0.3,0.4-0.4,0.6c-0.2,0.2-0.4,0.4-0.7,0.6
      c-0.3,0.2-0.6,0.4-0.9,0.6C213.5,54.8,212.9,55.1,212.4,55.2z M216.6,52c-0.1-0.2-0.3-0.4-0.5-0.6c-0.2-0.2-0.5-0.3-0.7-0.4
      c-0.3-0.1-0.6-0.1-0.9-0.1c-0.6,0-1.1,0.1-1.7,0.3c-0.6,0.2-1,0.5-1.5,0.8c-0.4,0.3-0.8,0.7-1,1.1c-0.3,0.4-0.4,0.9-0.4,1.3
      c0,0.3,0.1,0.6,0.2,0.8c0.1,0.2,0.3,0.4,0.5,0.6c0.2,0.2,0.5,0.3,0.7,0.4c0.3,0.1,0.6,0.1,0.9,0.1c0.6,0,1.1-0.1,1.7-0.3
      c0.5-0.2,1-0.4,1.5-0.8c0.4-0.3,0.8-0.7,1.1-1.1c0.3-0.4,0.4-0.9,0.4-1.3C216.8,52.5,216.7,52.2,216.6,52z"/>
    <path class="st4" d="M212.4,36.6c-0.5,0.2-1,0.3-1.4,0.3c-0.2,0-0.4,0-0.5-0.1c-0.1-0.1-0.2-0.2-0.2-0.3c0-0.1,0.1-0.3,0.2-0.5
      c0.1-0.2,0.2-0.4,0.4-0.6c0.2-0.2,0.4-0.4,0.7-0.6c0.3-0.2,0.6-0.4,0.9-0.6c0.6-0.3,1.1-0.6,1.6-0.8c0.5-0.2,1-0.3,1.4-0.3
      c0.2,0,0.4,0,0.5,0.1c0.1,0.1,0.2,0.2,0.2,0.3c0,0.1-0.1,0.3-0.2,0.5c-0.1,0.2-0.3,0.4-0.4,0.6c-0.2,0.2-0.4,0.4-0.7,0.6
      c-0.3,0.2-0.6,0.4-0.9,0.6C213.5,36.1,212.9,36.4,212.4,36.6z M216.6,33.3c-0.1-0.2-0.3-0.4-0.5-0.6c-0.2-0.2-0.5-0.3-0.7-0.4
      c-0.3-0.1-0.6-0.1-0.9-0.1c-0.6,0-1.1,0.1-1.7,0.3c-0.6,0.2-1,0.5-1.5,0.8c-0.4,0.3-0.8,0.7-1,1.1c-0.3,0.4-0.4,0.9-0.4,1.3
      c0,0.3,0.1,0.6,0.2,0.8c0.1,0.2,0.3,0.4,0.5,0.6c0.2,0.2,0.5,0.3,0.7,0.4c0.3,0.1,0.6,0.1,0.9,0.1c0.6,0,1.1-0.1,1.7-0.3
      c0.5-0.2,1-0.4,1.5-0.8c0.4-0.3,0.8-0.7,1.1-1.1c0.3-0.4,0.4-0.9,0.4-1.3C216.8,33.8,216.7,33.5,216.6,33.3z"/>
    <path class="st4" d="M219.3,33.9c-0.5,0.2-1,0.3-1.4,0.3c-0.2,0-0.4,0-0.5-0.1c-0.1-0.1-0.2-0.2-0.2-0.3c0-0.1,0.1-0.3,0.2-0.5
      c0.1-0.2,0.2-0.4,0.4-0.6c0.2-0.2,0.4-0.4,0.7-0.6c0.3-0.2,0.6-0.4,0.9-0.6c0.6-0.3,1.1-0.6,1.6-0.8c0.5-0.2,1-0.3,1.4-0.3
      c0.2,0,0.4,0,0.5,0.1c0.1,0.1,0.2,0.2,0.2,0.3c0,0.1-0.1,0.3-0.2,0.5c-0.1,0.2-0.3,0.4-0.4,0.6c-0.2,0.2-0.4,0.4-0.7,0.6
      c-0.3,0.2-0.6,0.4-0.9,0.6C220.4,33.4,219.8,33.7,219.3,33.9z M223.5,30.6c-0.1-0.2-0.3-0.4-0.5-0.6c-0.2-0.2-0.5-0.3-0.7-0.4
      c-0.3-0.1-0.6-0.1-0.9-0.1c-0.6,0-1.1,0.1-1.7,0.3c-0.6,0.2-1,0.5-1.5,0.8c-0.4,0.3-0.8,0.7-1,1.1c-0.3,0.4-0.4,0.9-0.4,1.3
      c0,0.3,0.1,0.6,0.2,0.8c0.1,0.2,0.3,0.4,0.5,0.6c0.2,0.2,0.5,0.3,0.7,0.4c0.3,0.1,0.6,0.1,0.9,0.1c0.6,0,1.1-0.1,1.7-0.3
      c0.5-0.2,1-0.4,1.5-0.8c0.4-0.3,0.8-0.7,1.1-1.1c0.3-0.4,0.4-0.9,0.4-1.3C223.7,31.1,223.6,30.9,223.5,30.6z"/>
    <path class="st4" d="M212.4,25.9c-0.5,0.2-1,0.3-1.4,0.3c-0.2,0-0.4,0-0.5-0.1c-0.1-0.1-0.2-0.2-0.2-0.3c0-0.1,0.1-0.3,0.2-0.5
      c0.1-0.2,0.2-0.4,0.4-0.6c0.2-0.2,0.4-0.4,0.7-0.6c0.3-0.2,0.6-0.4,0.9-0.6c0.6-0.3,1.1-0.6,1.6-0.8c0.5-0.2,1-0.3,1.4-0.3
      c0.2,0,0.4,0,0.5,0.1c0.1,0.1,0.2,0.2,0.2,0.3c0,0.1-0.1,0.3-0.2,0.5c-0.1,0.2-0.3,0.4-0.4,0.6c-0.2,0.2-0.4,0.4-0.7,0.6
      c-0.3,0.2-0.6,0.4-0.9,0.6C213.5,25.4,212.9,25.7,212.4,25.9z M216.6,22.6c-0.1-0.2-0.3-0.4-0.5-0.6c-0.2-0.2-0.5-0.3-0.7-0.4
      c-0.3-0.1-0.6-0.1-0.9-0.1c-0.6,0-1.1,0.1-1.7,0.3s-1,0.5-1.5,0.8c-0.4,0.3-0.8,0.7-1,1.1c-0.3,0.4-0.4,0.9-0.4,1.3
      c0,0.3,0.1,0.6,0.2,0.8c0.1,0.2,0.3,0.4,0.5,0.6c0.2,0.2,0.5,0.3,0.7,0.4c0.3,0.1,0.6,0.1,0.9,0.1c0.6,0,1.1-0.1,1.7-0.3
      c0.5-0.2,1-0.4,1.5-0.8c0.4-0.3,0.8-0.7,1.1-1.1c0.3-0.4,0.4-0.9,0.4-1.3C216.8,23.1,216.7,22.9,216.6,22.6z"/>
  </g>
</g>
</svg>
