<svg version="1.1" id="svg0" xmlns="http://www.w3.org/2000/svg" xmlns:xlink="http://www.w3.org/1999/xlink" x="0px"
   y="0px" viewBox="0 0 134.2 323.2" style="enable-background:new 0 0 134.2 323.2;" xml:space="preserve">
<style type="text/css">
  .st0{fill:none;stroke:#000000;stroke-width:5;stroke-linecap:round;stroke-linejoin:round;stroke-miterlimit:10;}
</style>
  <path class="st0" d="M125.8,229.4c-2.1-12.8-7.6-31-7.6-31c-2,2.3-16.5,1.8-19.6-19.5c-2.8-19.8,10.8-26.2,12-24.6
  c0,0,9.3-17.3,0.3-40.5c-8.2-21.2-38.7-22.6-43.6-22.7v0c0,0-0.1,0-0.3,0c-0.2,0-0.3,0-0.3,0v0c-5,0.1-35.4,1.5-43.6,22.7
  c-8.9,23.1,0.3,40.5,0.3,40.5c1.3-1.5,14.9,4.8,12,24.6c-3.1,21.2-17.5,21.8-19.6,19.5c0,0-5.5,18.3-7.6,31
  c-2.1,12.8,1,32.9,19.2,39.5c16.3,6,35.4,7,39.2,7.1v0c0,0,0.1,0,0.3,0c0.2,0,0.3,0,0.3,0v0c0,0,22.9-1.2,39.2-7.1
  C124.8,262.2,127.9,242.1,125.8,229.4z"/>
  <rect x="58.1" y="37.6" class="st0" width="18" height="127"/>
  <rect x="51.1" y="5.6" class="st0" width="32" height="32"/>
  <rect x="61.2" y="274.6" class="st0" width="11.8" height="40"/>
  <rect x="56.6" y="242.6" class="st0" width="21" height="32"/>
  <path class="st0" d="M81.1,177c0,0,1-3.7,5-3.7s4.5,6.8,4.5,16.8s2.5,19.5,6.5,19.5s5-3.7,5-3.7"/>
  <path class="st0" d="M54.1,177c0,0-1-3.7-5-3.7s-4.5,6.8-4.5,16.8s-2.5,19.5-6.5,19.5s-5-3.7-5-3.7"/>

</svg>
