<svg version="1.1" id="e0f19d9f-6ed1-472f-a94b-4f9f3961dc9e"
	 xmlns="http://www.w3.org/2000/svg" xmlns:xlink="http://www.w3.org/1999/xlink" x="0px" y="0px" viewBox="0 0 241 335.5"
	 style="enable-background:new 0 0 241 335.5;" xml:space="preserve">
<path class="st0" d="M239.2,282.2H1.8c-1,0-1.8-0.8-1.8-1.8s0.8-1.8,1.8-1.8l0,0h237.3c1,0,1.8,0.8,1.8,1.8
	C241,281.4,240.2,282.2,239.2,282.2L239.2,282.2z"/>
<path class="st1" d="M138.3,181H46c-10.7,0-19.4-8.7-19.5-19.5V69.2c0.1-10.7,8.8-19.4,19.5-19.4h92.3c10.7,0,19.4,8.7,19.5,19.4
	v92.3C157.7,172.3,149,181,138.3,181z"/>
<path class="st0" d="M195,223.8h-92.3c-10.7,0-19.4-8.7-19.5-19.4v-92.3c0-10.7,8.7-19.4,19.5-19.5H195c10.7,0,19.4,8.7,19.5,19.5
	v92.3C214.5,215.1,205.8,223.8,195,223.8z"/>
<path class="st0" d="M35.9,335.1c-0.6,0-1-0.4-1-1v-18c0-0.6,0.4-1,1-1s1,0.4,1,1v18C36.9,334.7,36.4,335.1,35.9,335.1z"/>
<path class="st2" d="M117.4,335.1c-0.6,0-1-0.4-1-1v-18c0-0.6,0.4-1,1-1s1,0.4,1,1v18C118.4,334.7,117.9,335.1,117.4,335.1z"/>
<path class="st2" d="M124.4,335.1c-0.6,0-1-0.4-1-1v-18c0-0.6,0.4-1,1-1s1,0.4,1,1v18C125.4,334.7,124.9,335.1,124.4,335.1z"/>
<path class="st0" d="M50.6,335.5c-0.4,0-0.8-0.1-1.2-0.3l-11.9-8c0,0,0,0-0.1,0c-0.7-0.4-1.1-1.2-1.1-1.9c0-0.8,0.4-1.6,1.2-2
	l11.8-8c1.1-0.7,2.5-0.3,3.2,0.8c0.2,0.4,0.3,0.8,0.3,1.2v16C52.9,334.4,51.8,335.5,50.6,335.5z M50.5,333.5c0.1,0,0.2,0,0.3,0
	c0.1-0.1,0.2-0.2,0.2-0.3v-16c0-0.2-0.1-0.3-0.3-0.3c-0.1,0-0.1,0-0.2,0l-11.8,8c-0.2,0.1-0.2,0.2-0.2,0.3c0,0.1,0.1,0.2,0.2,0.3
	h0.1L50.5,333.5z"/>
<path class="st0" d="M203.9,335.1c-0.6,0-1-0.4-1-1v-18c0-0.6,0.4-1,1-1s1,0.4,1,1v18C204.9,334.7,204.4,335.1,203.9,335.1z"/>
<path class="st0" d="M189.2,335.5c-0.4,0-0.8-0.1-1.1-0.3c-0.7-0.4-1.2-1.2-1.2-2v-16c0-1.3,1-2.3,2.3-2.3c0.4,0,0.8,0.1,1.2,0.3
	l11.9,8c0.7,0.4,1.1,1.2,1.1,2s-0.4,1.6-1.1,2l-11.8,8C190.1,335.3,189.6,335.5,189.2,335.5z M188.9,333.1c0,0.2,0.1,0.3,0.3,0.3
	c0.1,0,0.1,0,0.2,0l11.8-8c0.1-0.1,0.2-0.2,0.2-0.3l0,0c0-0.1-0.1-0.2-0.2-0.3l-11.9-8c-0.1,0-0.2,0-0.3,0c-0.1,0.1-0.2,0.2-0.2,0.3
	L188.9,333.1z"/>
<circle class="st2" cx="67.9" cy="280.4" r="12"/>
</svg>
