<svg version="1.1" id="レイヤー_1" xmlns="http://www.w3.org/2000/svg" xmlns:xlink="http://www.w3.org/1999/xlink" x="0px"
	 y="0px" viewBox="0 0 334 40.1" style="enable-background:new 0 0 334 40.1;" xml:space="preserve">
<style type="text/css">
	.st0{fill:#16A2C8;}
	.st1{fill:#F98A10;}
</style>
<g>
	<polyline points="2.5,8.2 332,8.8 332,9.3 2.5,8.6 	"/>
	<polyline points="2.5,13.3 332,14 332,14.5 2.5,13.8 	"/>
	<polyline points="2.5,18.5 332,19.1 332,19.6 2.5,18.9 	"/>
	<polyline class="st0" points="2.5,23.4 332,24 332,25 2.5,24.3 	"/>
	<polyline points="2.5,28.8 332,29.4 332,29.9 2.5,29.2 	"/>
	<polyline points="2.7,8.7 2.7,29.3 2.3,29.3 2.3,8.7 	"/>
	<path d="M15.2,21c0.4,0,0.9,0.1,1.3,0.3c0.4,0.2,0.7,0.4,1,0.7s0.5,0.6,0.7,1c0.2,0.4,0.3,0.8,0.3,1.3c0,0.4-0.1,0.8-0.2,1.2
		c-0.1,0.4-0.3,0.7-0.4,1.1c-0.2,0.3-0.4,0.6-0.7,0.9c-0.3,0.3-0.6,0.5-0.9,0.7L15,21H15.2z M15.6,28.4c-0.6,0.2-1.1,0.3-1.7,0.3
		c-0.7,0-1.4-0.1-2-0.4c-0.6-0.3-1.2-0.7-1.7-1.1c-0.5-0.5-0.9-1-1.1-1.7c-0.3-0.6-0.4-1.3-0.4-2c0-0.6,0.1-1.2,0.2-1.7
		c0.1-0.5,0.3-1,0.5-1.4c0.2-0.4,0.5-0.8,0.8-1.2c0.3-0.4,0.6-0.7,1-1.1c0.4-0.4,0.7-0.7,1.1-1.1c0.4-0.3,0.8-0.7,1.1-1.1l0.6,3.2
		c-0.5,0.1-0.9,0.3-1.3,0.6c-0.4,0.3-0.7,0.6-1,1c-0.3,0.4-0.5,0.8-0.7,1.3c-0.2,0.5-0.2,1-0.2,1.5c0,0.5,0.1,1,0.3,1.4
		c0.2,0.4,0.5,0.8,0.8,1.2c0.3,0.3,0.7,0.6,1.2,0.8c0.4,0.2,0.9,0.3,1.4,0.3v-0.4c-0.3,0-0.6-0.1-0.9-0.2c-0.3-0.1-0.5-0.3-0.7-0.5
		c-0.2-0.2-0.4-0.5-0.5-0.7C12,24.9,12,24.6,12,24.3c0-0.4,0.1-0.7,0.2-1.1c0.1-0.3,0.3-0.6,0.5-0.9c0.2-0.3,0.4-0.5,0.7-0.7
		c0.3-0.2,0.6-0.3,0.9-0.4L15.6,28.4z M13.2,10.3c0-0.5-0.1-1-0.1-1.4c0-0.6,0-1.1,0.1-1.6c0.1-0.4,0.2-0.8,0.3-1.1
		c0.1-0.3,0.2-0.6,0.4-0.8C14,5.3,14.2,5.1,14.3,5c0.2-0.1,0.3-0.2,0.4-0.2c0.1,0,0.3-0.1,0.4-0.1c0.2,0,0.3,0,0.5,0.1
		C15.8,5,16,5.1,16.1,5.2c0.1,0.2,0.2,0.3,0.3,0.5c0.1,0.2,0.1,0.4,0.1,0.7c0,0.6-0.1,1.1-0.2,1.6c-0.2,0.5-0.4,1-0.7,1.4
		c-0.3,0.4-0.6,0.9-1,1.3c-0.4,0.4-0.8,0.8-1.2,1.2C13.3,11.4,13.2,10.8,13.2,10.3z M16.4,33c0,0.1,0,0.1,0,0.2s0,0.2,0,0.3
		c0,0.1,0,0.2,0,0.3c0,0.1,0,0.2,0,0.2c0,0.4-0.1,0.8-0.2,1.1c-0.1,0.3-0.3,0.6-0.6,0.9c-0.3,0.3-0.6,0.5-0.9,0.6
		c-0.3,0.1-0.7,0.2-1.1,0.2c-0.3,0-0.5,0-0.6-0.1c-0.1-0.1-0.1-0.2-0.1-0.3c0-0.1,0-0.2,0.1-0.2c0,0,0.1-0.1,0.2-0.2l0.2-0.2
		c0.1-0.1,0.1-0.2,0.2-0.3c0-0.1,0.1-0.2,0.1-0.4c0-0.1,0-0.3,0-0.6c0-0.3-0.1-0.5-0.2-0.7c-0.1-0.2-0.2-0.4-0.4-0.6
		c-0.2-0.2-0.4-0.3-0.6-0.4c-0.2-0.1-0.5-0.2-0.8-0.2c-0.3,0-0.5,0.1-0.7,0.2c-0.2,0.1-0.4,0.2-0.6,0.4c-0.2,0.2-0.3,0.4-0.4,0.6
		c-0.1,0.2-0.2,0.5-0.2,0.7c0,0.5,0.1,0.9,0.3,1.2c0.2,0.4,0.5,0.6,0.8,0.9c0.3,0.2,0.7,0.4,1.2,0.5c0.5,0.1,0.9,0.2,1.4,0.2
		c0.5,0,0.9-0.1,1.4-0.3c0.4-0.2,0.8-0.4,1.1-0.8c0.3-0.3,0.6-0.7,0.8-1.1c0.2-0.4,0.3-0.9,0.3-1.4c0-0.1,0-0.1,0-0.2
		c0-0.1,0-0.2,0-0.3c0-0.1,0-0.2,0-0.3c0-0.1,0-0.2,0-0.3l-0.7-4c0.5-0.2,0.9-0.5,1.4-0.9c0.4-0.4,0.8-0.8,1.1-1.3
		c0.3-0.5,0.5-1,0.7-1.5c0.2-0.6,0.2-1.1,0.2-1.7c0-0.6-0.1-1.2-0.4-1.8c-0.2-0.5-0.6-1-1-1.4c-0.4-0.4-0.9-0.7-1.4-1
		c-0.5-0.2-1.1-0.4-1.8-0.4c-0.1,0-0.2,0-0.3,0c-0.1,0-0.2,0-0.3,0l-0.7-3.7c0.4-0.5,0.9-1,1.2-1.6c0.4-0.6,0.7-1.2,1-1.9
		c0.3-0.7,0.5-1.5,0.7-2.4c0.2-0.9,0.3-1.9,0.3-3.1c0-0.3,0-0.6-0.1-1s-0.2-0.7-0.3-1c-0.1-0.3-0.2-0.7-0.4-1
		c-0.2-0.3-0.3-0.6-0.5-0.9c-0.2-0.2-0.4-0.4-0.6-0.6c-0.2-0.1-0.4-0.2-0.6-0.2c-0.2,0-0.5,0.1-0.7,0.4c-0.3,0.3-0.6,0.6-0.8,1.2
		c-0.3,0.5-0.5,1.2-0.7,2c-0.2,0.8-0.3,1.8-0.3,2.8c0,0.5,0,1.2,0.1,1.9c0.1,0.8,0.2,1.7,0.4,2.7c-0.8,0.7-1.5,1.3-2.2,2
		c-0.7,0.6-1.3,1.3-1.8,2c-0.5,0.7-0.9,1.4-1.2,2.2c-0.3,0.8-0.4,1.6-0.4,2.6c0,0.8,0.1,1.5,0.2,2.2c0.2,0.7,0.4,1.3,0.7,1.9
		c0.3,0.6,0.6,1.2,1,1.6c0.4,0.5,0.9,0.9,1.3,1.3c0.5,0.4,1,0.6,1.6,0.8c0.6,0.2,1.2,0.3,1.8,0.3c0.6,0,1.2-0.1,1.8-0.3L16.4,33z"/>
	<path d="M36.9,16.2H34l2.9-4.6V16.2z M39.7,19v-0.4h-0.3c-0.2,0-0.4,0-0.5-0.1c-0.1-0.1-0.2-0.2-0.2-0.4v-1.2h0.6
		c0.1,0,0.2,0,0.3,0l0.2,0.1c0,0.1,0.1,0.2,0.1,0.3c0,0.1,0,0.3,0,0.5h0.4v-2.5h-0.4c0,0.3,0,0.6-0.1,0.7c-0.1,0.1-0.2,0.2-0.4,0.2
		h-0.6V9.7h-1.1l-4.1,6.5l0.1,0.6h3.4V18c0,0.2-0.1,0.3-0.2,0.4c-0.1,0.1-0.3,0.1-0.5,0.1h-0.3V19H39.7z"/>
	<path d="M36.9,26.5H34l2.9-4.6V26.5z M39.7,29.3v-0.4h-0.3c-0.2,0-0.4,0-0.5-0.1c-0.1-0.1-0.2-0.2-0.2-0.4v-1.2h0.6
		c0.1,0,0.2,0,0.3,0l0.2,0.1c0,0.1,0.1,0.2,0.1,0.3c0,0.1,0,0.3,0,0.5h0.4v-2.5h-0.4c0,0.3,0,0.6-0.1,0.7c-0.1,0.1-0.2,0.2-0.4,0.2
		h-0.6V20h-1.1l-4.1,6.5l0.1,0.6h3.4v1.2c0,0.2-0.1,0.3-0.2,0.4c-0.1,0.1-0.3,0.1-0.5,0.1h-0.3v0.4H39.7z"/>
	<polyline class="st1" points="47.7,34 57.8,34 57.8,35 47.7,35 	"/>
	<polyline points="194.2,8.7 194.2,29.3 193.7,29.3 193.7,8.7 	"/>
	<path d="M202.3,27.2l0.2-0.3l-1.2-0.9c-0.3-0.3-0.6-0.5-0.8-0.9c-0.2-0.3-0.3-0.7-0.3-1c0-0.2,0-0.4,0.1-0.5
		c0.1-0.2,0.2-0.3,0.3-0.4c0.1-0.1,0.3-0.2,0.4-0.3c0.2-0.1,0.3-0.1,0.5-0.1c0.2,0,0.4,0,0.7,0.1c0.2,0.1,0.5,0.2,0.7,0.3l0.3-0.4
		c-0.2-0.2-0.4-0.5-0.7-0.7c-0.2-0.3-0.4-0.5-0.6-0.8c-0.2-0.3-0.3-0.6-0.5-0.8s-0.2-0.6-0.2-0.9c0-0.3,0.1-0.5,0.2-0.8
		c0.1-0.3,0.2-0.6,0.4-0.8c0.2-0.3,0.4-0.6,0.6-0.8c0.2-0.3,0.5-0.5,0.8-0.8l-4.3-4.7l-0.3,0.3l0.2,0.3c0.2,0.3,0.5,0.5,0.6,0.8
		c0.2,0.2,0.3,0.4,0.5,0.6c0.1,0.2,0.2,0.4,0.3,0.6c0.1,0.2,0.1,0.4,0.1,0.6c0,0.3-0.1,0.6-0.2,0.9c-0.1,0.3-0.2,0.6-0.4,0.8
		c-0.2,0.3-0.4,0.5-0.6,0.8c-0.2,0.2-0.5,0.5-0.7,0.7l3.8,4.6c-0.2-0.1-0.3-0.3-0.5-0.4c-0.2-0.1-0.3-0.2-0.5-0.3
		c-0.2-0.1-0.3-0.1-0.5-0.1c-0.2,0-0.3,0-0.4,0c-0.3,0-0.5,0-0.7,0.1c-0.2,0.1-0.4,0.2-0.6,0.3c-0.2,0.1-0.3,0.3-0.4,0.5
		c-0.1,0.2-0.1,0.4-0.1,0.6c0,0.3,0.1,0.6,0.2,0.9c0.1,0.3,0.3,0.6,0.5,0.8c0.2,0.3,0.5,0.5,0.8,0.8c0.3,0.3,0.6,0.5,1,0.7
		L202.3,27.2z"/>
	<polyline points="332.2,8.7 332.2,29.3 331.7,29.3 331.7,8.7 	"/>
</g>
<g id="c01">
	<path d="M56,32.9c-0.1-0.2-0.3-0.4-0.5-0.6c-0.2-0.2-0.4-0.3-0.7-0.3c-0.3-0.1-0.6-0.1-0.9-0.1c-0.5,0-1.1,0.1-1.6,0.3
		s-1,0.4-1.4,0.8c-0.4,0.3-0.8,0.7-1,1.1c-0.3,0.4-0.4,0.8-0.4,1.3c0,0.3,0.1,0.6,0.2,0.8c0.1,0.2,0.3,0.4,0.5,0.6
		c0.2,0.2,0.4,0.3,0.7,0.3c0.3,0.1,0.6,0.1,0.9,0.1c0.5,0,1.1-0.1,1.6-0.3c0.5-0.2,1-0.4,1.4-0.7c0.4-0.3,0.8-0.7,1-1.1
		c0.3-0.4,0.4-0.8,0.4-1.3C56.2,33.4,56.1,33.1,56,32.9z"/>
	<polyline points="56.2,16.5 56.2,33.8 55.7,33.8 55.7,16.5 	"/>
</g>
<g id="e01">
	<path d="M97.1,27.7c-0.1-0.2-0.3-0.4-0.5-0.6c-0.2-0.2-0.4-0.3-0.7-0.3c-0.3-0.1-0.6-0.1-0.9-0.1c-0.5,0-1.1,0.1-1.6,0.3
		s-1,0.4-1.4,0.8c-0.4,0.3-0.8,0.7-1,1.1c-0.3,0.4-0.4,0.8-0.4,1.3c0,0.3,0.1,0.6,0.2,0.8c0.1,0.2,0.3,0.4,0.5,0.6
		c0.2,0.2,0.4,0.3,0.7,0.3c0.3,0.1,0.6,0.1,0.9,0.1c0.5,0,1.1-0.1,1.6-0.3c0.5-0.2,1-0.4,1.4-0.7c0.4-0.3,0.8-0.7,1-1.1
		c0.3-0.4,0.4-0.8,0.4-1.3C97.3,28.2,97.2,28,97.1,27.7z"/>
	<polyline points="97.3,11.3 97.3,28.7 96.8,28.7 96.8,11.3 	"/>
</g>
<g id="g01">
	<path d="M130.8,25.7c-0.5,0.2-0.9,0.3-1.3,0.3c-0.2,0-0.4,0-0.5-0.1c-0.1-0.1-0.2-0.2-0.2-0.3c0-0.1,0-0.3,0.1-0.4
		c0.1-0.2,0.2-0.4,0.4-0.5c0.2-0.2,0.4-0.4,0.7-0.6c0.3-0.2,0.5-0.4,0.9-0.6c0.5-0.3,1.1-0.6,1.6-0.8c0.5-0.2,0.9-0.3,1.3-0.3
		c0.2,0,0.3,0,0.5,0.1c0.1,0.1,0.2,0.2,0.2,0.3c0,0.1-0.1,0.3-0.2,0.4c-0.1,0.2-0.2,0.4-0.4,0.6c-0.2,0.2-0.4,0.4-0.7,0.6
		c-0.3,0.2-0.5,0.4-0.9,0.6C131.8,25.3,131.3,25.5,130.8,25.7z M134.8,22.6c-0.1-0.2-0.3-0.4-0.5-0.6c-0.2-0.2-0.4-0.3-0.7-0.3
		c-0.3-0.1-0.6-0.1-0.9-0.1c-0.5,0-1.1,0.1-1.6,0.3c-0.5,0.2-1,0.4-1.4,0.8c-0.4,0.3-0.8,0.7-1,1.1c-0.3,0.4-0.4,0.8-0.4,1.3
		c0,0.3,0.1,0.6,0.2,0.8s0.3,0.4,0.5,0.6c0.2,0.2,0.4,0.3,0.7,0.3c0.3,0.1,0.6,0.1,0.9,0.1c0.5,0,1.1-0.1,1.6-0.3
		c0.5-0.2,1-0.4,1.4-0.7c0.4-0.3,0.8-0.7,1-1.1c0.3-0.4,0.4-0.8,0.4-1.3C135,23.1,134.9,22.8,134.8,22.6z"/>
	<polyline points="135,6.2 135,23.5 134.5,23.5 134.5,6.2 	"/>
</g>
<g id="c-chord">
	<polyline class="st1" points="232.4,34 242.5,34 242.5,35 232.4,35 	"/>
	<path d="M236.6,36c-0.5,0.2-0.9,0.3-1.3,0.3c-0.2,0-0.4,0-0.5-0.1c-0.1-0.1-0.2-0.2-0.2-0.3c0-0.1,0-0.3,0.1-0.4
		c0.1-0.2,0.2-0.4,0.4-0.5c0.2-0.2,0.4-0.4,0.7-0.6c0.3-0.2,0.5-0.4,0.9-0.6c0.5-0.3,1.1-0.6,1.6-0.8c0.5-0.2,0.9-0.3,1.3-0.3
		c0.2,0,0.3,0,0.5,0.1c0.1,0.1,0.2,0.2,0.2,0.3c0,0.1-0.1,0.3-0.2,0.4c-0.1,0.2-0.2,0.4-0.4,0.6c-0.2,0.2-0.4,0.4-0.7,0.6
		c-0.3,0.2-0.5,0.4-0.9,0.6C237.6,35.6,237.1,35.8,236.6,36z M240.7,32.9c-0.1-0.2-0.3-0.4-0.5-0.6c-0.2-0.2-0.4-0.3-0.7-0.3
		c-0.3-0.1-0.6-0.1-0.9-0.1c-0.5,0-1.1,0.1-1.6,0.3c-0.5,0.2-1,0.4-1.4,0.8c-0.4,0.3-0.8,0.7-1,1.1c-0.3,0.4-0.4,0.8-0.4,1.3
		c0,0.3,0.1,0.6,0.2,0.8c0.1,0.2,0.3,0.4,0.5,0.6c0.2,0.2,0.4,0.3,0.7,0.3c0.3,0.1,0.6,0.1,0.9,0.1c0.5,0,1.1-0.1,1.6-0.3
		c0.5-0.2,1-0.4,1.4-0.7c0.4-0.3,0.8-0.7,1-1.1c0.3-0.4,0.4-0.8,0.4-1.3C240.8,33.4,240.8,33.1,240.7,32.9z"/>
	<path d="M244.4,32.8c0.1-0.1,0.2-0.1,0.3-0.2c0.1-0.1,0.2-0.2,0.2-0.3c0.1-0.1,0.1-0.3,0.1-0.4s0-0.3-0.1-0.4
		c-0.1-0.1-0.1-0.2-0.2-0.3c-0.1-0.1-0.2-0.2-0.3-0.2c-0.1-0.1-0.3-0.1-0.4-0.1c-0.1,0-0.3,0-0.4,0.1c-0.1,0.1-0.2,0.1-0.3,0.2
		c-0.1,0.1-0.2,0.2-0.2,0.3c-0.1,0.1-0.1,0.3-0.1,0.4s0,0.3,0.1,0.4c0.1,0.1,0.1,0.2,0.2,0.3c0.1,0.1,0.2,0.2,0.3,0.2
		c0.1,0.1,0.3,0.1,0.4,0.1C244.1,32.9,244.3,32.9,244.4,32.8z"/>
	<path d="M236.6,30.8c-0.5,0.2-0.9,0.3-1.3,0.3c-0.2,0-0.4,0-0.5-0.1c-0.1-0.1-0.2-0.2-0.2-0.3c0-0.1,0-0.3,0.1-0.4
		c0.1-0.2,0.2-0.4,0.4-0.5c0.2-0.2,0.4-0.4,0.7-0.6c0.3-0.2,0.5-0.4,0.9-0.6c0.5-0.3,1.1-0.6,1.6-0.8c0.5-0.2,0.9-0.3,1.3-0.3
		c0.2,0,0.3,0,0.5,0.1c0.1,0.1,0.2,0.2,0.2,0.3c0,0.1-0.1,0.3-0.2,0.4c-0.1,0.2-0.2,0.4-0.4,0.6c-0.2,0.2-0.4,0.4-0.7,0.6
		c-0.3,0.2-0.5,0.4-0.9,0.6C237.6,30.4,237.1,30.7,236.6,30.8z M240.7,27.7c-0.1-0.2-0.3-0.4-0.5-0.6c-0.2-0.2-0.4-0.3-0.7-0.3
		c-0.3-0.1-0.6-0.1-0.9-0.1c-0.5,0-1.1,0.1-1.6,0.3c-0.5,0.2-1,0.4-1.4,0.8c-0.4,0.3-0.8,0.7-1,1.1c-0.3,0.4-0.4,0.8-0.4,1.3
		c0,0.3,0.1,0.6,0.2,0.8c0.1,0.2,0.3,0.4,0.5,0.6c0.2,0.2,0.4,0.3,0.7,0.3c0.3,0.1,0.6,0.1,0.9,0.1c0.5,0,1.1-0.1,1.6-0.3
		c0.5-0.2,1-0.4,1.4-0.7c0.4-0.3,0.8-0.7,1-1.1c0.3-0.4,0.4-0.8,0.4-1.3C240.8,28.2,240.8,28,240.7,27.7z"/>
	<path d="M244.4,27.7c0.1-0.1,0.2-0.1,0.3-0.2c0.1-0.1,0.2-0.2,0.2-0.3c0.1-0.1,0.1-0.3,0.1-0.4c0-0.1,0-0.3-0.1-0.4
		c-0.1-0.1-0.1-0.2-0.2-0.3c-0.1-0.1-0.2-0.2-0.3-0.2c-0.1-0.1-0.3-0.1-0.4-0.1c-0.1,0-0.3,0-0.4,0.1c-0.1,0.1-0.2,0.1-0.3,0.2
		c-0.1,0.1-0.2,0.2-0.2,0.3c-0.1,0.1-0.1,0.3-0.1,0.4c0,0.1,0,0.3,0.1,0.4c0.1,0.1,0.1,0.2,0.2,0.3c0.1,0.1,0.2,0.2,0.3,0.2
		c0.1,0.1,0.3,0.1,0.4,0.1C244.1,27.8,244.3,27.7,244.4,27.7z"/>
	<path d="M236.6,25.7c-0.5,0.2-0.9,0.3-1.3,0.3c-0.2,0-0.4,0-0.5-0.1c-0.1-0.1-0.2-0.2-0.2-0.3c0-0.1,0-0.3,0.1-0.4
		c0.1-0.2,0.2-0.4,0.4-0.5c0.2-0.2,0.4-0.4,0.7-0.6c0.3-0.2,0.5-0.4,0.9-0.6c0.5-0.3,1.1-0.6,1.6-0.8c0.5-0.2,0.9-0.3,1.3-0.3
		c0.2,0,0.3,0,0.5,0.1c0.1,0.1,0.2,0.2,0.2,0.3c0,0.1-0.1,0.3-0.2,0.4c-0.1,0.2-0.2,0.4-0.4,0.6c-0.2,0.2-0.4,0.4-0.7,0.6
		c-0.3,0.2-0.5,0.4-0.9,0.6C237.6,25.3,237.1,25.5,236.6,25.7z M240.7,22.6c-0.1-0.2-0.3-0.4-0.5-0.6c-0.2-0.2-0.4-0.3-0.7-0.3
		c-0.3-0.1-0.6-0.1-0.9-0.1c-0.5,0-1.1,0.1-1.6,0.3c-0.5,0.2-1,0.4-1.4,0.8c-0.4,0.3-0.8,0.7-1,1.1c-0.3,0.4-0.4,0.8-0.4,1.3
		c0,0.3,0.1,0.6,0.2,0.8s0.3,0.4,0.5,0.6c0.2,0.2,0.4,0.3,0.7,0.3c0.3,0.1,0.6,0.1,0.9,0.1c0.5,0,1.1-0.1,1.6-0.3
		c0.5-0.2,1-0.4,1.4-0.7c0.4-0.3,0.8-0.7,1-1.1c0.3-0.4,0.4-0.8,0.4-1.3C240.8,23.1,240.8,22.8,240.7,22.6z"/>
	<path d="M244.4,22.5c0.1-0.1,0.2-0.1,0.3-0.2c0.1-0.1,0.2-0.2,0.2-0.3c0.1-0.1,0.1-0.3,0.1-0.4s0-0.3-0.1-0.4
		c-0.1-0.1-0.1-0.2-0.2-0.3c-0.1-0.1-0.2-0.2-0.3-0.2c-0.1-0.1-0.3-0.1-0.4-0.1c-0.1,0-0.3,0-0.4,0.1c-0.1,0.1-0.2,0.1-0.3,0.2
		c-0.1,0.1-0.2,0.2-0.2,0.3c-0.1,0.1-0.1,0.3-0.1,0.4s0,0.3,0.1,0.4c0.1,0.1,0.1,0.2,0.2,0.3c0.1,0.1,0.2,0.2,0.3,0.2
		c0.1,0.1,0.3,0.1,0.4,0.1C244.1,22.6,244.3,22.6,244.4,22.5z"/>
	<polyline points="240.8,6.2 240.8,33.8 240.4,33.8 240.4,6.2 	"/>
</g>
</svg>
