<?xml version="1.0" encoding="utf-8"?>
<!-- Generator: Adobe Illustrator 25.3.1, SVG Export Plug-In . SVG Version: 6.00 Build 0)  -->
<svg version="1.1" id="レイヤー_1" xmlns="http://www.w3.org/2000/svg" xmlns:xlink="http://www.w3.org/1999/xlink" x="0px"
	 y="0px" viewBox="0 0 249.1 43.9" style="enable-background:new 0 0 249.1 43.9;" xml:space="preserve">
<style type="text/css">
	.st0{fill:#16A2C8;}
	.st1{fill:#F98A10;}
</style>
<g>
	<polyline points="1.5,9.9 247.7,9.9 247.7,10.4 1.5,10.4 	"/>
	<polyline points="1.5,15.2 247.7,15.2 247.7,15.7 1.5,15.7 	"/>
	<polyline points="1.5,20.6 247.7,20.6 247.7,21.1 1.5,21.1 	"/>
	<polyline class="st0" points="1.5,25.7 247.7,25.7 247.7,26.6 1.5,26.6 	"/>
	<polyline points="1.5,31.3 247.7,31.3 247.7,31.7 1.5,31.7 	"/>
	<polyline points="1.8,10.1 1.8,31.5 1.3,31.5 1.3,10.1 	"/>
	<path d="M14.6,22.9c0.5,0,0.9,0.1,1.3,0.3c0.4,0.2,0.8,0.4,1.1,0.7c0.3,0.3,0.5,0.7,0.7,1.1s0.3,0.8,0.3,1.3c0,0.4-0.1,0.8-0.2,1.2
		c-0.1,0.4-0.3,0.8-0.5,1.1c-0.2,0.3-0.4,0.7-0.7,0.9c-0.3,0.3-0.6,0.5-0.9,0.7l-1.3-7.3C14.4,22.9,14.6,22.9,14.6,22.9z M15.1,30.6
		c-0.6,0.2-1.2,0.3-1.7,0.3c-0.8,0-1.5-0.1-2.1-0.4c-0.7-0.3-1.2-0.7-1.7-1.2s-0.9-1.1-1.2-1.7C8.1,26.9,8,26.2,8,25.5
		s0.1-1.3,0.2-1.8c0.1-0.5,0.3-1,0.5-1.5s0.5-0.9,0.8-1.3s0.7-0.8,1-1.1c0.4-0.4,0.7-0.7,1.1-1.1c0.4-0.4,0.8-0.7,1.2-1.1l0.6,3.3
		c-0.5,0.1-0.9,0.4-1.3,0.6c-0.4,0.3-0.8,0.6-1.1,1s-0.5,0.8-0.7,1.3s-0.3,1-0.3,1.5s0.1,1,0.3,1.5s0.5,0.9,0.8,1.2
		c0.3,0.3,0.7,0.6,1.2,0.8c0.5,0.2,0.9,0.3,1.5,0.3v-0.4c-0.3,0-0.7-0.1-1-0.2S12.2,28.2,12,28s-0.4-0.5-0.5-0.8s-0.2-0.6-0.2-1
		s0.1-0.7,0.2-1.1c0.1-0.3,0.3-0.7,0.5-0.9c0.2-0.3,0.5-0.5,0.8-0.7s0.6-0.4,1-0.4L15.1,30.6z M12.6,11.8c0-0.5-0.1-1-0.1-1.4
		c0-0.6,0-1.2,0.1-1.6c0.1-0.5,0.2-0.8,0.3-1.2C13,7.2,13.2,7,13.3,6.8c0.2-0.2,0.3-0.4,0.5-0.5s0.3-0.2,0.5-0.2
		C14.4,6,14.5,6,14.6,6c0.2,0,0.4,0,0.5,0.1c0.2,0.1,0.3,0.2,0.4,0.4c0.1,0.2,0.2,0.3,0.3,0.6C15.9,7.3,16,7.5,16,7.8
		c0,0.6-0.1,1.1-0.3,1.6s-0.4,1-0.7,1.5s-0.6,0.9-1,1.3c-0.4,0.4-0.8,0.9-1.3,1.3C12.7,12.9,12.6,12.3,12.6,11.8z M15.9,35.3
		c0,0.1,0,0.1,0,0.2s0,0.2,0,0.3s0,0.2,0,0.3s0,0.2,0,0.2c0,0.4-0.1,0.8-0.2,1.1c-0.2,0.4-0.4,0.7-0.6,0.9c-0.3,0.3-0.6,0.5-0.9,0.6
		c-0.4,0.2-0.7,0.2-1.1,0.2c-0.3,0-0.5,0-0.6-0.1s-0.1-0.2-0.1-0.3s0-0.2,0.1-0.2c0,0,0.1-0.1,0.2-0.2l0.2-0.2
		c0.1-0.1,0.1-0.2,0.2-0.3c0-0.1,0.1-0.2,0.1-0.4s0-0.3,0-0.6S13.1,36.3,13,36c-0.1-0.2-0.2-0.5-0.4-0.6c-0.2-0.2-0.4-0.3-0.6-0.4
		c-0.4,0-0.6,0-0.9,0c-0.3,0-0.5,0.1-0.8,0.2c-0.2,0.1-0.5,0.2-0.6,0.4c-0.2,0.2-0.3,0.4-0.4,0.6c-0.1,0.2-0.2,0.5-0.2,0.8
		c0,0.5,0.1,0.9,0.3,1.3c0.2,0.4,0.5,0.7,0.9,0.9c0.4,0.3,0.8,0.4,1.2,0.6c0.5,0.1,1,0.2,1.5,0.2s1-0.1,1.4-0.3s0.8-0.5,1.2-0.8
		c0.3-0.3,0.6-0.7,0.8-1.2c0.2-0.4,0.3-0.9,0.3-1.4c0-0.1,0-0.1,0-0.2c0-0.1,0-0.2,0-0.3s0-0.2,0-0.3s0-0.2,0-0.3L15.8,31
		c0.5-0.3,1-0.6,1.4-1c0.4-0.4,0.8-0.8,1.1-1.3c0.3-0.5,0.5-1,0.7-1.6s0.3-1.2,0.3-1.8c0-0.6-0.1-1.3-0.4-1.8
		c-0.2-0.6-0.6-1.1-1-1.5s-0.9-0.8-1.5-1s-1.2-0.4-1.8-0.4c-0.1,0-0.2,0-0.3,0s-0.2,0-0.3,0l-0.7-3.8c0.5-0.5,0.9-1,1.3-1.6
		c0.4-0.6,0.8-1.3,1.1-2c0.3-0.8,0.6-1.6,0.7-2.5c0.2-0.9,0.3-2,0.3-3.2c0-0.3,0-0.6-0.1-1s-0.2-0.7-0.3-1.1c-0.1-0.4-0.3-0.7-0.4-1
		c-0.2-0.3-0.3-0.6-0.5-0.9S15,3,14.8,2.9c-0.2-0.2-0.4-0.2-0.7-0.2c-0.2,0-0.5,0.1-0.8,0.4s-0.6,0.7-0.8,1.2
		c-0.3,0.5-0.5,1.2-0.7,2.1c-0.2,0.8-0.3,1.8-0.3,3c0,0.5,0,1.2,0.1,2s0.2,1.7,0.4,2.8c-0.8,0.7-1.5,1.4-2.2,2.1
		c-0.7,0.7-1.3,1.3-1.8,2s-0.9,1.5-1.2,2.3c-0.3,0.8-0.4,1.7-0.4,2.7c0,0.8,0.1,1.5,0.2,2.2c0.2,0.7,0.4,1.4,0.7,2
		C7.7,28,8,28.6,8.4,29.1s0.9,1,1.4,1.3c0.5,0.4,1.1,0.6,1.6,0.9c0.6,0.2,1.2,0.3,1.8,0.3s1.2-0.1,1.9-0.3L15.9,35.3z"/>
	<path d="M29.1,17.9h-3l3-4.7V17.9z M32,20.8v-0.4h-0.3c-0.2,0-0.4,0-0.5-0.1C31,20.1,31,20,31,19.8v-1.2h0.6c0.1,0,0.2,0,0.3,0
		l0.2,0.2c0,0.1,0.1,0.2,0.1,0.3c0,0.1,0,0.3,0,0.5h0.4V17h-0.4c0,0.4,0,0.6-0.1,0.8C32,17.9,31.9,18,31.7,18H31v-6.8h-1.2L25.5,18
		l0.1,0.6h3.5v1.2c0,0.2-0.1,0.4-0.2,0.5s-0.3,0.1-0.5,0.1h-0.3v0.4H32z"/>
	<path d="M29.1,28.6h-3l3-4.7V28.6z M32,31.5V31h-0.3c-0.2,0-0.4,0-0.5-0.1C31,30.8,31,30.7,31,30.4v-1.2h0.6c0.1,0,0.2,0,0.3,0
		l0.2,0.2c0,0.1,0.1,0.2,0.1,0.3c0,0.1,0,0.3,0,0.5h0.4v-2.6h-0.4c0,0.4,0,0.6-0.1,0.8c-0.1,0.1-0.2,0.2-0.4,0.2H31v-6.8h-1.2
		l-4.3,6.8l0.1,0.6h3.5v1.2c0,0.2-0.1,0.4-0.2,0.5S28.6,31,28.4,31h-0.3v0.4H32V31.5z"/>
	<polyline class="st1" points="40.4,36.4 50.9,36.4 50.9,37.3 40.4,37.3 	"/>
	<polyline class="st1" points="73.3,36.4 83.8,36.4 83.8,37.3 73.3,37.3 	"/>
	<rect x="107.6" y="4.8" width="52" height="2.7"/>
	<polyline points="173.6,10.1 173.6,31.5 173.1,31.5 173.1,10.1 	"/>
	<polyline class="st1" points="177.5,36.4 188,36.4 188,37.3 177.5,37.3 	"/>
	<path d="M227.6,29.3l0.2-0.3l-1.3-0.9c-0.4-0.3-0.6-0.6-0.9-0.9c-0.2-0.3-0.3-0.7-0.3-1.1c0-0.2,0-0.4,0.1-0.5
		c0.1-0.2,0.2-0.3,0.3-0.4s0.3-0.2,0.4-0.3c0.2-0.1,0.3-0.1,0.5-0.1s0.5,0,0.7,0.1s0.5,0.2,0.8,0.3l0.3-0.4
		c-0.2-0.2-0.5-0.5-0.7-0.7c-0.2-0.3-0.4-0.5-0.6-0.8c-0.2-0.3-0.3-0.6-0.5-0.9c-0.1-0.3-0.2-0.6-0.2-0.9s0.1-0.6,0.2-0.8
		c0.1-0.3,0.3-0.6,0.4-0.9c0.2-0.3,0.4-0.6,0.7-0.9s0.5-0.5,0.8-0.8l-4.5-4.9l-0.3,0.3l0.3,0.3c0.3,0.3,0.5,0.6,0.7,0.8
		s0.4,0.4,0.5,0.7c0.1,0.2,0.2,0.4,0.3,0.6s0.1,0.4,0.1,0.6c0,0.3-0.1,0.6-0.2,0.9c-0.1,0.3-0.3,0.6-0.4,0.9
		c-0.2,0.3-0.4,0.5-0.6,0.8c-0.2,0.3-0.5,0.5-0.7,0.7l4,4.8c-0.2-0.2-0.3-0.3-0.5-0.4s-0.4-0.2-0.5-0.3c-0.2-0.1-0.3-0.1-0.5-0.2
		c-0.2,0-0.3,0-0.4,0c-0.3,0-0.5,0-0.7,0.1s-0.4,0.2-0.6,0.3c-0.2,0.1-0.3,0.3-0.4,0.5c-0.1,0.2-0.1,0.4-0.1,0.7
		c0,0.3,0.1,0.7,0.2,1s0.3,0.6,0.6,0.9c0.2,0.3,0.5,0.6,0.8,0.8c0.3,0.3,0.7,0.5,1,0.8L227.6,29.3z"/>
	<polyline points="248.1,10.1 248.1,31.5 247.6,31.5 247.6,10.1 	"/>
	<polyline points="247.8,10.1 247.8,31.5 247.6,31.5 247.6,10.1 	"/>
</g>
<g id="do01">
	<path d="M49,35.2c-0.1-0.2-0.3-0.4-0.5-0.6c-0.2-0.2-0.5-0.3-0.7-0.4c-0.3-0.1-0.6-0.1-0.9-0.1c-0.6,0-1.1,0.1-1.7,0.3
		c-0.6,0.2-1,0.5-1.5,0.8c-0.4,0.3-0.8,0.7-1,1.1c-0.3,0.4-0.4,0.9-0.4,1.3c0,0.3,0.1,0.6,0.2,0.8c0.1,0.2,0.3,0.4,0.5,0.6
		c0.2,0.2,0.5,0.3,0.7,0.4c0.3,0.1,0.6,0.1,0.9,0.1c0.6,0,1.1-0.1,1.7-0.3c0.5-0.2,1-0.4,1.5-0.8c0.4-0.3,0.8-0.7,1.1-1.1
		c0.3-0.4,0.4-0.9,0.4-1.3C49.1,35.7,49.1,35.4,49,35.2z"/>
	<path d="M52.9,35.1c0.1-0.1,0.3-0.1,0.4-0.2c0.1-0.1,0.2-0.2,0.2-0.4c0.1-0.1,0.1-0.3,0.1-0.4s0-0.3-0.1-0.4
		c-0.1-0.1-0.1-0.3-0.2-0.4c-0.1-0.1-0.2-0.2-0.4-0.2S52.6,33,52.4,33c-0.2,0-0.3,0-0.4,0.1s-0.3,0.1-0.4,0.2
		c-0.1,0.1-0.2,0.2-0.2,0.4c-0.1,0.1-0.1,0.3-0.1,0.4s0,0.3,0.1,0.4c0.1,0.1,0.1,0.3,0.2,0.4c0.1,0.1,0.2,0.2,0.4,0.2
		c0.1,0.1,0.3,0.1,0.4,0.1C52.6,35.2,52.7,35.2,52.9,35.1z"/>
	<polyline points="49.1,18.1 49.1,36.2 48.6,36.2 48.6,18.1 	"/>
</g>
<g id="do01_1_">
	<path d="M49,30c-0.1-0.2-0.3-0.4-0.5-0.6c-0.2-0.2-0.5-0.3-0.7-0.4c-0.3-0.1-0.6-0.1-0.9-0.1c-0.6,0-1.1,0.1-1.7,0.3
		c-0.6,0.2-1,0.5-1.5,0.8c-0.4,0.3-0.8,0.7-1,1.1c-0.3,0.4-0.4,0.9-0.4,1.3c0,0.3,0.1,0.6,0.2,0.8c0.1,0.2,0.3,0.4,0.5,0.6
		c0.2,0.2,0.5,0.3,0.7,0.4c0.3,0.1,0.6,0.1,0.9,0.1c0.6,0,1.1-0.1,1.7-0.3c0.5-0.2,1-0.4,1.5-0.8c0.4-0.3,0.8-0.7,1.1-1.1
		c0.3-0.4,0.4-0.9,0.4-1.3C49.1,30.5,49.1,30.2,49,30z"/>
	<path d="M52.9,29.9c0.1-0.1,0.3-0.1,0.4-0.2c0.1-0.1,0.2-0.2,0.2-0.4c0.1-0.1,0.1-0.3,0.1-0.4s0-0.3-0.1-0.4
		c-0.1-0.1-0.1-0.3-0.2-0.4c-0.1-0.1-0.2-0.2-0.4-0.2s-0.3-0.1-0.5-0.1c-0.2,0-0.3,0-0.4,0.1s-0.3,0.1-0.4,0.2
		c-0.1,0.1-0.2,0.2-0.2,0.4c-0.1,0.1-0.1,0.3-0.1,0.4s0,0.3,0.1,0.4c0.1,0.1,0.1,0.3,0.2,0.4c0.1,0.1,0.2,0.2,0.4,0.2
		c0.1,0.1,0.3,0.1,0.4,0.1C52.6,30,52.7,30,52.9,29.9z"/>
	<polyline points="49.1,12.9 49.1,31 48.6,31 48.6,12.9 	"/>
</g>
<g id="do01_2_">
	<path d="M49,24.7c-0.1-0.2-0.3-0.4-0.5-0.6c-0.2-0.2-0.5-0.3-0.7-0.4c-0.3-0.1-0.6-0.1-0.9-0.1c-0.6,0-1.1,0.1-1.7,0.3
		c-0.6,0.2-1,0.5-1.5,0.8c-0.4,0.3-0.8,0.7-1,1.1c-0.3,0.4-0.4,0.9-0.4,1.3c0,0.3,0.1,0.6,0.2,0.8c0.1,0.2,0.3,0.4,0.5,0.6
		c0.2,0.2,0.5,0.3,0.7,0.4C44,29,44.3,29,44.6,29c0.6,0,1.1-0.1,1.7-0.3c0.5-0.2,1-0.4,1.5-0.8c0.4-0.3,0.8-0.7,1.1-1.1
		c0.3-0.4,0.4-0.9,0.4-1.3C49.1,25.2,49.1,24.9,49,24.7z"/>
	<path d="M52.9,24.6c0.1-0.1,0.3-0.1,0.4-0.2c0.1-0.1,0.2-0.2,0.2-0.4c0.1-0.1,0.1-0.3,0.1-0.4s0-0.3-0.1-0.4
		c-0.1-0.1-0.1-0.3-0.2-0.4c-0.1-0.1-0.2-0.2-0.4-0.2s-0.3-0.1-0.5-0.1c-0.2,0-0.3,0-0.4,0.1s-0.3,0.1-0.4,0.2
		c-0.1,0.1-0.2,0.2-0.2,0.4c-0.1,0.1-0.1,0.3-0.1,0.4s0,0.3,0.1,0.4c0.1,0.1,0.1,0.3,0.2,0.4c0.1,0.1,0.2,0.2,0.4,0.2
		c0.1,0.1,0.3,0.1,0.4,0.1C52.6,24.7,52.7,24.7,52.9,24.6z"/>
	<polyline points="49.1,7.6 49.1,25.7 48.6,25.7 48.6,7.6 	"/>
</g>
<g id="do02">
	<path d="M81.9,35.2c-0.1-0.2-0.3-0.4-0.5-0.6c-0.2-0.2-0.5-0.3-0.7-0.4c-0.3-0.1-0.6-0.1-0.9-0.1c-0.6,0-1.1,0.1-1.7,0.3
		s-1,0.5-1.5,0.8c-0.4,0.3-0.8,0.7-1,1.1c-0.3,0.4-0.4,0.9-0.4,1.3c0,0.3,0.1,0.6,0.2,0.8s0.3,0.4,0.5,0.6c0.2,0.2,0.5,0.3,0.7,0.4
		c0.3,0.1,0.6,0.1,0.9,0.1c0.6,0,1.1-0.1,1.7-0.3c0.5-0.2,1-0.4,1.5-0.8c0.4-0.3,0.8-0.7,1.1-1.1c0.3-0.4,0.4-0.9,0.4-1.3
		C82.1,35.7,82,35.4,81.9,35.2z"/>
	<path d="M85.3,32.1c0.2-0.3,0.4-0.6,0.6-0.9c0.2-0.4,0.4-0.8,0.5-1.2c0.2-0.4,0.3-0.9,0.4-1.3c0.1-0.5,0.2-0.9,0.2-1.4
		c0-0.6-0.1-1.2-0.4-1.8c-0.3-0.6-0.6-1.1-1-1.6c-0.3-0.4-0.7-0.8-1.1-1.2c-0.4-0.4-0.8-0.8-1.3-1.3c-0.3-0.3-0.5-0.6-0.6-0.9
		c-0.2-0.3-0.3-0.6-0.4-0.8c-0.1-0.3-0.1-0.5-0.2-0.8c0-0.3,0-0.5,0-0.7v5c0.3,0,0.6,0,0.9,0.1s0.6,0.2,0.9,0.4
		c0.3,0.2,0.5,0.3,0.8,0.5s0.5,0.4,0.7,0.7c0.4,0.4,0.7,0.9,0.9,1.4c0.2,0.5,0.3,1.1,0.3,1.6c0,0.4,0,0.8-0.1,1.2
		c-0.1,0.4-0.2,0.8-0.4,1.1c-0.1,0.4-0.3,0.7-0.5,1s-0.3,0.6-0.4,0.8L85.3,32.1L85.3,32.1z"/>
	<polyline points="82.1,18.1 82.1,36.2 81.6,36.2 81.6,18.1 	"/>
</g>
<g id="so01">
	<path d="M107.5,24.5c-0.1-0.2-0.3-0.4-0.5-0.6s-0.5-0.3-0.7-0.4c-0.3-0.1-0.6-0.1-0.9-0.1c-0.6,0-1.1,0.1-1.7,0.3
		c-0.6,0.2-1,0.5-1.5,0.8c-0.4,0.3-0.8,0.7-1,1.1c-0.3,0.4-0.4,0.9-0.4,1.3c0,0.3,0.1,0.6,0.2,0.8c0.1,0.2,0.3,0.4,0.5,0.6
		s0.5,0.3,0.7,0.4c0.3,0.1,0.6,0.1,0.9,0.1c0.6,0,1.1-0.1,1.7-0.3c0.5-0.2,1-0.4,1.5-0.8c0.4-0.3,0.8-0.7,1.1-1.1
		c0.3-0.4,0.4-0.9,0.4-1.3C107.7,25,107.6,24.7,107.5,24.5z"/>
	<polyline points="107.7,4.9 107.7,25.5 107.2,25.5 107.2,4.9 	"/>
</g>
<g id="so02">
	<path d="M124.9,24.5c-0.1-0.2-0.3-0.4-0.5-0.6s-0.5-0.3-0.7-0.4c-0.3-0.1-0.6-0.1-0.9-0.1c-0.6,0-1.1,0.1-1.7,0.3
		c-0.6,0.2-1,0.5-1.5,0.8c-0.4,0.3-0.8,0.7-1,1.1c-0.3,0.4-0.4,0.9-0.4,1.3c0,0.3,0.1,0.6,0.2,0.8c0.1,0.2,0.3,0.4,0.5,0.6
		s0.5,0.3,0.7,0.4c0.3,0.1,0.6,0.1,0.9,0.1c0.6,0,1.1-0.1,1.7-0.3c0.5-0.2,1-0.4,1.5-0.8c0.4-0.3,0.8-0.7,1.1-1.1
		c0.3-0.4,0.4-0.9,0.4-1.3C125,25,125,24.7,124.9,24.5z"/>
	<polyline points="125,4.9 125,25.5 124.5,25.5 124.5,4.9 	"/>
</g>
<g id="so03">
	<path d="M142.1,24.5c-0.1-0.2-0.3-0.4-0.5-0.6s-0.5-0.3-0.7-0.4c-0.3-0.1-0.6-0.1-0.9-0.1c-0.6,0-1.1,0.1-1.7,0.3s-1,0.5-1.5,0.8
		c-0.4,0.3-0.8,0.7-1,1.1c-0.3,0.4-0.4,0.9-0.4,1.3c0,0.3,0.1,0.6,0.2,0.8c0.1,0.2,0.3,0.4,0.5,0.6s0.5,0.3,0.7,0.4
		c0.3,0.1,0.6,0.1,0.9,0.1c0.6,0,1.1-0.1,1.7-0.3c0.5-0.2,1-0.4,1.5-0.8c0.4-0.3,0.8-0.7,1.1-1.1s0.4-0.9,0.4-1.3
		C142.3,25,142.3,24.7,142.1,24.5z"/>
	<polyline points="142.3,4.9 142.3,25.5 141.8,25.5 141.8,4.9 	"/>
</g>
<g id="ao04">
	<path d="M159.4,24.5c-0.1-0.2-0.3-0.4-0.5-0.6s-0.5-0.3-0.7-0.4c-0.3-0.1-0.6-0.1-0.9-0.1c-0.6,0-1.1,0.1-1.7,0.3
		c-0.6,0.2-1,0.5-1.5,0.8c-0.4,0.3-0.8,0.7-1,1.1c-0.3,0.4-0.4,0.9-0.4,1.3c0,0.3,0.1,0.6,0.2,0.8c0.1,0.2,0.3,0.4,0.5,0.6
		s0.5,0.3,0.7,0.4c0.3,0.1,0.6,0.1,0.9,0.1c0.6,0,1.1-0.1,1.7-0.3c0.5-0.2,1-0.4,1.5-0.8c0.4-0.3,0.8-0.7,1.1-1.1s0.4-0.9,0.4-1.3
		C159.6,25,159.5,24.7,159.4,24.5z"/>
	<polyline points="159.6,4.9 159.6,25.5 159.1,25.5 159.1,4.9 	"/>
</g>
<g id="do03">
	<path d="M181.9,38.4c-0.5,0.2-1,0.3-1.4,0.3c-0.2,0-0.4,0-0.5-0.1s-0.2-0.2-0.2-0.3s0.1-0.3,0.2-0.5c0.1-0.2,0.2-0.4,0.4-0.6
		c0.2-0.2,0.4-0.4,0.7-0.6c0.3-0.2,0.6-0.4,0.9-0.6c0.6-0.3,1.1-0.6,1.6-0.8s1-0.3,1.4-0.3c0.2,0,0.4,0,0.5,0.1s0.2,0.2,0.2,0.3
		s-0.1,0.3-0.2,0.5s-0.3,0.4-0.4,0.6c-0.2,0.2-0.4,0.4-0.7,0.6c-0.3,0.2-0.6,0.4-0.9,0.6C182.9,38,182.4,38.2,181.9,38.4z
		 M186.1,35.2c-0.1-0.2-0.3-0.4-0.5-0.6c-0.2-0.2-0.5-0.3-0.7-0.4c-0.3-0.1-0.6-0.1-0.9-0.1c-0.6,0-1.1,0.1-1.7,0.3
		c-0.6,0.2-1,0.5-1.5,0.8c-0.4,0.3-0.8,0.7-1,1.1c-0.3,0.4-0.4,0.9-0.4,1.3c0,0.3,0.1,0.6,0.2,0.8c0.1,0.2,0.3,0.4,0.5,0.6
		c0.2,0.2,0.5,0.3,0.7,0.4c0.3,0.1,0.6,0.1,0.9,0.1c0.6,0,1.1-0.1,1.7-0.3c0.5-0.2,1-0.4,1.5-0.8c0.4-0.3,0.8-0.7,1.1-1.1
		c0.3-0.4,0.4-0.9,0.4-1.3C186.2,35.7,186.2,35.4,186.1,35.2z"/>
	<path d="M190,35.1c0.1-0.1,0.3-0.1,0.4-0.2c0.1-0.1,0.2-0.2,0.2-0.4c0.1-0.1,0.1-0.3,0.1-0.4s0-0.3-0.1-0.4
		c-0.1-0.1-0.1-0.3-0.2-0.4c-0.1-0.1-0.2-0.2-0.4-0.2s-0.3-0.1-0.4-0.1c-0.2,0-0.3,0-0.4,0.1s-0.3,0.1-0.4,0.2
		c-0.1,0.1-0.2,0.2-0.2,0.4c-0.1,0.1-0.1,0.3-0.1,0.4s0,0.3,0.1,0.4c0.1,0.1,0.1,0.3,0.2,0.4c0.1,0.1,0.2,0.2,0.4,0.2
		c0.1,0.1,0.3,0.1,0.4,0.1C189.7,35.2,189.8,35.2,190,35.1z"/>
	<polyline points="186.2,18.1 186.2,36.2 185.7,36.2 185.7,18.1 	"/>
</g>
</svg>
