<svg version="1.1" xmlns="http://www.w3.org/2000/svg" xmlns:xlink="http://www.w3.org/1999/xlink" x="0px" y="0px"
	 viewBox="0 0 154.1 54.4" style="enable-background:new 0 0 154.1 54.4;" xml:space="preserve">
<style type="text/css">
	.st0{fill:none;stroke:#000000;stroke-width:0.5;}
	.st1{fill:none;stroke:#16A2C8;stroke-width:0.5;}
	.st2{fill:none;stroke:#000000;stroke-width:0.75;}
	.st3{fill:#FFFFFF;stroke:#000000;stroke-width:0.5;stroke-miterlimit:10;}
	.st4{fill:none;stroke:#F98A10;stroke-width:0.5;stroke-miterlimit:10;}
</style>
<g>
	<g>
		<g>
			<path class="st0" d="M153.1,41.9"/>
			<path class="st0" d="M1.7,41.9"/>
			<path class="st0" d="M152.4,82.5"/>
			<path class="st0" d="M1,82.5"/>
			<path class="st0" d="M153.1,19"/>
			<path class="st0" d="M1.7,19"/>
			<path class="st0" d="M153.1,26.7"/>
			<path class="st0" d="M1.7,26.7"/>
			<path class="st0" d="M153.1,34.3"/>
			<path class="st0" d="M1.7,34.3"/>
		</g>
		<g>
			<line class="st0" x1="1.7" y1="41.9" x2="153.1" y2="41.9"/>
			<line class="st0" x1="1.7" y1="11.4" x2="153.1" y2="11.4"/>
			<line class="st0" x1="1.7" y1="19" x2="153.1" y2="19"/>
			<line class="st0" x1="1.7" y1="26.7" x2="153.1" y2="26.7"/>
			<line class="st1" x1="1.7" y1="34.3" x2="153.1" y2="34.3"/>
		</g>
		<g>
			<line class="st2" x1="1.7" y1="11.4" x2="1.7" y2="41.9"/>
			<line class="st3" x1="153.1" y1="11.4" x2="153.1" y2="42.1"/>
		</g>
		<g>
			<path d="M15.1,49c0,1.4-1.2,2.6-2.6,2.6S9.9,50.5,9.9,49c0-1.4,1.2-2.6,2.6-2.6S15.1,47.6,15.1,49z"/>
			<path d="M10.1,50.1c0.8,2,3,3.4,5.7,3.1c4.3-0.5,5.9-4.7,5.2-9.8c-0.4-3-4-26.3-4.3-30.1c-0.5-6,7.1-13.1,7.1-8
				c0,2.7-1.8,7.2-6,10.9c-3,2.6-10,7.7-10,16.8c0,5.1,4.2,9.1,9.5,9.1c4.7,0,9.5-3.1,9.5-7.9c0-6.2-4.2-8-8-7.7
				c-4.4,0.3-5.7,3.9-5.6,5.9c0.1,1.9,1.5,3.2,2.5,3.9c-1.4-2.5-0.7-6.7,3.2-6.9c3-0.1,5,1.4,5,4.8c0,3.5-2,6.7-6.6,6.7
				c-5.3,0-7.6-4.1-7.6-7.5c0-7.2,7.3-11.7,10.6-15c3.5-3.5,4.3-8.1,4.2-11.9C24.5-4,15,2,15.5,11.9c0.2,4.5,3.9,23.5,4.5,32.1
				c0.1,1.6,0.3,7.9-4.6,8.2c-2,0.1-3.8-1.1-2.9-2.9"/>
		</g>
	</g>
	<g id="g">
		<path d="M107.6,30.6c1.2,1.5,0.6,4-1.4,5.6c-2,1.6-4.6,1.8-5.8,0.3c-1.2-1.5-0.6-4,1.4-5.6C103.8,29.3,106.4,29.1,107.6,30.6z"/>
		<rect x="107.5" y="7.3" width="0.8" height="25.2"/>
	</g>
	<line class="st4" x1="54.7" y1="49" x2="39.6" y2="49"/>
	<g id="c">
		<path d="M50.7,45.7c1.2,1.5,0.6,4-1.4,5.6c-2,1.6-4.6,1.8-5.8,0.3c-1.2-1.5-0.6-4,1.4-5.6C46.9,44.4,49.5,44.3,50.7,45.7z"/>
		<rect x="50.6" y="22.4" width="0.8" height="25.2"/>
	</g>
</g>
</svg>
