<svg version="1.1" id="レイヤー_1" xmlns="http://www.w3.org/2000/svg" xmlns:xlink="http://www.w3.org/1999/xlink" x="0px"
   y="0px" viewBox="0 0 667.4 1116.6" style="enable-background:new 0 0 667.4 1116.6;" xml:space="preserve">
<style type="text/css">
  .st0{fill:#333333;}
  .st1{fill:#ffffff;}
  .st2{fill:#FF7A7A;}
  .st3{fill:#E6E6E6;}
  .st4{fill:#FFFFFF;}
  .st5{fill:url(#SVGID_1_);}
  .st6{clip-path:url(#SVGID_3_);}
  .st7{fill:url(#SVGID_4_);}
  .st8{fill:none;stroke:#333333;stroke-width:12.75;stroke-miterlimit:10;}
  .st9{fill:#222222;}
</style>
<path id="Path_31" class="st0" d="M54.5,8C28.3,8,7,29.3,7,55.5V1063c0,26.2,21.3,47.5,47.5,47.5h441.1c26.2,0,47.5-21.3,47.5-47.5
  V55.5c0-26.2-21.3-47.5-47.5-47.5H54.5z"/>
<g>
  <path id="Path_32" class="st1" d="M513.7,241.1v-80.8c-50.8-11.7-94.3-44.1-120.1-89.4l0,0c-6.1,4.5-13.5,7-21.1,7h-64.2
    C343.2,164.7,421.2,226.7,513.7,241.1z"/>
  <path id="Path_33" class="st2" d="M513.7,155.6V77.9c0-23.9-19.3-43.3-43.2-43.3l0,0h-62.3v7.5c0,9.7-4,19-11,25.7
    C422,112.2,464.3,144,513.7,155.6L513.7,155.6z"/>
  <path id="Path_34" class="st1" d="M213.9,77.8h-40.1c-19.7,0-35.6-16-35.6-35.6v-7.5H79.7c-23.9,0-43.3,19.4-43.3,43.3l0,0v962.6
    c0,23.9,19.3,43.2,43.1,43.2h0.1h390.8c1.8,0,3.6-0.1,5.3-0.3c21.6-2.7,37.9-21.1,37.9-42.9V331.9
    C371.6,315.5,253.2,214.1,213.9,77.8z"/>
  <path id="Path_35" class="st2" d="M303.5,77.8h-84.9C257.7,211.5,374.1,311,513.7,327.4v-81.7C418.7,231.2,338.7,167.2,303.5,77.8
    L303.5,77.8z"/>
</g>
<g>
  <path id="Path_36" class="st3" d="M480,867.2H79c-4.1,0-7.4-3.3-7.4-7.4v-99.5c0-4.1,3.3-7.4,7.4-7.4h401c4.1,0,7.4,3.3,7.4,7.4
    v99.5C487.4,863.9,484.1,867.2,480,867.2z M79,755.8c-2.5,0-4.5,2-4.5,4.5v99.5c0,2.5,2,4.5,4.5,4.5h401c2.5,0,4.5-2,4.5-4.5v-99.5
    c0-2.5-2-4.5-4.5-4.5H79z"/>
  <circle id="Ellipse_4" class="st0" cx="131" cy="810" r="31.2"/>
  <path id="Path_37" class="st3" d="M203,789.2c-2.9,0-5.2,2.3-5.2,5.2s2.3,5.2,5.2,5.2h245c2.9,0,5.2-2.3,5.2-5.2s-2.3-5.2-5.2-5.2
    H203z"/>
  <path id="Path_38" class="st3" d="M203,820.4c-2.9,0-5.2,2.3-5.2,5.2s2.3,5.2,5.2,5.2h245c2.9,0,5.2-2.3,5.2-5.2s-2.3-5.2-5.2-5.2
    H203z"/>
  <path id="Path_43_1_" class="st4" d="M147.7,809.6l-27.1-15.7c-0.4-0.2-0.9-0.1-1.1,0.3c-0.1,0.1-0.1,0.3-0.1,0.4V826
    c0,0.5,0.4,0.8,0.8,0.8c0.1,0,0.3,0,0.4-0.1l27.1-15.7c0.4-0.2,0.5-0.7,0.3-1.1C148,809.8,147.9,809.7,147.7,809.6l-27.1-15.7
    c-0.4-0.2-0.9-0.1-1.1,0.3c-0.1,0.1-0.1,0.3-0.1,0.4V826c0,0.5,0.4,0.8,0.8,0.8c0.1,0,0.3,0,0.4-0.1l27.1-15.7
    c0.4-0.2,0.5-0.7,0.3-1.1C148,809.8,147.9,809.7,147.7,809.6L147.7,809.6z"/>
</g>
<g>
  <path id="Path_39" class="st3" d="M480,1008.5H79c-4.1,0-7.4-3.3-7.4-7.4v-99.5c0-4.1,3.3-7.4,7.4-7.4h401c4.1,0,7.4,3.3,7.4,7.4
    v99.5C487.4,1005.2,484.1,1008.5,480,1008.5z M79,897.2c-2.5,0-4.5,2-4.5,4.5v99.5c0,2.5,2,4.5,4.5,4.5h401c2.5,0,4.5-2,4.5-4.5
    v-99.5c0-2.5-2-4.5-4.5-4.5H79z"/>
  <circle id="Ellipse_5" class="st0" cx="131" cy="951.4" r="31.2"/>
  <path id="Path_40" class="st3" d="M203,930.6c-2.9,0-5.2,2.3-5.2,5.2s2.3,5.2,5.2,5.2h245c2.9,0,5.2-2.3,5.2-5.2s-2.3-5.2-5.2-5.2
    H203z"/>
  <path id="Path_41" class="st3" d="M203,961.8c-2.9,0-5.2,2.3-5.2,5.2s2.3,5.2,5.2,5.2h245c2.9,0,5.2-2.3,5.2-5.2s-2.3-5.2-5.2-5.2
    H203z"/>
  <path id="Path_43_2_" class="st4" d="M147.7,949.6l-27.1-15.7c-0.4-0.2-0.9-0.1-1.1,0.3c-0.1,0.1-0.1,0.3-0.1,0.4V966
    c0,0.5,0.4,0.8,0.8,0.8c0.1,0,0.3,0,0.4-0.1l27.1-15.7c0.4-0.2,0.5-0.7,0.3-1.1C148,949.8,147.9,949.7,147.7,949.6l-27.1-15.7
    c-0.4-0.2-0.9-0.1-1.1,0.3c-0.1,0.1-0.1,0.3-0.1,0.4V966c0,0.5,0.4,0.8,0.8,0.8c0.1,0,0.3,0,0.4-0.1l27.1-15.7
    c0.4-0.2,0.5-0.7,0.3-1.1C148,949.8,147.9,949.7,147.7,949.6L147.7,949.6z"/>
</g>
<g>
  <circle id="Ellipse_4_2_" class="st0" cx="135" cy="658" r="31.2"/>
  <g>
    <path id="Path_37_2_" class="st4" d="M148.7,645.9c0-2.9-2.3-5.2-5.2-5.2s-5.2,2.3-5.2,5.2v24c0,2.9,2.3,5.2,5.2,5.2
      s5.2-2.3,5.2-5.2V645.9z"/>
    <path id="Path_37_3_" class="st4" d="M130.7,645.9c0-2.9-2.3-5.2-5.2-5.2s-5.2,2.3-5.2,5.2v24c0,2.9,2.3,5.2,5.2,5.2
      s5.2-2.3,5.2-5.2V645.9z"/>
  </g>
  <path id="Path_37_1_" class="st3" d="M207,653.2c-2.9,0-5.2,2.3-5.2,5.2s2.3,5.2,5.2,5.2h245c2.9,0,5.2-2.3,5.2-5.2
    s-2.3-5.2-5.2-5.2H207z"/>
  <circle id="play01" class="st0" cx="202" cy="658" r="14.4"/>
</g>
<g id="artist">

    <linearGradient id="SVGID_1_" gradientUnits="userSpaceOnUse" x1="164.8742" y1="548.6742" x2="384.9258" y2="768.7258" gradientTransform="matrix(1 0 0 -1 0 1118)">
    <stop  offset="0" style="stop-color:#FF7A7A"/>
    <stop  offset="1" style="stop-color:#FF0000"/>
  </linearGradient>
  <circle class="st5" cx="274.9" cy="459.3" r="155.6"/>
  <g>
    <g>
      <defs>
        <circle id="SVGID_2_" cx="274.9" cy="459.3" r="147.5"/>
      </defs>
      <clipPath id="SVGID_3_">
        <use xlink:href="#SVGID_2_"  style="overflow:visible;"/>
      </clipPath>
      <g id="_x36_00x600" class="st6">

          <linearGradient id="SVGID_4_" gradientUnits="userSpaceOnUse" x1="100.5264" y1="617.75" x2="387.666" y2="617.75" gradientTransform="matrix(1 0 0 -1 0 1118)">
          <stop  offset="0" style="stop-color:#FF7A7A"/>
          <stop  offset="1" style="stop-color:#FF0000"/>
        </linearGradient>
        <path class="st7" d="M382.8,506.9L382.8,506.9c-7.6-9.2-21.2-10.5-30.4-2.9l-5.7,4.7c0.8-7.2,1.2-13.9,1.2-20
          c0-21.4-6-45-16.1-66.2c13.4-4.3,22.9-17.1,22.4-32c-0.6-17.2-14.7-31.1-31.9-31.4c-11.5-0.2-21.7,5.6-27.6,14.5
          c-11.6-9.1-19.9-12.2-37.8-13.1c-12.1-0.6-25.6,0.4-39.1,4.5c-3.2-14.6-16.2-25.5-31.8-25.5c-17.5,0-32,14.2-32.4,31.7
          c-0.2,10.4,4.4,19.6,11.7,25.7c-16.9,18.3-28.5,44.2-28.5,79.4c0,87.8-70.1,184.7-15.4,184.7H259c30.8,0,57.8-20.6,66-50.3
          c3.1-11.2,6.3-23.6,9.4-36.3l45.4-37.3C389,529.7,390.3,516.1,382.8,506.9z"/>
        <g>
          <path class="st4" d="M369.4,495.1l0.1-0.1c-1.5-1.8-3.6-2.9-5.4-4.1c-1.9-1.2-4-2-6.2-2.6s-4.4-0.9-6.6-0.8s-4.2,1.1-6.4,2
            c-2.1,0.8-4.6,0.9-6.4,2.4c-2.8,2.3-1.9,3.9-5.2,5.3c0.2-2.3,0.6-4.8,0.8-6.9c0.2-2.3,0.2-4.5,0.3-6.7c0.1-2.3-0.4-4.5-0.4-6.7
            c0-2.3,0.9-4.6,0.7-6.9c-0.1-2.3-0.1-4.6-0.4-6.9c-0.2-2.3-1-4.5-1.4-6.8c-0.4-2.2-0.8-4.5-1.3-6.8c-0.5-2.2-0.5-4.6-1-6.8
            c-0.6-2.2-1.8-4.2-2.5-6.5c-0.6-2.2-1.8-4.2-2.5-6.4c-0.7-2.2-1.3-4.4-2.1-6.5c-0.8-2.1-2.1-4.1-3-6.2s-0.8-4.3-1.8-6.4
            c2.2-0.7,3.8-2.1,5.8-3.3c2-1.2,4.5-1.8,6.2-3.4s3.3-3.5,4.7-5.4c1.3-1.9,1.3-4.6,2.2-6.8c0.9-2.1,1.6-4.2,2-6.5
            c0.4-2.2,1.1-4.5,1-6.8c-0.1-2.4,0.4-4.9-0.2-7.1c-0.6-2.3-2.2-4.3-3.3-6.3c-1.1-2.1-2.6-3.9-4.1-5.7c-1.5-1.8-2.8-3.8-4.6-5.3
            c-1.8-1.5-3.6-3.2-5.8-4.2c-2.1-1-4.5-1.7-6.8-2.2c-2.2-0.5-4.7-0.7-7.1-0.7c-2.2,0-4.4,0.3-6.5,0.7c-2.2,0.4-4.5,0.5-6.5,1.3
            s-3.4,2.9-5.2,4c-1.8,1.2-3.9,2.1-5.4,3.6s-2.8,2.7-4.1,4.5c-1.9-1.5-3.4-2.5-5.2-3.7c-2-1.3-3.8-2.8-5.8-3.8s-4.3-1.4-6.5-2.2
            c-2.1-0.7-4.4-0.4-6.8-0.9c-2.1-0.4-4.2-1.5-6.6-1.7c-2.1-0.2-4.4-0.1-6.8-0.2c-2.2-0.1-4.3,0-6.6,0c-2.2,0-4.3,0.5-6.6,0.6
            c-2.2,0.1-4.4-0.2-6.6,0.1c-2.2,0.2-4.4,0.3-6.6,0.7c-2.1,0.4-4.4,0.6-6.5,1.1s-4.2,1.3-6.3,1.9c-0.5-2.1-1-4.1-1.8-6
            s-2.5-3.4-3.6-5.1c-1.2-1.7-2.3-3.5-3.8-4.9c-1.5-1.5-3.3-2.4-5-3.6c-1.7-1.1-3.1-3.1-5-3.9s-4.1-0.9-6.2-1.3
            c-2-0.4-4.1-1.2-6.3-1.2c-2.4,0-4.8,0.9-7.1,1.4c-2.4,0.5-4.4,1.8-6.5,2.8c-2.2,1-4.5,1.8-6.3,3.3c-1.9,1.5-3.9,2.9-5.5,4.7
            c-1.5,1.8-2.8,4-3.9,6.1c-1.1,2.1-2.1,4.4-2.7,6.8c-0.6,2.3-0.8,4.8-0.9,7.2c-0.1,2.5,0.4,5,0.9,7.3c0.5,2.4,2.1,4.4,3.1,6.6
            s1.3,4.9,2.8,6.8s2.9,3.5,4.8,5.1c-1.5,1.6-1.8,3.6-3.2,5.4c-1.4,1.7-3.8,2.7-5.1,4.5s-1.5,4.3-2.6,6.2
            c-1.1,1.9-3.3,3.2-4.3,5.2c-1,1.9-2,4-2.9,6s-0.7,4.5-1.5,6.6c-0.8,2-2.1,3.9-2.7,6.1c-0.6,2.1-1.3,4.2-1.8,6.4
            c-0.5,2.1-1,4.3-1.4,6.5c-0.4,2.1-0.6,4.4-0.9,6.6s-1,4.3-1.2,6.6c-0.2,2.2,0.2,4.4,0.1,6.7c-0.1,2.2,0.4,4.4,0.4,6.6
            s-0.3,4.5-0.4,6.8c-0.1,2.2,0,4.5-0.2,6.8c-0.2,2.2-0.9,4.4-1.2,6.7c-0.2,2.2,0.1,4.6-0.2,6.8c-0.3,2.2-1.8,4.3-2.1,6.5
            c-0.4,2.2-0.1,4.6-0.5,6.8c-0.4,2.2-1.1,4.4-1.5,6.6c-0.5,2.2-0.7,4.5-1.2,6.7s-1.5,4.3-2,6.5c-0.6,2.2-1.1,4.4-1.6,6.5
            c-0.6,2.2-1,4.4-1.6,6.6c-0.6,2.2-1.7,4.2-2.3,6.4c-0.6,2.2-1.4,4.3-2.1,6.4c-0.7,2.2-1.2,4.3-1.9,6.5c-0.7,2.2-1.3,4.3-2,6.4
            c-0.7,2.2-0.4,4.6-1.1,6.7c-0.7,2.2-2,4.1-2.7,6.2c-0.7,2.2-1.2,4.4-1.9,6.5c-0.7,2.2-1.7,4.2-2.3,6.4
            c-0.7,2.2-0.5,4.6-1.2,6.7c-0.6,2.2-1.6,4.3-2.2,6.4c-0.6,2.2-1.1,4.4-1.6,6.6c-0.5,2.3-0.5,4.6-0.9,6.7
            c-0.4,2.3-1.3,4.5-1.6,6.6c-0.3,2.4-1.1,4.6-1.1,6.7c0,2.4,0.7,4.7,1.1,6.7c0.5,2.4,1.8,4.2,2.9,6c1.2,1.9,2.4,3.9,4.4,5.1
            c1.8,1,4,1.6,6.4,2.1c2,0.4,4.2,0.3,6.7,0.3c3.4,0,3.4,0.6,6.9,0.6c3.4,0,3.4-0.1,6.9-0.1c3.4,0,3.4-0.7,6.9-0.7
            c3.4,0,3.4-0.3,6.9-0.3c3.4,0,3.4,0.6,6.9,0.6c3.4,0,3.4-0.4,6.9-0.4c3.4,0,3.4,0.7,6.9,0.7c3.4,0,3.4-0.6,6.9-0.6
            c3.4,0,3.4,0.9,6.9,0.9c3.4,0,3.4,0,6.9,0c3.4,0,3.4-0.3,6.9-0.3c3.4,0,3.4-0.5,6.9-0.5c3.4,0,3.4,0.5,6.9,0.5
            c3.4,0,3.4-0.5,6.9-0.5c3.4,0,3.4,0.3,6.9,0.3c3.4,0,3.4,0.1,6.9,0.1c3.4,0,3.4-0.3,6.9-0.3c3.4,0,3.4,0.6,6.9,0.6
            c3.4,0,3.4-0.7,6.9-0.7s3.4,0.6,6.9,0.6c2.3,0,4.6,0.2,6.9,0c2.3-0.2,4.6-0.7,6.8-1.1c2.3-0.5,4.2-2,6.4-2.7
            c2.2-0.7,4.5-1,6.6-1.9s4.5-1.2,6.5-2.3s4-2.4,5.8-3.7c1.9-1.3,3.2-3.3,5-4.8c1.7-1.5,3.7-2.8,5.3-4.4c1.6-1.6,2.6-3.8,4-5.6
            s3.1-3.4,4.3-5.3c1.2-1.9,2.3-3.9,3.3-6c1-2,1.6-4.2,2.4-6.4c0.8-2.1,2.7-3.9,3.3-6.1c0.5-2-0.1-4.3,0.4-6.4
            c0.5-2,1.8-3.8,2.3-5.8s1.3-3.9,1.9-6c0.5-2,0.7-4.1,1.3-6.1c0.5-2,0.3-4.2,0.8-6.2s2.1-3.5,2.6-5.5c2.2-2.4,2.4-2.1,4.9-4.1
            c2.5-2.1,1.8-3,4.3-5c2.5-2.1,2.9-1.6,5.4-3.7c2.5-2.1,2.3-2.4,4.8-4.4c2.5-2.1,3-1.5,5.5-3.6s2.7-1.9,5.2-3.9
            c2.5-2.1,2.3-2.4,4.8-4.4c2.5-2.1,2.2-2.5,4.7-4.6s2.8-1.8,5.3-3.8c1.8-1.5,2.6-3.7,3.8-5.5c1.2-1.9,2.9-3.6,3.4-5.8
            c0.6-2.2,1.1-4.5,1-6.8c-0.1-2.2-1.4-4.3-2.2-6.5C371.7,499,370.9,496.8,369.4,495.1z"/>
          <path class="st8" d="M369.4,495.1l0.1-0.1c-1.5-1.8-3.6-2.9-5.4-4.1c-1.9-1.2-4-2-6.2-2.6s-4.4-0.9-6.6-0.8s-4.2,1.1-6.4,2
            c-2.1,0.8-4.6,0.9-6.4,2.4c-2.8,2.3-1.9,3.9-5.2,5.3c0.2-2.3,0.6-4.8,0.8-6.9c0.2-2.3,0.2-4.5,0.3-6.7c0.1-2.3-0.4-4.5-0.4-6.7
            c0-2.3,0.9-4.6,0.7-6.9c-0.1-2.3-0.1-4.6-0.4-6.9c-0.2-2.3-1-4.5-1.4-6.8c-0.4-2.2-0.8-4.5-1.3-6.8c-0.5-2.2-0.5-4.6-1-6.8
            c-0.6-2.2-1.8-4.2-2.5-6.5c-0.6-2.2-1.8-4.2-2.5-6.4c-0.7-2.2-1.3-4.4-2.1-6.5c-0.8-2.1-2.1-4.1-3-6.2s-0.8-4.3-1.8-6.4
            c2.2-0.7,3.8-2.1,5.8-3.3c2-1.2,4.5-1.8,6.2-3.4s3.3-3.5,4.7-5.4c1.3-1.9,1.3-4.6,2.2-6.8c0.9-2.1,1.6-4.2,2-6.5
            c0.4-2.2,1.1-4.5,1-6.8c-0.1-2.4,0.4-4.9-0.2-7.1c-0.6-2.3-2.2-4.3-3.3-6.3c-1.1-2.1-2.6-3.9-4.1-5.7c-1.5-1.8-2.8-3.8-4.6-5.3
            c-1.8-1.5-3.6-3.2-5.8-4.2c-2.1-1-4.5-1.7-6.8-2.2c-2.2-0.5-4.7-0.7-7.1-0.7c-2.2,0-4.4,0.3-6.5,0.7c-2.2,0.4-4.5,0.5-6.5,1.3
            s-3.4,2.9-5.2,4c-1.8,1.2-3.9,2.1-5.4,3.6s-2.8,2.7-4.1,4.5c-1.9-1.5-3.4-2.5-5.2-3.7c-2-1.3-3.8-2.8-5.8-3.8s-4.3-1.4-6.5-2.2
            c-2.1-0.7-4.4-0.4-6.8-0.9c-2.1-0.4-4.2-1.5-6.6-1.7c-2.1-0.2-4.4-0.1-6.8-0.2c-2.2-0.1-4.3,0-6.6,0c-2.2,0-4.3,0.5-6.6,0.6
            c-2.2,0.1-4.4-0.2-6.6,0.1c-2.2,0.2-4.4,0.3-6.6,0.7c-2.1,0.4-4.4,0.6-6.5,1.1s-4.2,1.3-6.3,1.9c-0.5-2.1-1-4.1-1.8-6
            s-2.5-3.4-3.6-5.1c-1.2-1.7-2.3-3.5-3.8-4.9c-1.5-1.5-3.3-2.4-5-3.6c-1.7-1.1-3.1-3.1-5-3.9s-4.1-0.9-6.2-1.3
            c-2-0.4-4.1-1.2-6.3-1.2c-2.4,0-4.8,0.9-7.1,1.4c-2.4,0.5-4.4,1.8-6.5,2.8c-2.2,1-4.5,1.8-6.3,3.3c-1.9,1.5-3.9,2.9-5.5,4.7
            c-1.5,1.8-2.8,4-3.9,6.1c-1.1,2.1-2.1,4.4-2.7,6.8c-0.6,2.3-0.8,4.8-0.9,7.2c-0.1,2.5,0.4,5,0.9,7.3c0.5,2.4,2.1,4.4,3.1,6.6
            s1.3,4.9,2.8,6.8s2.9,3.5,4.8,5.1c-1.5,1.6-1.8,3.6-3.2,5.4c-1.4,1.7-3.8,2.7-5.1,4.5s-1.5,4.3-2.6,6.2
            c-1.1,1.9-3.3,3.2-4.3,5.2c-1,1.9-2,4-2.9,6s-0.7,4.5-1.5,6.6c-0.8,2-2.1,3.9-2.7,6.1c-0.6,2.1-1.3,4.2-1.8,6.4
            c-0.5,2.1-1,4.3-1.4,6.5c-0.4,2.1-0.6,4.4-0.9,6.6s-1,4.3-1.2,6.6c-0.2,2.2,0.2,4.4,0.1,6.7c-0.1,2.2,0.4,4.4,0.4,6.6
            s-0.3,4.5-0.4,6.8c-0.1,2.2,0,4.5-0.2,6.8c-0.2,2.2-0.9,4.4-1.2,6.7c-0.2,2.2,0.1,4.6-0.2,6.8c-0.3,2.2-1.8,4.3-2.1,6.5
            c-0.4,2.2-0.1,4.6-0.5,6.8c-0.4,2.2-1.1,4.4-1.5,6.6c-0.5,2.2-0.7,4.5-1.2,6.7s-1.5,4.3-2,6.5c-0.6,2.2-1.1,4.4-1.6,6.5
            c-0.6,2.2-1,4.4-1.6,6.6c-0.6,2.2-1.7,4.2-2.3,6.4c-0.6,2.2-1.4,4.3-2.1,6.4c-0.7,2.2-1.2,4.3-1.9,6.5c-0.7,2.2-1.3,4.3-2,6.4
            c-0.7,2.2-0.4,4.6-1.1,6.7c-0.7,2.2-2,4.1-2.7,6.2c-0.7,2.2-1.2,4.4-1.9,6.5c-0.7,2.2-1.7,4.2-2.3,6.4
            c-0.7,2.2-0.5,4.6-1.2,6.7c-0.6,2.2-1.6,4.3-2.2,6.4c-0.6,2.2-1.1,4.4-1.6,6.6c-0.5,2.3-0.5,4.6-0.9,6.7
            c-0.4,2.3-1.3,4.5-1.6,6.6c-0.3,2.4-1.1,4.6-1.1,6.7c0,2.4,0.7,4.7,1.1,6.7c0.5,2.4,1.8,4.2,2.9,6c1.2,1.9,2.4,3.9,4.4,5.1
            c1.8,1,4,1.6,6.4,2.1c2,0.4,4.2,0.3,6.7,0.3c3.4,0,3.4,0.6,6.9,0.6c3.4,0,3.4-0.1,6.9-0.1c3.4,0,3.4-0.7,6.9-0.7
            c3.4,0,3.4-0.3,6.9-0.3c3.4,0,3.4,0.6,6.9,0.6c3.4,0,3.4-0.4,6.9-0.4c3.4,0,3.4,0.7,6.9,0.7c3.4,0,3.4-0.6,6.9-0.6
            c3.4,0,3.4,0.9,6.9,0.9c3.4,0,3.4,0,6.9,0c3.4,0,3.4-0.3,6.9-0.3c3.4,0,3.4-0.5,6.9-0.5c3.4,0,3.4,0.5,6.9,0.5
            c3.4,0,3.4-0.5,6.9-0.5c3.4,0,3.4,0.3,6.9,0.3c3.4,0,3.4,0.1,6.9,0.1c3.4,0,3.4-0.3,6.9-0.3c3.4,0,3.4,0.6,6.9,0.6
            c3.4,0,3.4-0.7,6.9-0.7s3.4,0.6,6.9,0.6c2.3,0,4.6,0.2,6.9,0c2.3-0.2,4.6-0.7,6.8-1.1c2.3-0.5,4.2-2,6.4-2.7
            c2.2-0.7,4.5-1,6.6-1.9s4.5-1.2,6.5-2.3s4-2.4,5.8-3.7c1.9-1.3,3.2-3.3,5-4.8c1.7-1.5,3.7-2.8,5.3-4.4c1.6-1.6,2.6-3.8,4-5.6
            s3.1-3.4,4.3-5.3c1.2-1.9,2.3-3.9,3.3-6c1-2,1.6-4.2,2.4-6.4c0.8-2.1,2.7-3.9,3.3-6.1c0.5-2-0.1-4.3,0.4-6.4
            c0.5-2,1.8-3.8,2.3-5.8s1.3-3.9,1.9-6c0.5-2,0.7-4.1,1.3-6.1c0.5-2,0.3-4.2,0.8-6.2s2.1-3.5,2.6-5.5c2.2-2.4,2.4-2.1,4.9-4.1
            c2.5-2.1,1.8-3,4.3-5c2.5-2.1,2.9-1.6,5.4-3.7c2.5-2.1,2.3-2.4,4.8-4.4c2.5-2.1,3-1.5,5.5-3.6s2.7-1.9,5.2-3.9
            c2.5-2.1,2.3-2.4,4.8-4.4c2.5-2.1,2.2-2.5,4.7-4.6s2.8-1.8,5.3-3.8c1.8-1.5,2.6-3.7,3.8-5.5c1.2-1.9,2.9-3.6,3.4-5.8
            c0.6-2.2,1.1-4.5,1-6.8c-0.1-2.2-1.4-4.3-2.2-6.5C371.7,499,370.9,496.8,369.4,495.1z"/>
        </g>
        <g>
          <path class="st0" d="M320.9,384.5c0-2.6-0.5-5.1-1.7-7.2s-3.2-3.8-5.4-5.1c-2.1-1.2-4.5-2-7.1-2c-2.2,0-4,1.2-5.9,2.1
            s-3.6,1.8-4.9,3.4c1.5,1.7,3.2,3.1,4.6,4.9s1.8,4.3,3.2,6.1c1.3,1.8,3,3.4,4.2,5.3s2.2,4.4,3.3,6.4c1.8-0.7,3.8-2.2,5.2-3.5
            c1.4-1.3,2.1-3.1,2.8-4.9C320,388.2,320.9,386.5,320.9,384.5z"/>
        </g>
        <g>
          <path class="st0" d="M172.6,346.6c-2.6,0-4.7,2-6.7,3.2c-2.1,1.2-3.7,2.8-5,4.9c-1.2,2.1-2.3,4.2-2.3,6.8c0,2.4-0.1,5.1,1,7.1
            c1.1,2.1,3.4,3.4,5.4,4.6c1.7-1.3,3.2-2.8,4.9-4c1.8-1.2,3.9-1.9,5.7-3s3.9-1.7,5.8-2.7c1.9-1,3.8-2.3,5.7-3.2
            c-0.2-2.4-1.2-4.9-2.5-6.7c-1.3-1.9-3.2-3.5-5.2-4.6C177.3,347.9,175,346.6,172.6,346.6z"/>
        </g>
        <g>
          <path class="st0" d="M256.6,508.2c-3.5-0.6-3.4-1.3-6.9-1.9s-3.7,0.8-7.2,0.2c-3.5-0.6-3.4-1.1-6.9-1.7s-3.4-1.4-6.8-2
            c-3.5-0.6-3.6,0-7.1-0.6s-3.6,0-7.1-0.6s-3.3-1.5-6.8-2.1s-3.7,0.6-7.2,0s-3.3-1.7-6.8-2.3c-2.8-0.5-5-2.8-4.5-5.6
            c0.5-2.8,3.3-4.6,6.1-4.1c3.5,0.6,3.5,0.6,7,1.2s3.5,0.3,7,0.9s3.4,1.4,6.9,2s3.6-0.3,7.1,0.3c3.5,0.6,3.4,1.2,6.9,1.8
            c3.5,0.6,3.5,0.7,7,1.3c3.5,0.6,3.4,0.9,6.9,1.5s3.5,0.4,7,1s3.6,0.1,7.1,0.7c2.8,0.5,4.4,3.1,3.9,5.8
            C261.7,506.8,259.4,508.7,256.6,508.2z"/>
        </g>
        <g>
          <path class="st0" d="M295,420.5c-2.3-0.4-4.6-0.4-6.9-0.6c-2.4-0.2-4.6-0.4-6.9-0.3c-2.4,0.1-4.8-0.5-7,0
            c-2.3,0.5-4.4,1.8-6.5,2.8s-3.7,2.8-5.4,4.2c-1.7,1.5-4.1,2.5-5.4,4.4c-1.2,1.8-1.7,4.6-2.5,6.9c-3.6,0.5-3.6-1.2-7.2-1.8
            c-3.6-0.6-3.7,0.2-7.3-0.4s-3.4-1.6-7-2.3c-3.6-0.6-4.2,1.2-7.4-0.5c0.4-2.3,1.4-4.8,1.2-6.9c-0.1-2.3-1-4.4-1.7-6.5
            s-1.3-4.3-2.5-6.2c-1.2-1.8-2.7-3.6-4.3-5.1c-1.5-1.5-3.3-2.9-5.2-4.1c-1.8-1.1-4-1.7-6.1-2.6c-1.9-0.9-4.1-1.2-6.3-1.8
            c-2-0.6-4.2-0.8-6.4-1.2c-2.2-0.4-4.4-0.8-6.6-0.9c-2.3-0.2-4.4-0.5-6.6-0.4c-2.3,0.1-4.7-0.7-6.8-0.3
            c-2.3,0.5-4.5,1.2-6.5,2.1c-2.1,0.9-3.7,2.7-5.5,4s-2.9,3.2-4.3,5c-1.3,1.7-2.9,3.3-3.8,5.4c-0.8,2-1.4,4.1-1.8,6.4
            c-0.4,2.2-1.3,4.3-1.4,6.4c0,2.2,0.3,4.4,0.6,6.5s1.5,4.1,2.2,6.1s1.1,4.3,2.2,6.2c1.1,1.9,2.3,3.8,3.6,5.4
            c1.4,1.7,3.6,2.6,5.2,4c1.6,1.4,2.8,3.4,4.7,4.6c1.8,1.1,3.9,1.9,6,2.7c2,0.8,4.3,0.6,6.4,1.1c2.3,0.4,4.6,0.5,6.9,0.5
            c2.4,0,4.7,0.4,7,0s4.8-0.5,7-1.3c2.2-0.9,4.4-2,6.3-3.3c2-1.3,3.4-3.3,5.1-4.9c1.7-1.6,3.1-3.4,4.5-5.3s2.8-3.4,3.8-5.6
            c3.8-0.4,3.6,0.5,7.4,1.1c3.7,0.6,3.8,0.4,7.5,1s3.6,1.1,7.4,1.7c3.7,0.6,4-0.6,7.4,1c-0.1,2.2,0.2,4.2,0.5,6.4
            c0.3,2.2,1.2,4.2,1.9,6.3c0.7,2.1,1.4,4.1,2.4,6.1c1,2,1.7,4.1,3.1,5.9c1.4,1.7,3,3.2,4.7,4.7c1.6,1.5,3.8,2.2,5.7,3.4
            c1.9,1.1,3.4,2.9,5.5,3.7c2,0.8,4.4,0.5,6.6,1c2.2,0.4,4.2,1.2,6.3,1.2c2.2,0,4.3-0.5,6.4-0.8s4.4-0.1,6.5-0.8
            c2-0.7,3.6-2.5,5.5-3.6s4.4-1.2,6-2.6c1.7-1.4,2.7-3.5,4.1-5.1s2.9-3.2,4-5.1c1.1-1.8,2.7-3.5,3.5-5.6c0.8-2,0.2-4.4,0.6-6.6
            c0.4-2.3,1.6-4.5,1.5-6.6c0-2.3-1.3-4.4-1.9-6.5c-0.6-2.2-1.3-4.2-2.4-6.1s-1.9-4.1-3.5-5.7c-1.5-1.5-3.7-2.4-5.7-3.6
            c-1.8-1.2-3.4-3.1-5.5-4c-2-0.9-4.3-1.1-6.5-1.7C299.4,421.3,297.2,420.9,295,420.5z"/>
        </g>
      </g>
    </g>
  </g>
</g>
<g id="my-baer">
  <g>
    <g>
      <path class="st4" d="M460.3,881.8c-16.4,0-29.8-13.3-29.8-29.8s13.3-29.8,29.8-29.8s29.8,13.3,29.8,29.8S476.7,881.8,460.3,881.8
        z"/>
      <path class="st0" d="M460.3,827.3c13.7,0,24.8,11.1,24.8,24.8s-11.1,24.8-24.8,24.8c-13.7,0-24.8-11.1-24.8-24.8
        S446.6,827.3,460.3,827.3 M460.3,817.3c-19.2,0-34.8,15.6-34.8,34.8s15.6,34.8,34.8,34.8s34.8-15.6,34.8-34.8
        C495,832.9,479.5,817.3,460.3,817.3L460.3,817.3z"/>
    </g>
  </g>
  <g>
    <g>
      <path class="st4" d="M587.6,876.6c-16.4,0-29.8-13.3-29.8-29.8s13.3-29.8,29.8-29.8s29.8,13.3,29.8,29.8S604,876.6,587.6,876.6z"
        />
      <path class="st0" d="M587.6,822.1c13.7,0,24.8,11.1,24.8,24.8s-11.1,24.8-24.8,24.8s-24.8-11.1-24.8-24.8
        S573.9,822.1,587.6,822.1 M587.6,812.1c-19.2,0-34.8,15.6-34.8,34.8s15.6,34.8,34.8,34.8s34.8-15.6,34.8-34.8
        C622.3,827.7,606.8,812.1,587.6,812.1L587.6,812.1z"/>
    </g>
  </g>
  <g id="baer-leg">
    <path class="st4" d="M384.4,964.2c-5.7-7.8-4.1-18.7,3.7-24.5c3-2.2,6.6-3.4,10.4-3.4c5.6,0,10.8,2.6,14.1,7.1l42.3,57.3
      l-28.1,20.8L384.4,964.2z"/>
    <path class="st0" d="M398.4,931.3v10c4,0,7.7,1.8,10.1,5.1l39.3,53.2l-20.1,14.8l-39.3-53.2c-2-2.7-2.8-6-2.3-9.3s2.2-6.2,4.9-8.2
      c2.2-1.6,4.7-2.4,7.4-2.4V931.3 M398.4,931.3c-4.6,0-9.3,1.4-13.3,4.4l0,0c-10,7.4-12.1,21.5-4.7,31.5l45.3,61.3l36.2-26.7
      l-45.3-61.3C412.1,934.5,405.3,931.3,398.4,931.3L398.4,931.3z"/>
  </g>
  <g>
    <path class="st4" d="M605.8,1104.9c-0.1,0-0.3,0-0.4,0c-0.3,0-0.7-0.1-1-0.1c-41.9-10.2-84.7-19.7-114.5-19.7
      c-22.3,0-34.3,5.2-36.8,15.8c-0.5,2.3-2.6,3.9-4.9,3.9c-0.1,0-0.2,0-0.3,0c-8.9-0.6-16.8-15.6-23.3-44.7
      c-6.2-27.4-9.1-60.5-8.2-90.6c1.3-40,9.4-73.9,23.3-98.2c17.7-30.9,44.4-46.6,79.4-46.6c40.8,0,71.7,12.4,91.9,37
      c15.7,19,24.7,45.8,26.2,77.4c0.9,19.7-1.3,35.4-2.2,40.5l19.4,38.3c2.3,4.5,2.7,9.7,1.1,14.5c-1.6,4.8-4.9,8.7-9.5,11
      c-2.6,1.3-5.6,2-8.6,2c-1.6,0-3.1-0.2-4.6-0.6C630.2,1063.5,622.6,1104.9,605.8,1104.9z"/>
    <path class="st0" d="M519,829.7c140.4,0,110.7,150.7,110.7,150.7l20.2,39.8c3.5,6.9,0.7,15.3-6.1,18.8l0,0c-2,1-4.2,1.5-6.3,1.5
      c-3.2,0-6.3-1.1-8.8-3.1c-3.9,36.3-13.6,62.5-22.9,62.5c-0.1,0-0.1,0-0.2,0c-44.4-10.8-86.3-19.8-115.7-19.8
      c-22.9,0-38.4,5.4-41.7,19.6C423.1,1098.1,378.7,829.7,519,829.7 M519,819.7c-19.1,0-36.1,4.6-50.7,13.7
      c-13.2,8.2-24.3,20.1-33,35.4c-18.1,31.6-23,72.1-24,100.5c-1,30.5,2,64,8.3,91.8c9.6,42.6,20.5,48.1,27.9,48.6c0.2,0,0.4,0,0.7,0
      c4.6,0,8.7-3.2,9.7-7.7c0.6-2.5,2-5.7,7.8-8.3c5.5-2.4,13.6-3.6,24.2-3.6c29.3,0,71.8,9.4,113.4,19.5c0.6,0.2,1.3,0.2,1.9,0.3
      c0.2,0,0.4,0,0.7,0c13.9,0,20.6-18.2,22.8-24.2c3.5-9.5,6.4-21.7,8.4-35.3c0.1,0,0.2,0,0.4,0c3.7,0,7.5-0.9,10.8-2.6
      c5.7-2.9,10-7.8,11.9-13.9c2-6.1,1.5-12.6-1.4-18.3l-18.7-36.8c1-6.6,2.8-21.6,2-39.9c-1.5-32.7-11-60.5-27.3-80.4
      C593.6,832.7,561.4,819.7,519,819.7L519,819.7z"/>
  </g>
  <g>
    <path class="st9" d="M430.1,864.6c22.5,0,40.9,7.3,44.3,27.1h23.3c3.5-19.8,22.4-27.1,44.9-27.1c24.9,0,44.8,9,44.8,33.9
      s-20.2,45.1-45.1,45.1c-22.3,0-40.8-16.2-44.5-37.4v-0.4h-23.5v0.4c-3.6,21.3-22.2,37.4-44.5,37.4c-24.9,0-45.1-20.2-45.1-45.1
      S405.2,864.6,430.1,864.6z"/>
  </g>
  <g>
    <circle class="st9" cx="478.6" cy="956" r="11.8"/>
  </g>
</g>
</svg>
