<svg version="1.1" id="drums-score" xmlns="http://www.w3.org/2000/svg" xmlns:xlink="http://www.w3.org/1999/xlink" x="0px"
   y="0px" viewBox="0 0 477 180.4" style="enable-background:new 0 0 477 180.4;" xml:space="preserve">
<style type="text/css">
  .st0{fill:none;stroke:#000000;stroke-width:0.5;}
  .st1{fill:none;stroke:#000000;stroke-miterlimit:10;}
  .st2{fill:#FF5B5B;stroke:#000000;stroke-width:0.5;stroke-miterlimit:10;}
  .st3{fill:#CCCCCC;stroke:#000000;stroke-width:0.5;stroke-miterlimit:10;}
  .st4{fill:#EEEEEE;stroke:#000000;stroke-width:0.5;stroke-miterlimit:10;}
  .st5{fill:#4D4D4D;stroke:#000000;stroke-width:0.5;stroke-miterlimit:10;}
  .st6{fill:#333333;stroke:#000000;stroke-width:0.5;stroke-miterlimit:10;}
  .st7{fill:#CCCCCC;stroke:#000000;stroke-width:0.5;stroke-miterlimit:9.9997;}
  .st8{fill:#FFFF33;stroke:#000000;stroke-width:0.5;stroke-miterlimit:10;}
  .st9{fill:#222222;stroke:#000000;stroke-width:0.5;stroke-miterlimit:10;}
  .st10{fill:none;stroke:#000000;stroke-width:0.5;stroke-miterlimit:10;}
</style>
<g id="notes02">
  <path d="M87.5,117.6c0-20.4-13.9-26.4-26.2-25.4c-0.4,0-0.7,0.1-1.1,0.1c-1-6.5-1.9-12.8-2.7-18.6c3.4-2.9,6.5-5.6,8.9-8
    c11.4-11.4,14-26.6,13.8-39.2C79.7-8.1,48.3,11.6,49.9,44.2c0.2,3.7,1.1,10.4,2.3,18.8c-11.1,9.5-27.3,25.4-27.3,50.6
    c0,16.8,14,30,31.4,30c2.6,0,5.2-0.3,7.7-0.8c0.3,2.6,0.5,5,0.7,7.2c0.4,5.1,1,26.1-15.2,26.9c-3,0.1-5.9-0.6-7.8-2
    c4-0.7,7-4.2,7-8.4c0-4.7-3.8-8.5-8.5-8.5s-8.5,3.8-8.5,8.5c0,1.2,0.3,2.4,0.7,3.5l0,0c2.7,6.6,9.8,11.3,18.8,10.3
    c14-1.6,19.3-15.4,17.2-32.2c-0.1-1.2-0.4-3.4-0.9-6.3C78.6,138.3,87.5,129.6,87.5,117.6z M54.2,49C52.4,29.3,77.7,5.8,77.7,22.5
    c0,8.8-5.9,23.7-19.9,35.8c-0.7,0.6-1.4,1.2-2.2,1.9C54.9,55,54.4,51.1,54.2,49z M56.5,139.8c-17.4,0-24.9-13.5-24.9-24.7
    c0-16.8,11.9-29,22.7-38.6c0.8,5.2,1.7,10.8,2.6,16.5c-11,2.9-14.2,12.9-13.9,18.7c0.4,6.4,4.8,10.6,8.2,12.8
    c-4.2-7.3-2.6-19.5,7.2-22.1c2,12.9,4,25.9,5.2,36.6C61.5,139.5,59.1,139.8,56.5,139.8z M66.9,137.7c-1.3-9-3.3-22.3-5.3-35.8
    c0.1,0,0.1,0,0.2,0c9.9-0.4,16.4,4.6,16.4,15.9C78.2,126,74.7,134,66.9,137.7z"/>
  <line class="st0" x1="0" y1="143.2" x2="477" y2="143.2"/>
  <line class="st0" x1="0" y1="42.4" x2="477" y2="42.4"/>
  <line class="st0" x1="3" y1="67.6" x2="477" y2="67.6"/>
  <line class="st0" x1="3" y1="92.8" x2="477" y2="92.8"/>
  <line class="st0" x1="3" y1="118" x2="477" y2="118"/>
  <rect y="42.4" width="6" height="100.8"/>
  <line class="st1" x1="297.1" y1="16.6" x2="260.1" y2="16.6"/>
</g>
<g id="drums-notes">
  <g id="snare">
    <rect id="snare-shell" x="278" y="70.6" class="st2" width="49.7" height="19.2"/>
    <g id="snare-rim">
      <path id="rim-hi_7_" class="st3" d="M327.1,70.6h-48.2c-1.3,0-2.3-1-2.3-2.3l0,0c0-1.3,1-2.3,2.3-2.3h48.3c1.3,0,2.3,1,2.3,2.3
        l0,0C329.4,69.6,328.4,70.6,327.1,70.6z"/>
      <path id="rim-hi_6_" class="st3" d="M327,94.4h-48.3c-1.3,0-2.3-1-2.3-2.3l0,0c0-1.3,1-2.3,2.3-2.3H327c1.3,0,2.3,1,2.3,2.3l0,0
        C329.3,93.4,328.3,94.4,327,94.4z"/>
    </g>
    <g id="snare-rag">
      <path class="st4" d="M295.1,77.5L295.1,77.5c1,0,1.7-0.8,1.7-1.7v-3.2c0-1-0.8-1.7-1.7-1.7l0,0c-1,0-1.7,0.8-1.7,1.7v3.2
        C293.3,76.7,294.1,77.5,295.1,77.5z"/>
      <path class="st4" d="M311,77.5L311,77.5c1,0,1.7-0.8,1.7-1.7v-3.2c0-1-0.8-1.7-1.7-1.7l0,0c-1,0-1.7,0.8-1.7,1.7v3.2
        C309.2,76.7,310,77.5,311,77.5z"/>
      <path class="st4" d="M295.1,89.8L295.1,89.8c1,0,1.7-0.8,1.7-1.7v-3.2c0-1-0.8-1.7-1.7-1.7l0,0c-1,0-1.7,0.8-1.7,1.7v3.2
        C293.3,89.1,294.1,89.8,295.1,89.8z"/>
      <path class="st4" d="M311,89.8L311,89.8c1,0,1.7-0.8,1.7-1.7v-3.2c0-1-0.8-1.7-1.7-1.7l0,0c-1,0-1.7,0.8-1.7,1.7v3.2
        C309.2,89.1,310,89.8,311,89.8z"/>
      <path class="st4" d="M279.2,77.5L279.2,77.5c1,0,1.7-0.8,1.7-1.7v-3.2c0-1-0.8-1.7-1.7-1.7l0,0c-1,0-1.7,0.8-1.7,1.7v3.2
        C277.4,76.7,278.2,77.5,279.2,77.5z"/>
      <path class="st4" d="M326.9,77.5L326.9,77.5c1,0,1.7-0.8,1.7-1.7v-3.2c0-1-0.8-1.7-1.7-1.7l0,0c-1,0-1.7,0.8-1.7,1.7v3.2
        C325.1,76.7,325.9,77.5,326.9,77.5z"/>
      <path class="st4" d="M279.2,89.8L279.2,89.8c-1,0-1.7-0.8-1.7-1.7v-3.2c0-1,0.8-1.7,1.7-1.7l0,0c1,0,1.7,0.8,1.7,1.7v3.2
        C280.9,89.1,280.1,89.8,279.2,89.8z"/>
      <path class="st4" d="M326.9,89.8L326.9,89.8c-1,0-1.7-0.8-1.7-1.7v-3.2c0-1,0.8-1.7,1.7-1.7l0,0c1,0,1.7,0.8,1.7,1.7v3.2
        C328.6,89.1,327.8,89.8,326.9,89.8z"/>
    </g>
  </g>
  <g id="low-tam">
    <rect id="low-shell" x="189.2" y="86.1" class="st2" width="46.4" height="40.6"/>
    <g id="low-rim">
      <path id="rim-hi_5_" class="st3" d="M235.6,86.1h-46.3c-1.2,0-2.3-1-2.3-2.3l0,0c0-1.2,1-2.3,2.3-2.3h46.3c1.2,0,2.3,1,2.3,2.3
        l0,0C237.8,85.1,236.8,86.1,235.6,86.1z"/>
      <path id="rim-hi_4_" class="st3" d="M235.7,131.2h-46.3c-1.2,0-2.3-1-2.3-2.3l0,0c0-1.2,1-2.3,2.3-2.3h46.3c1.2,0,2.3,1,2.3,2.3
        l0,0C238,130.2,237,131.2,235.7,131.2z"/>
    </g>
    <g id="low-rag">
      <path class="st4" d="M204.9,92.9L204.9,92.9c0.9,0,1.7-0.8,1.7-1.7v-3.1c0-0.9-0.8-1.7-1.7-1.7l0,0c-0.9,0-1.7,0.8-1.7,1.7v3.1
        C203.3,92.1,204,92.9,204.9,92.9z"/>
      <path class="st4" d="M219.9,92.9L219.9,92.9c0.9,0,1.7-0.8,1.7-1.7v-3.1c0-0.9-0.8-1.7-1.7-1.7l0,0c-0.9,0-1.7,0.8-1.7,1.7v3.1
        C218.2,92.1,219,92.9,219.9,92.9z"/>
      <path class="st4" d="M190,92.9L190,92.9c0.9,0,1.7-0.8,1.7-1.7v-3.1c0-0.9-0.8-1.7-1.7-1.7l0,0c-0.9,0-1.7,0.8-1.7,1.7v3.1
        C188.3,92.1,189.1,92.9,190,92.9z"/>
      <path class="st4" d="M234.9,92.9L234.9,92.9c0.9,0,1.7-0.8,1.7-1.7v-3.1c0-0.9-0.8-1.7-1.7-1.7l0,0c-0.9,0-1.7,0.8-1.7,1.7v3.1
        C233.2,92.1,233.9,92.9,234.9,92.9z"/>
      <path class="st4" d="M204.9,126.7L204.9,126.7c0.9,0,1.7-0.8,1.7-1.7v-3.1c0-0.9-0.8-1.7-1.7-1.7l0,0c-0.9,0-1.7,0.8-1.7,1.7v3.1
        C203.3,126,204,126.7,204.9,126.7z"/>
      <path class="st4" d="M219.9,126.7L219.9,126.7c0.9,0,1.7-0.8,1.7-1.7v-3.1c0-0.9-0.8-1.7-1.7-1.7l0,0c-0.9,0-1.7,0.8-1.7,1.7v3.1
        C218.2,126,219,126.7,219.9,126.7z"/>
      <path class="st4" d="M190,126.7L190,126.7c-0.9,0-1.7-0.8-1.7-1.7v-3.1c0-0.9,0.8-1.7,1.7-1.7l0,0c0.9,0,1.7,0.8,1.7,1.7v3.1
        C191.7,126,190.9,126.7,190,126.7z"/>
      <path class="st5" d="M234.9,126.7L234.9,126.7c-0.9,0-1.7-0.8-1.7-1.7v-3.1c0-0.9,0.8-1.7,1.7-1.7l0,0c0.9,0,1.7,0.8,1.7,1.7v3.1
        C236.6,126,235.8,126.7,234.9,126.7z"/>
    </g>
  </g>
  <g id="mid-tam">
    <rect id="mid-shell_1_" x="214.1" y="56.4" class="st2" width="39.7" height="22.5"/>
    <g id="mid-rim_1_">
      <path id="rim-hi_3_" class="st3" d="M253.8,56.4h-39.6c-1.1,0-1.9-0.9-1.9-1.9l0,0c0-1.1,0.9-1.9,1.9-1.9h39.6
        c1.1,0,1.9,0.9,1.9,1.9l0,0C255.7,55.5,254.9,56.4,253.8,56.4z"/>
      <path id="rim-hi_2_" class="st3" d="M253.8,82.7h-39.6c-1.1,0-1.9-0.9-1.9-1.9l0,0c0-1.1,0.9-1.9,1.9-1.9h39.6
        c1.1,0,1.9,0.9,1.9,1.9l0,0C255.7,81.9,254.9,82.7,253.8,82.7z"/>
    </g>
    <g id="mid-rag_1_">
      <path class="st4" d="M227.6,62.2L227.6,62.2c0.8,0,1.4-0.6,1.4-1.4v-2.7c0-0.8-0.6-1.4-1.4-1.4l0,0c-0.8,0-1.4,0.6-1.4,1.4v2.7
        C226.2,61.5,226.8,62.2,227.6,62.2z"/>
      <path class="st4" d="M240.4,62.2L240.4,62.2c0.8,0,1.4-0.6,1.4-1.4v-2.7c0-0.8-0.6-1.4-1.4-1.4l0,0c-0.8,0-1.4,0.6-1.4,1.4v2.7
        C239,61.5,239.6,62.2,240.4,62.2z"/>
      <path class="st4" d="M227.6,78.9L227.6,78.9c0.8,0,1.4-0.6,1.4-1.4v-2.7c0-0.8-0.6-1.4-1.4-1.4l0,0c-0.8,0-1.4,0.6-1.4,1.4v2.7
        C226.2,78.2,226.8,78.9,227.6,78.9z"/>
      <path class="st4" d="M240.4,78.9L240.4,78.9c0.8,0,1.4-0.6,1.4-1.4v-2.7c0-0.8-0.6-1.4-1.4-1.4l0,0c-0.8,0-1.4,0.6-1.4,1.4v2.7
        C239,78.2,239.6,78.9,240.4,78.9z"/>
      <path class="st4" d="M214.8,62.2L214.8,62.2c0.8,0,1.4-0.6,1.4-1.4v-2.7c0-0.8-0.6-1.4-1.4-1.4l0,0c-0.8,0-1.4,0.6-1.4,1.4v2.7
        C213.4,61.5,214,62.2,214.8,62.2z"/>
      <path class="st4" d="M253.2,62.2L253.2,62.2c0.8,0,1.4-0.6,1.4-1.4v-2.7c0-0.8-0.6-1.4-1.4-1.4l0,0c-0.8,0-1.4,0.6-1.4,1.4v2.7
        C251.8,61.5,252.4,62.2,253.2,62.2z"/>
      <path class="st4" d="M214.8,78.9L214.8,78.9c-0.8,0-1.4-0.6-1.4-1.4v-2.7c0-0.8,0.6-1.4,1.4-1.4l0,0c0.8,0,1.4,0.6,1.4,1.4v2.7
        C216.2,78.2,215.6,78.9,214.8,78.9z"/>
      <path class="st4" d="M253.2,78.9L253.2,78.9c-0.8,0-1.4-0.6-1.4-1.4v-2.7c0-0.8,0.6-1.4,1.4-1.4l0,0c0.8,0,1.4,0.6,1.4,1.4v2.7
        C254.7,78.2,254,78.9,253.2,78.9z"/>
    </g>
  </g>
  <g id="hi-tam">
    <rect id="hi-shell" x="259.4" y="43.5" class="st2" width="37.3" height="25.2"/>
    <g id="hi-rim">
      <path id="rim-hi_1_" class="st3" d="M296.2,43.5h-36.5c-1.2,0-2.2-1-2.2-2.2l0,0c0-1.2,1-2.2,2.2-2.2h36.5c1.2,0,2.2,1,2.2,2.2
        l0,0C298.3,42.5,297.4,43.5,296.2,43.5z"/>
      <path id="rim-hi" class="st3" d="M296.2,69.7h-36.5c-1.2,0-2.2-1-2.2-2.2l0,0c0-1.2,1-2.2,2.2-2.2h36.5c1.2,0,2.2,1,2.2,2.2l0,0
        C298.3,68.8,297.4,69.7,296.2,69.7z"/>
    </g>
    <g id="hi-rag">
      <path class="st4" d="M272.1,50L272.1,50c0.9,0,1.6-0.7,1.6-1.6v-3c0-0.9-0.7-1.6-1.6-1.6l0,0c-0.9,0-1.6,0.7-1.6,1.6v3
        C270.4,49.3,271.2,50,272.1,50z"/>
      <path class="st4" d="M283.8,50L283.8,50c0.9,0,1.6-0.7,1.6-1.6v-3c0-0.9-0.7-1.6-1.6-1.6l0,0c-0.9,0-1.6,0.7-1.6,1.6v3
        C282.2,49.3,282.9,50,283.8,50z"/>
      <path class="st4" d="M272.1,65.4L272.1,65.4c0.9,0,1.6-0.7,1.6-1.6v-3c0-0.9-0.7-1.6-1.6-1.6l0,0c-0.9,0-1.6,0.7-1.6,1.6v3
        C270.4,64.7,271.2,65.4,272.1,65.4z"/>
      <path class="st4" d="M283.8,65.4L283.8,65.4c0.9,0,1.6-0.7,1.6-1.6v-3c0-0.9-0.7-1.6-1.6-1.6l0,0c-0.9,0-1.6,0.7-1.6,1.6v3
        C282.2,64.7,282.9,65.4,283.8,65.4z"/>
      <path class="st4" d="M260.3,49.9L260.3,49.9c0.9,0,1.6-0.7,1.6-1.6v-3c0-0.9-0.7-1.6-1.6-1.6l0,0c-0.9,0-1.6,0.7-1.6,1.6v3
        C258.7,49.1,259.4,49.9,260.3,49.9z"/>
      <path class="st4" d="M295.5,49.9L295.5,49.9c0.9,0,1.6-0.7,1.6-1.6v-3c0-0.9-0.7-1.6-1.6-1.6l0,0c-0.9,0-1.6,0.7-1.6,1.6v3
        C293.9,49.1,294.6,49.9,295.5,49.9z"/>
      <path class="st4" d="M260.3,65.3L260.3,65.3c-0.9,0-1.6-0.7-1.6-1.6v-3c0-0.9,0.7-1.6,1.6-1.6l0,0c0.9,0,1.6,0.7,1.6,1.6v3
        C262,64.6,261.2,65.3,260.3,65.3z"/>
      <path class="st4" d="M295.5,65.3L295.5,65.3c-0.9,0-1.6-0.7-1.6-1.6v-3c0-0.9,0.7-1.6,1.6-1.6l0,0c0.9,0,1.6,0.7,1.6,1.6v3
        C297.1,64.6,296.4,65.3,295.5,65.3z"/>
    </g>
  </g>
  <g id="bass">
    <circle id="bass-shell" class="st6" cx="261.8" cy="131.1" r="33.9"/>
    <path id="bass-rim" class="st3" d="M261.8,168c-20.3,0-36.8-16.5-36.8-36.8s16.5-36.8,36.8-36.8s36.8,16.5,36.8,36.8
      S282.1,168,261.8,168z M261.8,97.3c-18.7,0-33.9,15.2-33.9,33.9s15.2,33.9,33.9,33.9s33.9-15.2,33.9-33.9S280.4,97.3,261.8,97.3z"
      />
    <g id="bass-rag">
      <path class="st4" d="M261.8,169L261.8,169c0.8,0,1.5-0.7,1.5-1.5v-2.7c0-0.8-0.7-1.5-1.5-1.5l0,0c-0.8,0-1.5,0.7-1.5,1.5v2.7
        C260.3,168.3,260.9,169,261.8,169z"/>
      <path class="st4" d="M288.5,157.9L288.5,157.9c0.6-0.6,0.6-1.5,0-2.1l-1.9-1.9c-0.6-0.6-1.5-0.6-2.1,0l0,0
        c-0.6,0.6-0.6,1.5,0,2.1l1.9,1.9C287,158.5,287.9,158.5,288.5,157.9z"/>
      <path class="st4" d="M299.6,131.1L299.6,131.1c0-0.8-0.7-1.5-1.5-1.5h-2.7c-0.8,0-1.5,0.7-1.5,1.5l0,0c0,0.8,0.7,1.5,1.5,1.5h2.7
        C298.9,132.6,299.6,132,299.6,131.1z"/>
      <path class="st4" d="M288.5,104.4L288.5,104.4c-0.6-0.6-1.5-0.6-2.1,0l-1.9,1.9c-0.6,0.6-0.6,1.5,0,2.1l0,0
        c0.6,0.6,1.5,0.6,2.1,0l1.9-1.9C289.1,105.9,289.1,105,288.5,104.4z"/>
      <path class="st4" d="M261.8,93.3L261.8,93.3c-0.8,0-1.5,0.7-1.5,1.5v2.7c0,0.8,0.7,1.5,1.5,1.5l0,0c0.8,0,1.5-0.7,1.5-1.5v-2.7
        C263.2,94,262.6,93.3,261.8,93.3z"/>
      <path class="st4" d="M235,104.4L235,104.4c-0.6,0.6-0.6,1.5,0,2.1l1.9,1.9c0.6,0.6,1.5,0.6,2.1,0l0,0c0.6-0.6,0.6-1.5,0-2.1
        l-1.9-1.9C236.5,103.8,235.6,103.8,235,104.4z"/>
      <path class="st4" d="M223.9,131.1L223.9,131.1c0,0.8,0.7,1.5,1.5,1.5h2.7c0.8,0,1.5-0.7,1.5-1.5l0,0c0-0.8-0.7-1.5-1.5-1.5h-2.7
        C224.6,129.6,223.9,130.3,223.9,131.1z"/>
      <path class="st4" d="M235,157.9L235,157.9c0.6,0.6,1.5,0.6,2.1,0l1.9-1.9c0.6-0.6,0.6-1.5,0-2.1l0,0c-0.6-0.6-1.5-0.6-2.1,0
        l-1.9,1.9C234.4,156.4,234.4,157.3,235,157.9z"/>
    </g>
  </g>
  <g id="ride_1_">

      <rect x="156.3" y="49.4" transform="matrix(0.2588 -0.9659 0.9659 0.2588 79.2393 204.2736)" class="st7" width="32.8" height="2.3"/>
    <rect x="175.6" y="32.2" transform="matrix(0.2588 -0.9659 0.9659 0.2588 100.0774 195.7869)" class="st7" width="4" height="1"/>
    <path id="ride" class="st8" d="M188.3,45.5l-9-6.6c-1.9-1.4-4.2-2-6.6-1.8l-11.1,1.2c-1.2,0.1-2.3,0-3.5-0.3l-16.2-4.3
      c-0.8-0.2-1.5,0.2-1.7,1l0,0c-0.2,0.8,0.2,1.5,1,1.7l65,17.4c0.8,0.2,1.5-0.2,1.7-1l0,0c0.2-0.8-0.2-1.5-1-1.7l-15.7-4.2
      C190.3,46.7,189.2,46.2,188.3,45.5z"/>

      <rect x="140.6" y="56.5" transform="matrix(0.9397 -0.342 0.342 0.9397 -10.2228 57.1358)" class="st3" width="32.6" height="2.1"/>
  </g>
  <g id="crash">
    <rect x="278.7" class="st3" width="1.1" height="4.6"/>
    <rect x="277.9" y="4.6" class="st3" width="2.7" height="25.8"/>
    <path id="clash-l" class="st8" d="M295.2,13.7l-11.8-4.6c-2.5-1-5.3-1-7.8,0l-11.8,4.6c-1.2,0.5-2.6,0.7-3.9,0.7h-19.1
      c-0.9,0-1.6,0.7-1.6,1.6l0,0c0,0.9,0.7,1.6,1.6,1.6h76.8c0.9,0,1.6-0.7,1.6-1.6l0,0c0-0.9-0.7-1.6-1.6-1.6h-18.5
      C297.7,14.5,296.4,14.2,295.2,13.7z"/>
  </g>
  <g id="hihat">
    <polygon class="st3" points="371,164.9 339.1,133 337.2,131.1 335.3,133 303.5,164.9 305.3,166.8 337.2,134.9 369.1,166.8 		"/>
    <circle class="st9" cx="370" cy="165.9" r="3.1"/>
    <circle class="st9" cx="304.5" cy="166" r="3.1"/>
    <rect x="336" y="16.6" class="st3" width="2.7" height="119.1"/>
    <rect x="336.7" y="12" class="st3" width="1.1" height="4.6"/>
    <path id="hat-bottom_1_" class="st8" d="M345.8,35.4l-3.5,1.7c-3.2,1.6-6.9,1.6-10.1,0l-3.5-1.7c-1.6-0.8-3.3-1.2-5-1.2h-14.2
      c-0.8,0-1.5-0.7-1.5-1.5l0,0c0-0.8,0.7-1.5,1.5-1.5h55.4c0.8,0,1.5,0.7,1.5,1.5l0,0c0,0.8-0.7,1.5-1.5,1.5h-14.2
      C349.1,34.2,347.4,34.6,345.8,35.4z"/>
    <path id="hat-top_1_" class="st8" d="M345.8,26.1l-3.5-1.7c-3.2-1.6-6.9-1.6-10.1,0l-3.5,1.7c-1.6,0.8-3.3,1.2-5,1.2h-14.2
      c-0.8,0-1.5,0.7-1.5,1.5l0,0c0,0.8,0.7,1.5,1.5,1.5h55.4c0.8,0,1.5-0.7,1.5-1.5l0,0c0-0.8-0.7-1.5-1.5-1.5h-14.2
      C349.1,27.3,347.4,26.9,345.8,26.1z"/>
    <polygon class="st3" points="331.7,145.5 345.1,145.5 325.4,166.8 318.5,166.8 		"/>
    <line class="st10" x1="321.6" y1="162.2" x2="329.6" y2="162.2"/>
  </g>
</g>
<g id="notes01">
  <path d="M272.4,121.1c3.6,4.6,1.8,12.5-4.1,17.7c-5.9,5.1-13.6,5.6-17.2,1c-3.6-4.6-1.8-12.5,4.1-17.7
    C261.1,117,268.7,116.6,272.4,121.1z"/>
  <path d="M223.7,96c3.6,4.6,1.8,12.5-4.1,17.7c-5.9,5.1-13.6,5.6-17.2,1c-3.6-4.6-1.8-12.5,4.1-17.7S220.1,91.5,223.7,96z"/>
  <path d="M244.7,58.4c3.6,4.6,1.8,12.5-4.1,17.7c-5.9,5.1-13.6,5.6-17.2,1c-3.6-4.6-1.8-12.5,4.1-17.7
    C233.4,54.2,241.1,53.8,244.7,58.4z"/>
  <path d="M288.3,45.9c3.6,4.6,1.8,12.5-4.1,17.7c-5.9,5.1-13.6,5.6-17.2,1s-1.8-12.5,4.1-17.7C277.1,41.8,284.7,41.3,288.3,45.9z"/>
  <path d="M313.6,70.9c3.6,4.6,1.8,12.5-4.1,17.6s-13.6,5.6-17.2,1s-1.8-12.5,4.1-17.6C302.3,66.7,310,66.3,313.6,70.9z"/>
  <polygon points="350.1,146 347.2,143.2 337.1,153.3 327,143.2 324.2,146 334.3,156.1 324.2,166.2 327,169 337.1,158.9 347.2,169
    350.1,166.2 340,156.1 	"/>
  <polygon points="350.1,19.4 347.2,16.6 337.1,26.7 327,16.6 324.2,19.4 334.3,29.5 324.2,39.6 327,42.4 337.1,32.3 347.2,42.4
    350.1,39.6 340,29.5 	"/>
  <polygon points="291.8,6.5 289,3.7 278.9,13.8 268.8,3.7 265.9,6.5 276,16.6 265.9,26.7 268.8,29.5 278.9,19.4 289,29.5
    291.8,26.7 281.7,16.6 	"/>
  <polygon points="188.4,31.2 185.6,28.4 175.5,38.5 165.4,28.4 162.5,31.2 172.6,41.3 162.5,51.4 165.4,54.2 175.5,44.1 185.6,54.2
    188.4,51.4 178.3,41.3 	"/>
</g>
</svg>
