<svg version="1.1" xmlns="http://www.w3.org/2000/svg" xmlns:xlink="http://www.w3.org/1999/xlink" x="0px" y="0px"
	 viewBox="0 0 475.886 570" xml:space="preserve">
<g>
	<path d="M98.436,104.172L187.27,409.88h4.468l8.406-9.214l-85.946-295.768C109.05,104.491,103.797,104.239,98.436,104.172z"/>
	<path d="M150.204,111.019l75.899,261.194l11.795-12.928l-70.474-242.524c-0.527-0.209-1.051-0.42-1.585-0.625C160.814,114.204,155.575,112.493,150.204,111.019z"/>
	<path d="M221.693,149.831c0,0-4.981-3.232-5.788-3.754c-2.334-1.511-4.722-3.064-7.107-4.718l55.058,189.473l11.795-12.928L227.86,153.441l-2.71-1.583L221.693,149.831z"/>
	<path d="M284.924,178.514l-5.226-1.598c-0.487-0.159-0.971-0.33-1.453-0.502l-4.085-1.448l-4.247-1.513c-0.692-0.245-1.45-0.516-2.25-0.827l33.948,116.825l11.795-12.928L284.924,178.514z"/>
	<path d="M327.025,187.757l-1.273-0.166c-0.908-0.115-1.816-0.233-2.721-0.372l-1.419-0.239l17.752,61.09l8.008-8.778l3.786-4.15l-13.411-46.15l-3.223-0.293c-1.713-0.189-3.423-0.412-5.134-0.636C328.602,187.959,327.814,187.856,327.025,187.757z"/>
</g>
<path d="M377.117,206.688l11.795-12.928l-1.276-4.391c-5.169,0.396-10.283,0.67-15.317,0.804L377.117,206.688z"/>
<path d="M124.629,438.13v52.602h125.275v-26.568l225.981-315.885l-15.254-14.667l-0.218,0.239v-0.236
	c-1.852,0.032-3.952,0.12-5.231,0.294l-2.182,0.241l-1.925,0.276l-1.907,0.281L447.378,135l-3.517,0.593l-13.394,2.308
	c-8.751,1.445-17.381,2.639-26.003,3.451c-17.224,1.621-34.386,1.803-51.228,0.029l-3.156-0.33l-1.577-0.164l-1.568-0.224
	l-6.266-0.887c-2.08-0.337-4.146-0.743-6.218-1.107c-1.034-0.193-2.073-0.359-3.102-0.572l-3.075-0.686
	c-8.228-1.702-16.266-4.101-24.186-6.747l-5.892-2.129l-1.472-0.529c-0.487-0.187-0.966-0.397-1.449-0.594l-2.893-1.198
	l-2.892-1.193c-0.962-0.401-1.935-0.774-2.871-1.239l-5.667-2.656c-0.94-0.451-1.898-0.858-2.823-1.343l-2.769-1.463l-5.536-2.911
	c-1.817-1.027-3.603-2.115-5.406-3.165l-2.698-1.585l-1.349-0.791l-1.313-0.86l-5.247-3.436l-2.624-1.711l-2.544-1.848
	c-3.384-2.474-6.828-4.839-10.058-7.542l-4.92-3.926l-5.904-4.652c-1.026-0.788-2.025-1.619-3.077-2.368l-3.167-2.236
	c-2.119-1.48-4.211-3.014-6.415-4.349c-8.649-5.661-17.776-10.489-27.126-14.64c-9.353-4.156-18.948-7.624-28.664-10.457
	c-19.45-5.651-39.32-8.737-59.154-9.967c-9.925-0.619-19.849-0.693-29.794-0.351c-0.694,0.027-1.389,0.06-2.084,0.09l5.558-10.089V0
	H0v31.526l13.705,24.878L124.629,438.13z M73.408,92.686c8.258-0.7,16.591-1.066,24.888-0.964c16.593,0.189,33.102,1.936,48.91,5.68
	c7.9,1.878,15.623,4.243,23.094,7.117c7.472,2.869,14.709,6.233,21.531,10.233c1.758,0.927,3.391,2.029,5.067,3.074l2.511,1.576
	c0.837,0.527,1.614,1.129,2.427,1.689l5.033,3.56l5.994,4.316c3.937,2.944,8.135,5.564,12.262,8.259l3.102,2.011l3.199,1.875
	l6.398,3.737l1.601,0.93l1.644,0.862l3.288,1.721c2.197,1.138,4.373,2.306,6.585,3.41l6.735,3.128l3.367,1.557
	c1.124,0.515,2.286,0.952,3.427,1.431l6.874,2.803c1.136,0.487,2.312,0.881,3.476,1.3l3.497,1.245l3.496,1.24
	c0.584,0.203,1.163,0.419,1.75,0.611l1.774,0.544l7.093,2.165c9.514,2.668,19.126,4.987,28.854,6.507l3.638,0.615
	c1.215,0.187,2.436,0.326,3.654,0.49c2.437,0.307,4.87,0.65,7.308,0.919l7.322,0.665l1.829,0.164l1.832,0.101l3.662,0.199
	c19.531,1.061,38.996-0.158,57.965-2.913c5.898-0.855,11.745-1.884,17.533-3.007L197.23,422.325h-31.405L70.127,92.996
	C71.219,92.887,72.313,92.783,73.408,92.686z"/>
</svg>
