<svg version="1.1" id="svg01" xmlns="http://www.w3.org/2000/svg" xmlns:xlink="http://www.w3.org/1999/xlink" x="0px" y="0px" viewBox="0 0 302 150" xml:space="preserve">
	<path class="st0" d="M298,150h-28c-2.2,0-4-1.8-4-4V4c0-2.2,1.8-4,4-4h28c2.2,0,4,1.8,4,4v142C302,148.2,300.2,150,298,150z"/>
	<path class="st0" d="M260,150h-28c-2.2,0-4-1.8-4-4V4c0-2.2,1.8-4,4-4h28c2.2,0,4,1.8,4,4v142C264,148.2,262.2,150,260,150z"/>
	<path class="st0" d="M222,150h-28c-2.2,0-4-1.8-4-4V4c0-2.2,1.8-4,4-4h28c2.2,0,4,1.8,4,4v142C226,148.2,224.2,150,222,150z"/>
	<path class="st0" d="M184,150h-28c-2.2,0-4-1.8-4-4V4c0-2.2,1.8-4,4-4h28c2.2,0,4,1.8,4,4v142C188,148.2,186.2,150,184,150z"/>
	<path class="st0" d="M146,150h-28c-2.2,0-4-1.8-4-4V4c0-2.2,1.8-4,4-4h28c2.2,0,4,1.8,4,4v142C150,148.2,148.2,150,146,150z"/>
	<path class="st0" d="M108,150H80c-2.2,0-4-1.8-4-4V4c0-2.2,1.8-4,4-4h28c2.2,0,4,1.8,4,4v142C112,148.2,110.2,150,108,150z"/>
	<path class="st0" d="M70,150H42c-2.2,0-4-1.8-4-4V4c0-2.2,1.8-4,4-4h28c2.2,0,4,1.8,4,4v142C74,148.2,72.2,150,70,150z"/>
	<path class="st0" d="M32,150H4c-2.2,0-4-1.8-4-4V4c0-2.2,1.8-4,4-4h28c2.2,0,4,1.8,4,4v142C36,148.2,34.2,150,32,150z"/>
	<g>
		<path class="st1" d="M235.5,80h-17c-1.7,0-3-1.3-3-3V0h23v77C238.5,78.7,237.2,80,235.5,80z"/>
		<path class="st1" d="M197.4,80h-17c-1.7,0-3-1.3-3-3V0h23v77C200.4,78.7,199,80,197.4,80z"/>
		<path class="st1" d="M159.6,80h-17c-1.7,0-3-1.3-3-3V0h23v77C162.6,78.7,161.3,80,159.6,80z"/>
		<path class="st1" d="M83.5,80h-17c-1.7,0-3-1.3-3-3V0h23v77C86.5,78.7,85.2,80,83.5,80z"/>
		<path class="st1" d="M45.7,80h-17c-1.7,0-3-1.3-3-3V0h23v77C48.7,78.7,47.4,80,45.7,80z"/>
	</g>
</svg>
