<svg version="1.1" xmlns="http://www.w3.org/2000/svg" xmlns:xlink="http://www.w3.org/1999/xlink" x="0px" y="0px"
	 viewBox="0 0 309.5 151" xml:space="preserve">
<path d="M34,150.5H3c-1.4,0-2.5-1.1-2.5-2.5V3c0-1.4,1.1-2.5,2.5-2.5h31c1.4,0,2.5,1.1,2.5,2.5v145C36.5,149.4,35.4,150.5,34,150.5z"/>
<path d="M73,150.5H42c-1.4,0-2.5-1.1-2.5-2.5V3c0-1.4,1.1-2.5,2.5-2.5h31c1.4,0,2.5,1.1,2.5,2.5v145C75.5,149.4,74.4,150.5,73,150.5z"/>
<path d="M112,150.5H81c-1.4,0-2.5-1.1-2.5-2.5V3c0-1.4,1.1-2.5,2.5-2.5h31c1.4,0,2.5,1.1,2.5,2.5v145C114.5,149.4,113.4,150.5,112,150.5z"/>
<path d="M151,150.5h-31c-1.4,0-2.5-1.1-2.5-2.5V3c0-1.4,1.1-2.5,2.5-2.5h31c1.4,0,2.5,1.1,2.5,2.5v145C153.5,149.4,152.4,150.5,151,150.5z"/>
<path d="M190,150.5h-31c-1.4,0-2.5-1.1-2.5-2.5V3c0-1.4,1.1-2.5,2.5-2.5h31c1.4,0,2.5,1.1,2.5,2.5v145C192.5,149.4,191.4,150.5,190,150.5z"/>
<path d="M229,150.5h-31c-1.4,0-2.5-1.1-2.5-2.5V3c0-1.4,1.1-2.5,2.5-2.5h31c1.4,0,2.5,1.1,2.5,2.5v145C231.5,149.4,230.4,150.5,229,150.5z"/>
<path d="M268,150.5h-31c-1.4,0-2.5-1.1-2.5-2.5V3c0-1.4,1.1-2.5,2.5-2.5h31c1.4,0,2.5,1.1,2.5,2.5v145C270.5,149.4,269.4,150.5,268,150.5z"/>
<path d="M307,150.5h-31c-1.4,0-2.5-1.1-2.5-2.5V3c0-1.4,1.1-2.5,2.5-2.5h31c1.4,0,2.5,1.1,2.5,2.5v145C309.5,149.4,308.4,150.5,307,150.5z"/>
	<g>
		<path d="M47,81.5H29c-1.4,0-2.5-1.1-2.5-2.5V0.5h23V79C49.5,80.4,48.4,81.5,47,81.5z"/>
		<path d="M86,81.5H68c-1.4,0-2.5-1.1-2.5-2.5V0.5h23V79C88.5,80.4,87.4,81.5,86,81.5z"/>
		<path d="M164,81.5h-18c-1.4,0-2.5-1.1-2.5-2.5V0.5h23V79C166.5,80.4,165.4,81.5,164,81.5z"/>
		<path d="M203,81.5h-18c-1.4,0-2.5-1.1-2.5-2.5V0.5h23V79C205.5,80.4,204.4,81.5,203,81.5z"/>
		<path d="M242,81.5h-18c-1.4,0-2.5-1.1-2.5-2.5V0.5h23V79C244.5,80.4,243.4,81.5,242,81.5z"/>
	</g>
</svg>
