<?xml version="1.0" encoding="utf-8"?>
<!-- Generator: Adobe Illustrator 25.3.1, SVG Export Plug-In . SVG Version: 6.00 Build 0)  -->
<svg version="1.1" id="_x32_" xmlns="http://www.w3.org/2000/svg" xmlns:xlink="http://www.w3.org/1999/xlink" x="0px" y="0px"
	 viewBox="0 0 16 16" style="enable-background:new 0 0 16 16;" xml:space="preserve">
<style type="text/css">
	.st0{fill:#333333;}
</style>
<g>
	<path class="st0" d="M1.9,1.9C3.2,0.6,4.9,0,6.6,0c1.7,0,3.4,0.6,4.7,1.9s1.9,3,1.9,4.7c0,1.2-0.3,2.4-1,3.4l3.2,3.2
		c0.6,0.6,0.6,1.6,0,2.3s-1.6,0.6-2.3,0l-3.2-3.2c-1.1,0.6-2.2,1-3.4,1c-1.7,0-3.4-0.6-4.7-1.9C0.7,10,0,8.3,0,6.6
		C0,4.9,0.7,3.2,1.9,1.9z M3.8,9.5c0.8,0.8,1.8,1.2,2.9,1.2c1,0,2.1-0.4,2.9-1.2c0.8-0.8,1.2-1.8,1.2-2.9c0-1-0.4-2.1-1.2-2.9
		C8.7,3,7.7,2.6,6.6,2.6c-1,0-2.1,0.4-2.9,1.2S2.6,5.6,2.6,6.6C2.6,7.7,3,8.7,3.8,9.5z"/>
</g>
</svg>
