<svg version="1.1" id="svg01" xmlns="http://www.w3.org/2000/svg" xmlns:xlink="http://www.w3.org/1999/xlink" x="0px" y="0px" viewBox="0 0 302 150" xml:space="preserve">
	<path d="M0,100V73c0-2.1,2.2-3.6,4.1-2.8l10,4.1c1.1,0.5,1.9,1.6,1.9,2.8v19c0,1.2-0.7,2.3-1.9,2.8l-10,4.1C2.2,103.6,0,102.2,0,100
		z"/>
	<g>
		<rect x="91.7" y="98" width="20" height="29"/>
		<rect x="129.7" y="98" width="20" height="29"/>
		<rect x="167.7" y="98" width="20" height="29"/>
	</g>
	<path d="M230.5,56.6h-56.8l0,0H94.1C79,56.6,65.5,63.8,57,75l0,0H28.7c-1.7,0-3,1.3-3,3v17c0,1.7,1.3,3,3,3h19l0,0
		c-0.2,1.7-0.3,3.5-0.3,5.3l0,0c0,25.8,20.9,46.7,46.7,46.7h65.6l0,0H195c20.7,0,37.5-16.8,37.5-37.5l0,0c0-14.2-7.9-26.5-19.4-32.9
		l0,0h17.4c1.7,0,3-1.3,3-3v-17C233.5,58,232.1,56.6,230.5,56.6z M195,127h-35.3l0,0l0,0h-65c-10.8,0-20.5-7-23.4-17.4
		c-1.1-4.1-1.1-8-0.2-11.6l0,0h88.6l0,0h34.9c7.4,0,14,5.4,14.8,12.8C210.4,119.6,203.5,127,195,127z"/>
	<g>
		<path d="M94.7,30.2h14c1.7,0,3,1.3,3,3v23.5h-20V33.2C91.7,31.5,93,30.2,94.7,30.2z"/>
		<path d="M132.7,30.2h14c1.7,0,3,1.3,3,3v23.5h-20V33.2C129.7,31.5,131,30.2,132.7,30.2z"/>
		<path d="M170.7,30.2h14c1.7,0,3,1.3,3,3v23.5h-20V33.2C167.7,31.5,169,30.2,170.7,30.2z"/>
		<path d="M110.2,0h-17c-1.7,0-3,1.3-3,3v12.7c0,1.7,1.3,3,3,3h17c1.7,0,3-1.3,3-3V3C113.2,1.3,111.9,0,110.2,0z"/>
		<path d="M148.2,0h-17c-1.7,0-3,1.3-3,3v12.7c0,1.7,1.3,3,3,3h17c1.7,0,3-1.3,3-3V3C151.2,1.3,149.9,0,148.2,0z"/>
		<path d="M186.2,0h-17c-1.7,0-3,1.3-3,3v12.7c0,1.7,1.3,3,3,3h17c1.7,0,3-1.3,3-3V3C189.2,1.3,187.9,0,186.2,0z"/>
	</g>
	<path d="M247,52.8l50-22.5c2.5-0.7,5,1.2,5,3.9v64.1c0,2.8-2.7,4.7-5.3,3.8l-50-22.5c-1.6-0.6-2.7-2.1-2.7-3.8V56.6 C244,54.8,245.2,53.2,247,52.8z"/>
</svg>
