<svg version="1.1" xmlns="http://www.w3.org/2000/svg" xmlns:xlink="http://www.w3.org/1999/xlink" x="0px" y="0px"
	 viewBox="0 0 570 210.982" xml:space="preserve">
<path d="M0,66.821v53.414c0,3.105,2.868,5.416,5.902,4.755l44.12-9.609V71.676l-44.12-9.609C2.868,61.406,0,63.716,0,66.821z"/>
<g>
	<path d="M192.116,30.393h30.497c2.677,0,4.867-2.19,4.867-4.867V13.274c0-2.677-2.19-4.867-4.867-4.867h-30.497c-2.677,0-4.867,2.19-4.867,4.867v12.252C187.249,28.203,189.439,30.393,192.116,30.393z"/>
	<path d="M250.515,30.393h30.497c2.677,0,4.867-2.19,4.867-4.867V13.274c0-2.677-2.19-4.867-4.867-4.867h-30.497c-2.677,0-4.866,2.19-4.866,4.867v12.252C245.648,28.203,247.838,30.393,250.515,30.393z"/>
	<path d="M308.913,30.393h30.497c2.677,0,4.867-2.19,4.867-4.867V13.274c0-2.677-2.19-4.867-4.867-4.867h-30.497c-2.677,0-4.867,2.19-4.867,4.867v12.252C304.047,28.203,306.237,30.393,308.913,30.393z"/>
</g>
<path d="M560.267,0h-12.886c-5.353,0-9.733,4.38-9.733,9.733v136.4c0,5.353,4.38,9.733,9.733,9.733h12.886c5.353,0,9.733-4.38,9.733-9.733V9.733C570,4.379,565.62,0,560.267,0z"/>

<path d="M341.163,60.968h-2.889V38.992h-28.226v21.976h-30.173V38.992H251.65v21.976h-30.173V38.992h-28.226v21.976h-17.75
	c-16.919,0-32.506,5.827-44.855,15.576H61.194v34.066h45.49c-2.396,7.193-3.695,14.883-3.695,22.87v4.99
	c0,39.983,32.528,72.512,72.512,72.512h175.52c37.064,0,67.217-30.154,67.217-67.221c0-17.087-6.419-32.695-16.959-44.568
	c48.097,7.006,85.488,22.887,119.581,46.062V10.837c-47.096,32.014-100.471,50.121-179.696,50.121v0.01H341.163z M310.049,110.611
	v66.306h-30.173v-66.306C279.876,110.611,310.049,110.611,310.049,110.611z M251.65,110.611v66.306h-30.173v-66.306
	C221.477,110.611,251.65,110.611,251.65,110.611z M137.055,138.471v-4.99c0-8.559,2.812-16.475,7.56-22.87h48.636v66.306h-17.75
	C154.302,176.917,137.055,159.67,137.055,138.471z M351.021,176.917h-12.746v-66.306h12.746c18.279,0,33.151,14.871,33.151,33.155
	C384.171,162.045,369.3,176.917,351.021,176.917z"/>
</svg>
