<svg version="1.1" id="svg01" xmlns="http://www.w3.org/2000/svg" xmlns:xlink="http://www.w3.org/1999/xlink" x="0px" y="0px" viewBox="-1 -1 305 155" xml:space="preserve">
  <path d="M1.5,102.5v-27c0-2.1,2.2-3.6,4.1-2.8l10,4.1c1.1,0.5,1.9,1.6,1.9,2.8v19c0,1.2-0.7,2.3-1.9,2.8l-10,4.1C3.7,106.1,1.5,104.7,1.5,102.5z"/>
  <path d="M232,59.1h-56.8l0,0H95.6c-15.1,0-28.6,7.2-37.1,18.4l0,0H30.2c-1.7,0-3,1.3-3,3v17c0,1.7,1.3,3,3,3h19l0,0
    c-0.2,1.7-0.3,3.5-0.3,5.3l0,0c0,25.8,20.9,46.7,46.7,46.7h65.6l0,0h35.3c20.7,0,37.5-16.8,37.5-37.5l0,0c0-14.2-7.9-26.5-19.4-32.9
    l0,0H232c1.7,0,3-1.3,3-3v-17C235,60.5,233.6,59.1,232,59.1z M196.5,129.5h-35.3l0,0l0,0h-65c-10.8,0-20.5-7-23.4-17.4
    c-1.1-4.1-1.1-8-0.2-11.6l0,0h88.6l0,0h34.9c7.4,0,14,5.4,14.8,12.8C211.9,122.1,205,129.5,196.5,129.5z"/>
  <g>
    <rect x="93.2" y="100.5" width="20" height="29"/>
    <rect x="131.2" y="100.5" width="20" height="29"/>
    <rect x="169.2" y="100.5" width="20" height="29"/>
    <path d="M96.2,32.7h14c1.7,0,3,1.3,3,3v23.5h-20V35.7C93.2,34,94.5,32.7,96.2,32.7z"/>
    <path d="M134.2,32.7h14c1.7,0,3,1.3,3,3v23.5h-20V35.7C131.2,34,132.5,32.7,134.2,32.7z"/>
    <path d="M172.2,32.7h14c1.7,0,3,1.3,3,3v23.5h-20V35.7C169.2,34,170.5,32.7,172.2,32.7z"/>
  </g>
  <path d="M111.7,2.5h-17c-1.7,0-3,1.3-3,3v12.7c0,1.7,1.3,3,3,3h17c1.7,0,3-1.3,3-3V5.5C114.7,3.8,113.4,2.5,111.7,2.5z"/>
  <path d="M149.7,2.5h-17c-1.7,0-3,1.3-3,3v12.7c0,1.7,1.3,3,3,3h17c1.7,0,3-1.3,3-3V5.5C152.7,3.8,151.4,2.5,149.7,2.5z"/>
  <path d="M187.7,2.5h-17c-1.7,0-3,1.3-3,3v12.7c0,1.7,1.3,3,3,3h17c1.7,0,3-1.3,3-3V5.5C190.7,3.8,189.4,2.5,187.7,2.5z"/>
  <path d="M248.5,55.3l50-22.5c2.5-0.7,5,1.2,5,3.9v64.1c0,2.8-2.7,4.7-5.3,3.8l-50-22.5c-1.6-0.6-2.7-2.1-2.7-3.8V59.1C245.5,57.3,246.7,55.7,248.5,55.3z"/>
</svg>
