<svg version="1.1" xmlns="http://www.w3.org/2000/svg" xmlns:xlink="http://www.w3.org/1999/xlink" x="0px"
   y="0px" viewBox="0 0 281.2 147.1" style="enable-background:new 0 0 281.2 147.1;" xml:space="preserve">
<style type="text/css">
  .st0{fill:#FF5B5B;stroke:#000000;stroke-miterlimit:10;}
  .st1{fill:#CCCCCC;stroke:#000000;stroke-miterlimit:10;}
  .st2{fill:#EEEEEE;stroke:#000000;stroke-miterlimit:10;}
  .st3{fill:#FFD79F;stroke:#000000;stroke-miterlimit:10;}
</style>
<g id="snare">
  <rect id="snare-shell" x="6.1" y="85.3" class="st0" width="124.7" height="48.2"/>
  <g id="snare-rim">
    <path id="rim-hi_7_" class="st1" d="M129.2,85.3H8.3c-3.3,0-5.8-2.5-5.8-5.8l0,0c0-3.3,2.5-5.8,5.8-5.8h121.2
      c3.3,0,5.8,2.5,5.8,5.8l0,0C135,82.8,132.5,85.3,129.2,85.3z"/>
    <path id="rim-hi_6_" class="st1" d="M129,145H7.8c-3.3,0-5.8-2.5-5.8-5.8l0,0c0-3.3,2.5-5.8,5.8-5.8H129c3.3,0,5.8,2.5,5.8,5.8
      l0,0C134.7,142.5,132.2,145,129,145z"/>
  </g>
  <g id="snare-rag">
    <path class="st2" d="M49,102.6L49,102.6c2.5,0,4.3-2,4.3-4.3v-8c0-2.5-2-4.3-4.3-4.3l0,0c-2.5,0-4.3,2-4.3,4.3v8
      C44.4,100.6,46.5,102.6,49,102.6z"/>
    <path class="st2" d="M88.8,102.6L88.8,102.6c2.5,0,4.3-2,4.3-4.3v-8c0-2.5-2-4.3-4.3-4.3l0,0c-2.5,0-4.3,2-4.3,4.3v8
      C84.3,100.6,86.3,102.6,88.8,102.6z"/>
    <path class="st2" d="M49,133.4L49,133.4c2.5,0,4.3-2,4.3-4.3v-8c0-2.5-2-4.3-4.3-4.3l0,0c-2.5,0-4.3,2-4.3,4.3v8
      C44.4,131.7,46.5,133.4,49,133.4z"/>
    <path class="st2" d="M88.8,133.4L88.8,133.4c2.5,0,4.3-2,4.3-4.3v-8c0-2.5-2-4.3-4.3-4.3l0,0c-2.5,0-4.3,2-4.3,4.3v8
      C84.3,131.7,86.3,133.4,88.8,133.4z"/>
    <path class="st2" d="M9.1,102.6L9.1,102.6c2.5,0,4.3-2,4.3-4.3v-8c0-2.5-2-4.3-4.3-4.3l0,0c-2.5,0-4.3,2-4.3,4.3v8
      C4.6,100.6,6.6,102.6,9.1,102.6z"/>
    <path class="st2" d="M128.7,102.6L128.7,102.6c2.5,0,4.3-2,4.3-4.3v-8c0-2.5-2-4.3-4.3-4.3l0,0c-2.5,0-4.3,2-4.3,4.3v8
      C124.2,100.6,126.2,102.6,128.7,102.6z"/>
    <path class="st2" d="M9.1,133.4L9.1,133.4c-2.5,0-4.3-2-4.3-4.3v-8c0-2.5,2-4.3,4.3-4.3l0,0c2.5,0,4.3,2,4.3,4.3v8
      C13.3,131.7,11.3,133.4,9.1,133.4z"/>
    <path class="st2" d="M128.7,133.4L128.7,133.4c-2.5,0-4.3-2-4.3-4.3v-8c0-2.5,2-4.3,4.3-4.3l0,0c2.5,0,4.3,2,4.3,4.3v8
      C133,131.7,131,133.4,128.7,133.4z"/>
  </g>
</g>
<path class="st3" id="stick" d="M271.5,2.1L123.9,41.6l0,0L82.3,56.7c-0.6-0.5-1.4-0.7-2.2-0.5l-8.7,2.3c-2.1,0.6-3.4,2.8-2.8,4.9
  c0.6,2.1,2.8,3.4,4.9,2.8l8.7-2.3c0.8-0.2,1.4-0.8,1.7-1.6l43.6-7.7l0,0L275,15c3.6-1,5.7-4.6,4.7-8.2
  C278.8,3.2,275.1,1.1,271.5,2.1z"/>
</svg>
