<svg version="1.1" xmlns="http://www.w3.org/2000/svg" xmlns:xlink="http://www.w3.org/1999/xlink" x="0px" y="0px"
   viewBox="0 0 884 623" style="enable-background:new 0 0 884 623;" xml:space="preserve">
<style type="text/css">
  .st0{fill:#CCCCCC;stroke:#000000;stroke-miterlimit:10;}
  .st1{fill:#4D4D4D;stroke:#000000;stroke-miterlimit:10;}
  .st2{fill:#CCCCCC;stroke:#000000;stroke-width:1;stroke-miterlimit:9.9991;}
  .st3{fill:#808080;stroke:#000000;stroke-miterlimit:10;}
  .st4{fill:#999999;stroke:#000000;stroke-miterlimit:10;}
</style>
<g>
  <g>
    <rect x="252.5" y="365.5" class="st0" width="7" height="164"/>
    <rect x="380.5" y="205.5" class="st0" width="7" height="110"/>
    <rect x="375.5" y="198.5" class="st0" width="12" height="7"/>
    <rect x="380.5" y="209.5" class="st0" width="23" height="7"/>
    <polygon class="st0" points="168,608 251.4,524.6 256.4,519.6 261.3,524.6 344.7,608 339.8,613 256.4,529.5 172.9,613 		"/>
    <circle class="st1" cx="170.5" cy="610.5" r="8"/>
    <circle class="st1" cx="341.9" cy="610.9" r="8"/>
    <rect x="554.5" y="459.5" class="st0" width="7" height="70"/>
    <polygon class="st0" points="470,608 553.4,524.6 558.4,519.6 563.3,524.6 646.7,608 641.8,613 558.4,529.5 474.9,613 		"/>
    <circle class="st1" cx="472.5" cy="610.5" r="8"/>
    <circle class="st1" cx="643.9" cy="610.9" r="8"/>
    <rect x="745.5" y="250.5" class="st0" width="7" height="279"/>
    <rect x="785.5" y="173.5" transform="matrix(0.342 -0.9397 0.9397 0.342 267.7736 917.411)" class="st0" width="7" height="188"/>
    <rect x="94.5" y="101.5" class="st0" width="7" height="428"/>
    <rect x="96.5" y="89.5" class="st0" width="3" height="12"/>

      <rect x="691.1" y="164.3" transform="matrix(0.9659 -0.2588 0.2588 0.9659 -31.5412 187.0243)" class="st2" width="7" height="98"/>

      <rect x="678.8" y="154.2" transform="matrix(0.9659 -0.2588 0.2588 0.9659 -18.2803 181.5184)" class="st2" width="3" height="12"/>
    <polygon class="st0" points="10,608 93.4,524.6 98.4,519.6 103.3,524.6 186.7,608 181.8,613 98.4,529.5 14.9,613 		"/>
    <circle class="st1" cx="12.5" cy="610.5" r="8"/>
    <circle class="st1" cx="183.9" cy="610.9" r="8"/>
    <rect x="235.5" y="451.5" class="st0" width="7" height="159"/>
    <circle class="st1" cx="238.5" cy="610.5" r="8"/>
    <rect x="525.5" y="451.5" class="st0" width="7" height="159"/>
    <circle class="st1" cx="528.5" cy="610.5" r="8"/>
    <polygon class="st0" points="661,608 744.4,524.6 749.4,519.6 754.3,524.6 837.7,608 832.8,613 749.4,529.5 665.9,613 		"/>
    <circle class="st1" cx="663.5" cy="610.5" r="8"/>
    <circle class="st1" cx="834.9" cy="610.9" r="8"/>
  </g>
  <g id="bass01">
    <circle id="bass01-shell" class="st0" cx="383.5" cy="456.5" r="136"/>
    <path id="ba01ss-rim" class="st3" d="M383.5,604.5c81.6,0,148-66.4,148-148s-66.4-148-148-148s-148,66.4-148,148
      S301.9,604.5,383.5,604.5z M383.5,320.5c75,0,136,61,136,136s-61,136-136,136s-136-61-136-136S308.5,320.5,383.5,320.5z"/>
    <g id="ba01ss-rag">
      <path class="st1" d="M383.5,608.5L383.5,608.5c-3.3,0-6-2.7-6-6v-11c0-3.3,2.7-6,6-6l0,0c3.3,0,6,2.7,6,6v11
        C389.5,605.8,386.8,608.5,383.5,608.5z"/>
      <path class="st1" d="M276,564L276,564c-2.3-2.3-2.3-6.1,0-8.5l7.8-7.8c2.3-2.3,6.1-2.3,8.5,0l0,0c2.3,2.3,2.3,6.1,0,8.5l-7.8,7.8
        C282.2,566.3,278.4,566.3,276,564z"/>
      <path class="st1" d="M231.5,456.5L231.5,456.5c0-3.3,2.7-6,6-6h11c3.3,0,6,2.7,6,6l0,0c0,3.3-2.7,6-6,6h-11
        C234.2,462.5,231.5,459.8,231.5,456.5z"/>
      <path class="st1" d="M276,349L276,349c2.3-2.3,6.1-2.3,8.5,0l7.8,7.8c2.3,2.3,2.3,6.1,0,8.5l0,0c-2.3,2.3-6.1,2.3-8.5,0l-7.8-7.8
        C273.7,355.2,273.7,351.4,276,349z"/>
      <path class="st1" d="M383.5,304.5L383.5,304.5c3.3,0,6,2.7,6,6v11c0,3.3-2.7,6-6,6l0,0c-3.3,0-6-2.7-6-6v-11
        C377.5,307.2,380.2,304.5,383.5,304.5z"/>
      <path class="st1" d="M491,349L491,349c2.3,2.3,2.3,6.1,0,8.5l-7.8,7.8c-2.3,2.3-6.1,2.3-8.5,0l0,0c-2.3-2.3-2.3-6.1,0-8.5
        l7.8-7.8C484.8,346.7,488.6,346.7,491,349z"/>
      <path class="st1" d="M535.5,456.5L535.5,456.5c0,3.3-2.7,6-6,6h-11c-3.3,0-6-2.7-6-6l0,0c0-3.3,2.7-6,6-6h11
        C532.8,450.5,535.5,453.2,535.5,456.5z"/>
      <path class="st1" d="M491,564L491,564c-2.3,2.3-6.1,2.3-8.5,0l-7.8-7.8c-2.3-2.3-2.3-6.1,0-8.5l0,0c2.3-2.3,6.1-2.3,8.5,0
        l7.8,7.8C493.3,557.8,493.3,561.6,491,564z"/>
    </g>
  </g>
  <g id="hat01">
    <path id="hat01-bottom" class="st4" d="M75.7,150.6l9.1,4.5c8.3,4.1,18,4.1,26.4,0l9.1-4.5c4.1-2,8.6-3.1,13.2-3.1h37.1
      c2.2,0,4-1.8,4-4l0,0c0-2.2-1.8-4-4-4h-145c-2.2,0-4,1.8-4,4l0,0c0,2.2,1.8,4,4,4h37.1C67.1,147.5,71.6,148.5,75.7,150.6z"/>
    <path id="hat01-top" class="st4" d="M75.7,126.4l9.1-4.5c8.3-4.1,18-4.1,26.4,0l9.1,4.5c4.1,2,8.6,3.1,13.2,3.1h37.1
      c2.2,0,4,1.8,4,4l0,0c0,2.2-1.8,4-4,4h-145c-2.2,0-4-1.8-4-4l0,0c0-2.2,1.8-4,4-4h37.1C67.1,129.5,71.6,128.5,75.7,126.4z"/>
  </g>
  <path id="ride01" class="st4" d="M648.3,198.3l26.7-19.6c5.7-4.2,12.7-6,19.7-5.3l33,3.7c3.5,0.4,7,0.1,10.3-0.8l48.3-12.9
    c2.3-0.6,4.6,0.7,5.2,3l0,0c0.6,2.3-0.7,4.6-3,5.2l-194.2,52c-2.3,0.6-4.6-0.7-5.2-3l0,0c-0.6-2.3,0.7-4.6,3-5.2l46.9-12.6
    C642.3,201.9,645.5,200.4,648.3,198.3z"/>
  <g>
    <rect x="618.5" y="96.5" class="st0" width="7" height="433"/>
    <rect x="636.5" y="48.5" transform="matrix(0.342 -0.9397 0.9397 0.342 323.8419 669.4841)" class="st0" width="7" height="110"/>
    <rect x="585.5" y="18.5" class="st0" width="7" height="110"/>
    <rect x="587.5" y="6.5" class="st0" width="3" height="12"/>
    <polygon class="st0" points="534,608 617.4,524.6 622.4,519.6 627.3,524.6 710.7,608 705.8,613 622.4,529.5 538.9,613 		"/>
    <circle class="st1" cx="536.5" cy="610.5" r="8"/>
    <circle class="st1" cx="707.9" cy="610.9" r="8"/>
    <rect x="187.5" y="96.5" class="st0" width="7" height="433"/>
    <rect x="150.5" y="93.5" transform="matrix(0.9397 -0.342 0.342 0.9397 -21.7826 70.4828)" class="st0" width="77" height="7"/>
    <rect x="222.5" y="6.5" class="st0" width="3" height="12"/>
    <rect x="220.5" y="18.5" class="st0" width="7" height="110"/>
    <polygon class="st0" points="103,608 186.4,524.6 191.4,519.6 196.3,524.6 279.7,608 274.8,613 191.4,529.5 107.9,613 		"/>
    <circle class="st1" cx="105.5" cy="610.5" r="8"/>
    <circle class="st1" cx="276.9" cy="610.9" r="8"/>
  </g>
  <g id="clash01">
    <path id="clash01-r" class="st4" d="M547.4,42.6l30.9-12.1c6.5-2.6,13.8-2.6,20.3,0l30.9,12.1c3.2,1.3,6.7,1.9,10.2,1.9h50
      c2.3,0,4.2,1.9,4.2,4.2l0,0c0,2.3-1.9,4.2-4.2,4.2h-201c-2.3,0-4.2-1.9-4.2-4.2l0,0c0-2.3,1.9-4.2,4.2-4.2h48.5
      C540.7,44.5,544.2,43.8,547.4,42.6z"/>
    <path id="clash01-l" class="st4" d="M182.4,42.6l30.9-12.1c6.5-2.6,13.8-2.6,20.3,0l30.9,12.1c3.2,1.3,6.7,1.9,10.2,1.9h50
      c2.3,0,4.2,1.9,4.2,4.2l0,0c0,2.3-1.9,4.2-4.2,4.2h-201c-2.3,0-4.2-1.9-4.2-4.2l0,0c0-2.3,1.9-4.2,4.2-4.2h48.5
      C175.7,44.5,179.2,43.8,182.4,42.6z"/>
  </g>
  <g id="low01-tam">
    <rect id="low01-shell" x="476.8" y="299.5" class="st4" width="164.5" height="144"/>
    <g id="low01-rim">
      <path class="st3" d="M472,299.5h174c1.7,0,3-1.3,3-3v-10c0-1.7-1.3-3-3-3H472c-1.7,0-3,1.3-3,3v10
        C469,298.2,470.3,299.5,472,299.5z"/>
      <path class="st3" d="M471.5,459.5h174c1.7,0,3-1.3,3-3v-10c0-1.7-1.3-3-3-3h-174c-1.7,0-3,1.3-3,3v10
        C468.5,458.2,469.8,459.5,471.5,459.5z"/>
    </g>
    <g id="low01-rag">
      <path class="st1" d="M585.5,323.5L585.5,323.5c-3.3,0-6-2.7-6-6v-11c0-3.3,2.7-6,6-6l0,0c3.3,0,6,2.7,6,6v11
        C591.5,320.8,588.8,323.5,585.5,323.5z"/>
      <path class="st1" d="M532.5,323.5L532.5,323.5c-3.3,0-6-2.7-6-6v-11c0-3.3,2.7-6,6-6l0,0c3.3,0,6,2.7,6,6v11
        C538.5,320.8,535.8,323.5,532.5,323.5z"/>
      <path class="st1" d="M638.5,323.5L638.5,323.5c-3.3,0-6-2.7-6-6v-11c0-3.3,2.7-6,6-6l0,0c3.3,0,6,2.7,6,6v11
        C644.5,320.8,641.8,323.5,638.5,323.5z"/>
      <path class="st1" d="M479.5,323.5L479.5,323.5c-3.3,0-6-2.7-6-6v-11c0-3.3,2.7-6,6-6l0,0c3.3,0,6,2.7,6,6v11
        C485.5,320.8,482.8,323.5,479.5,323.5z"/>
      <path class="st1" d="M585.5,443.5L585.5,443.5c-3.3,0-6-2.7-6-6v-11c0-3.3,2.7-6,6-6l0,0c3.3,0,6,2.7,6,6v11
        C591.5,440.8,588.8,443.5,585.5,443.5z"/>
      <path class="st1" d="M532.5,443.5L532.5,443.5c-3.3,0-6-2.7-6-6v-11c0-3.3,2.7-6,6-6l0,0c3.3,0,6,2.7,6,6v11
        C538.5,440.8,535.8,443.5,532.5,443.5z"/>
      <path class="st1" d="M638.5,443.5L638.5,443.5c3.3,0,6-2.7,6-6v-11c0-3.3-2.7-6-6-6l0,0c-3.3,0-6,2.7-6,6v11
        C632.5,440.8,635.2,443.5,638.5,443.5z"/>
      <path class="st1" d="M479.5,443.5L479.5,443.5c3.3,0,6-2.7,6-6v-11c0-3.3-2.7-6-6-6l0,0c-3.3,0-6,2.7-6,6v11
        C473.5,440.8,476.2,443.5,479.5,443.5z"/>
    </g>
  </g>
  <g id="mid01-tam">
    <rect id="mid01-shell" x="403.8" y="166.5" class="st4" width="164.5" height="93"/>
    <g id="mid01-rim">
      <path class="st3" d="M399,166.5h174c1.7,0,3-1.3,3-3v-10c0-1.7-1.3-3-3-3H399c-1.7,0-3,1.3-3,3v10
        C396,165.2,397.3,166.5,399,166.5z"/>
      <path class="st3" d="M399,275.5h174c1.7,0,3-1.3,3-3v-10c0-1.7-1.3-3-3-3H399c-1.7,0-3,1.3-3,3v10
        C396,274.2,397.3,275.5,399,275.5z"/>
    </g>
    <g id="mid01-rag">
      <path class="st1" d="M512.5,190.5L512.5,190.5c-3.3,0-6-2.7-6-6v-11c0-3.3,2.7-6,6-6l0,0c3.3,0,6,2.7,6,6v11
        C518.5,187.8,515.8,190.5,512.5,190.5z"/>
      <path class="st1" d="M459.5,190.5L459.5,190.5c-3.3,0-6-2.7-6-6v-11c0-3.3,2.7-6,6-6l0,0c3.3,0,6,2.7,6,6v11
        C465.5,187.8,462.8,190.5,459.5,190.5z"/>
      <path class="st1" d="M512.5,259.5L512.5,259.5c-3.3,0-6-2.7-6-6v-11c0-3.3,2.7-6,6-6l0,0c3.3,0,6,2.7,6,6v11
        C518.5,256.8,515.8,259.5,512.5,259.5z"/>
      <path class="st1" d="M459.5,259.5L459.5,259.5c-3.3,0-6-2.7-6-6v-11c0-3.3,2.7-6,6-6l0,0c3.3,0,6,2.7,6,6v11
        C465.5,256.8,462.8,259.5,459.5,259.5z"/>
      <path class="st1" d="M565.5,190.5L565.5,190.5c-3.3,0-6-2.7-6-6v-11c0-3.3,2.7-6,6-6l0,0c3.3,0,6,2.7,6,6v11
        C571.5,187.8,568.8,190.5,565.5,190.5z"/>
      <path class="st1" d="M406.5,190.5L406.5,190.5c-3.3,0-6-2.7-6-6v-11c0-3.3,2.7-6,6-6l0,0c3.3,0,6,2.7,6,6v11
        C412.5,187.8,409.8,190.5,406.5,190.5z"/>
      <path class="st1" d="M565.5,259.5L565.5,259.5c3.3,0,6-2.7,6-6v-11c0-3.3-2.7-6-6-6l0,0c-3.3,0-6,2.7-6,6v11
        C559.5,256.8,562.2,259.5,565.5,259.5z"/>
      <path class="st1" d="M406.5,259.5L406.5,259.5c3.3,0,6-2.7,6-6v-11c0-3.3-2.7-6-6-6l0,0c-3.3,0-6,2.7-6,6v11
        C400.5,256.8,403.2,259.5,406.5,259.5z"/>
    </g>
  </g>
  <g id="hi01-tam">
    <rect id="hi01-shell" x="237.5" y="161.5" class="st4" width="138" height="93"/>
    <g id="hi01-rim">
      <path class="st3" d="M234.5,161.5h145c1.7,0,3-1.3,3-3v-10c0-1.7-1.3-3-3-3h-145c-1.7,0-3,1.3-3,3v10
        C231.5,160.2,232.8,161.5,234.5,161.5z"/>
      <path class="st3" d="M234.5,258.5h145c1.7,0,3-1.3,3-3v-10c0-1.7-1.3-3-3-3h-145c-1.7,0-3,1.3-3,3v10
        C231.5,257.2,232.8,258.5,234.5,258.5z"/>
    </g>
    <g id="hi01-rag">
      <path class="st1" d="M328.7,185.5L328.7,185.5c-3.3,0-6-2.7-6-6v-11c0-3.3,2.7-6,6-6l0,0c3.3,0,6,2.7,6,6v11
        C334.7,182.8,332,185.5,328.7,185.5z"/>
      <path class="st1" d="M285.3,185.5L285.3,185.5c-3.3,0-6-2.7-6-6v-11c0-3.3,2.7-6,6-6l0,0c3.3,0,6,2.7,6,6v11
        C291.3,182.8,288.6,185.5,285.3,185.5z"/>
      <path class="st1" d="M328.7,242.5L328.7,242.5c-3.3,0-6-2.7-6-6v-11c0-3.3,2.7-6,6-6l0,0c3.3,0,6,2.7,6,6v11
        C334.7,239.8,332,242.5,328.7,242.5z"/>
      <path class="st1" d="M285.3,242.5L285.3,242.5c-3.3,0-6-2.7-6-6v-11c0-3.3,2.7-6,6-6l0,0c3.3,0,6,2.7,6,6v11
        C291.3,239.8,288.6,242.5,285.3,242.5z"/>
      <path class="st1" d="M372,185L372,185c-3.3,0-6-2.7-6-6v-11c0-3.3,2.7-6,6-6l0,0c3.3,0,6,2.7,6,6v11C378,182.3,375.3,185,372,185
        z"/>
      <path class="st1" d="M242,185L242,185c-3.3,0-6-2.7-6-6v-11c0-3.3,2.7-6,6-6l0,0c3.3,0,6,2.7,6,6v11C248,182.3,245.3,185,242,185
        z"/>
      <path class="st1" d="M372,242L372,242c3.3,0,6-2.7,6-6v-11c0-3.3-2.7-6-6-6l0,0c-3.3,0-6,2.7-6,6v11C366,239.3,368.7,242,372,242
        z"/>
      <path class="st1" d="M242,242L242,242c3.3,0,6-2.7,6-6v-11c0-3.3-2.7-6-6-6l0,0c-3.3,0-6,2.7-6,6v11C236,239.3,238.7,242,242,242
        z"/>
    </g>
  </g>
  <g id="snare01">
    <rect id="snare01-shell" x="169.5" y="282.5" class="st4" width="173" height="67"/>
    <g id="snare01-rim">
      <path class="st3" d="M166.5,282.5h178c1.7,0,3-1.3,3-3v-10c0-1.7-1.3-3-3-3h-178c-1.7,0-3,1.3-3,3v10
        C163.5,281.2,164.8,282.5,166.5,282.5z"/>
      <path class="st3" d="M167,365.5h178c1.7,0,3-1.3,3-3v-10c0-1.7-1.3-3-3-3H167c-1.7,0-3,1.3-3,3v10
        C164,364.2,165.3,365.5,167,365.5z"/>
    </g>
    <g id="snare01-rag">
      <path class="st1" d="M283.2,306.5L283.2,306.5c-3.3,0-6-2.7-6-6v-11c0-3.3,2.7-6,6-6l0,0c3.3,0,6,2.7,6,6v11
        C289.2,303.8,286.5,306.5,283.2,306.5z"/>
      <path class="st1" d="M227.8,306.5L227.8,306.5c-3.3,0-6-2.7-6-6v-11c0-3.3,2.7-6,6-6l0,0c3.3,0,6,2.7,6,6v11
        C233.8,303.8,231.1,306.5,227.8,306.5z"/>
      <path class="st1" d="M283.2,349.5L283.2,349.5c-3.3,0-6-2.7-6-6v-11c0-3.3,2.7-6,6-6l0,0c3.3,0,6,2.7,6,6v11
        C289.2,346.8,286.5,349.5,283.2,349.5z"/>
      <path class="st1" d="M227.8,349.5L227.8,349.5c-3.3,0-6-2.7-6-6v-11c0-3.3,2.7-6,6-6l0,0c3.3,0,6,2.7,6,6v11
        C233.8,346.8,231.1,349.5,227.8,349.5z"/>
      <path class="st1" d="M338.5,306.5L338.5,306.5c-3.3,0-6-2.7-6-6v-11c0-3.3,2.7-6,6-6l0,0c3.3,0,6,2.7,6,6v11
        C344.5,303.8,341.8,306.5,338.5,306.5z"/>
      <path class="st1" d="M172.5,306.5L172.5,306.5c-3.3,0-6-2.7-6-6v-11c0-3.3,2.7-6,6-6l0,0c3.3,0,6,2.7,6,6v11
        C178.5,303.8,175.8,306.5,172.5,306.5z"/>
      <path class="st1" d="M338.5,349.5L338.5,349.5c3.3,0,6-2.7,6-6v-11c0-3.3-2.7-6-6-6l0,0c-3.3,0-6,2.7-6,6v11
        C332.5,346.8,335.2,349.5,338.5,349.5z"/>
      <path class="st1" d="M172.5,349.5L172.5,349.5c3.3,0,6-2.7,6-6v-11c0-3.3-2.7-6-6-6l0,0c-3.3,0-6,2.7-6,6v11
        C166.5,346.8,169.2,349.5,172.5,349.5z"/>
    </g>
  </g>
</g>
<g id="PC-drums">
  <g>
    <path d="M396.8,387.5c1,1.4,1.5,3,1.5,4.9c0,1.9-0.5,3.5-1.5,4.7c-0.5,0.7-1.4,1.3-2.4,1.8c1.6,0.6,2.9,1.5,3.7,2.8
      c0.8,1.3,1.2,2.8,1.2,4.7c0,1.9-0.5,3.6-1.4,5.1c-0.6,1-1.4,1.8-2.3,2.5c-1,0.8-2.2,1.3-3.6,1.6c-1.4,0.3-2.9,0.4-4.5,0.4h-14.3
      v-31.8h15.4C392.4,384.1,395.2,385.3,396.8,387.5z M379.5,389.6v7h7.7c1.4,0,2.5-0.3,3.4-0.8c0.9-0.5,1.3-1.5,1.3-2.8
      c0-1.5-0.6-2.5-1.7-2.9c-1-0.3-2.2-0.5-3.8-0.5H379.5z M379.5,401.9v8.5h7.7c1.4,0,2.5-0.2,3.2-0.6c1.4-0.7,2.1-2,2.1-4
      c0-1.7-0.7-2.8-2-3.4c-0.8-0.3-1.8-0.5-3.2-0.5H379.5z"/>
  </g>
  <g>
    <path d="M263.7,309c-0.5-2.2-1.7-3.7-3.7-4.6c-1.1-0.5-2.3-0.7-3.6-0.7c-2.6,0-4.7,1-6.3,2.9c-1.6,1.9-2.5,4.8-2.5,8.7
      c0,3.9,0.9,6.7,2.7,8.3s3.8,2.4,6.1,2.4c2.2,0,4.1-0.6,5.5-1.9c1.4-1.3,2.3-3,2.6-5h-7.4v-5.3h13.3v17.1H266l-0.7-4
      c-1.3,1.5-2.4,2.6-3.5,3.2c-1.8,1.1-3.9,1.6-6.5,1.6c-4.2,0-7.7-1.5-10.4-4.4c-2.8-2.9-4.2-7-4.2-12c0-5.2,1.4-9.3,4.3-12.4
      s6.6-4.7,11.3-4.7c4,0,7.3,1,9.8,3.1c2.5,2.1,3.9,4.6,4.2,7.7H263.7z"/>
  </g>
  <g>
    <path d="M319.5,187.6v5.6h-9.5v26.2h-6.7v-26.2h-9.6v-5.6H319.5z"/>
  </g>
  <g>
    <path d="M491.4,197.9h7.5l-10.6,19.9v11.9h-6.7v-11.9l-11-19.9h7.8l6.6,13.9L491.4,197.9z"/>
  </g>
  <g>
    <path d="M544.5,386v-31.8h6.6v12.1h12.4v-12.1h6.6V386h-6.6v-14.2h-12.4V386H544.5z"/>
  </g>
  <g>
    <path d="M677.1,191.3v0.7c0.1,2.5,0.3,4.2,0.8,5.2c0.5,1,1.4,1.5,2.9,1.5c1.5,0,2.4-0.5,2.9-1.6c0.3-0.6,0.4-1.7,0.4-3.3v-22.3
      h6.7v22.2c0,2.7-0.5,4.9-1.4,6.4c-1.5,2.7-4.3,4-8.4,4c-4,0-6.8-1.1-8.1-3.2c-1.4-2.2-2.1-5.1-2.1-8.9v-0.7H677.1z"/>
  </g>
  <g>
    <path d="M575.5,22.2h6.8v19.6c0,2.2,0.3,3.8,0.8,4.8c0.8,1.8,2.6,2.7,5.3,2.7c2.7,0,4.4-0.9,5.2-2.7c0.5-1,0.8-2.6,0.8-4.8V22.2
      h6.8v19.6c0,3.4-0.5,6-1.6,7.9c-2,3.5-5.7,5.2-11.2,5.2c-5.5,0-9.2-1.7-11.2-5.2c-1-1.9-1.6-4.5-1.6-7.9V22.2z"/>
  </g>
  <g>
    <path d="M232.9,21.8c1.2,0.5,2.2,1.2,3,2.2c0.7,0.8,1.2,1.7,1.6,2.7c0.4,1,0.6,2.1,0.6,3.3c0,1.5-0.4,3-1.1,4.5
      c-0.8,1.5-2,2.5-3.8,3.1c1.5,0.6,2.5,1.4,3.1,2.5c0.6,1.1,0.9,2.7,0.9,5v2.1c0,1.5,0.1,2.4,0.2,3c0.2,0.8,0.6,1.4,1.2,1.8v0.8
      h-7.3c-0.2-0.7-0.3-1.3-0.4-1.7c-0.2-0.9-0.3-1.8-0.3-2.7l0-3c0-2-0.4-3.4-1.1-4.1s-1.9-1-3.8-1h-6.5v12.5h-6.5V21h15.2
      C230,21,231.7,21.3,232.9,21.8z M219.1,26.5v8.6h7.2c1.4,0,2.5-0.2,3.2-0.5c1.3-0.6,1.9-1.8,1.9-3.6c0-1.9-0.6-3.2-1.8-3.9
      c-0.7-0.4-1.7-0.6-3.1-0.6H219.1z"/>
  </g>
  <g>
    <path d="M88.4,124.2h22.7v5.6H95v7.3h14.1v5.5H95V156h-6.6V124.2z"/>
  </g>
</g>
</svg>
