<svg version="1.1" id="drums-score" xmlns="http://www.w3.org/2000/svg" xmlns:xlink="http://www.w3.org/1999/xlink" x="0px"
	 y="0px" viewBox="0 0 137.3 77.2" style="enable-background:new 0 0 137.3 77.2;" xml:space="preserve">
<style type="text/css">
	.st0{fill:none;stroke:#FF5B5B;stroke-miterlimit:10;}
	.st1{fill:#FF5B5B;stroke:#FF5B5B;stroke-miterlimit:10;}
</style>
<rect id="snare-shell" x="6.1" y="15.5" class="st0" width="124.7" height="48.2"/>
<g>
	<path id="rim-hi_7_" class="st1" d="M129.2,15.5H8.3c-3.3,0-5.8-2.5-5.8-5.8l0,0c0-3.3,2.5-5.8,5.8-5.8h121.2
		c3.3,0,5.8,2.5,5.8,5.8l0,0C135,13,132.5,15.5,129.2,15.5z"/>
	<path id="rim-hi_6_" class="st1" d="M129,75.2H7.8c-3.3,0-5.8-2.5-5.8-5.8l0,0c0-3.3,2.5-5.8,5.8-5.8H129c3.3,0,5.8,2.5,5.8,5.8
		l0,0C134.7,72.7,132.2,75.2,129,75.2z"/>
	<path class="st1" d="M49,32.8L49,32.8c2.5,0,4.3-2,4.3-4.3v-8c0-2.5-2-4.3-4.3-4.3l0,0c-2.5,0-4.3,2-4.3,4.3v8
		C44.4,30.8,46.5,32.8,49,32.8z"/>
	<path class="st1" d="M88.8,32.8L88.8,32.8c2.5,0,4.3-2,4.3-4.3v-8c0-2.5-2-4.3-4.3-4.3l0,0c-2.5,0-4.3,2-4.3,4.3v8
		C84.3,30.8,86.3,32.8,88.8,32.8z"/>
	<path class="st1" d="M49,63.6L49,63.6c2.5,0,4.3-2,4.3-4.3v-8c0-2.5-2-4.3-4.3-4.3l0,0c-2.5,0-4.3,2-4.3,4.3v8
		C44.4,61.9,46.5,63.6,49,63.6z"/>
	<path class="st1" d="M88.8,63.6L88.8,63.6c2.5,0,4.3-2,4.3-4.3v-8c0-2.5-2-4.3-4.3-4.3l0,0c-2.5,0-4.3,2-4.3,4.3v8
		C84.3,61.9,86.3,63.6,88.8,63.6z"/>
	<path class="st1" d="M9.1,32.8L9.1,32.8c2.5,0,4.3-2,4.3-4.3v-8c0-2.5-2-4.3-4.3-4.3l0,0c-2.5,0-4.3,2-4.3,4.3v8
		C4.6,30.8,6.6,32.8,9.1,32.8z"/>
	<path class="st1" d="M128.7,32.8L128.7,32.8c2.5,0,4.3-2,4.3-4.3v-8c0-2.5-2-4.3-4.3-4.3l0,0c-2.5,0-4.3,2-4.3,4.3v8
		C124.2,30.8,126.2,32.8,128.7,32.8z"/>
	<path class="st1" d="M9.1,63.6L9.1,63.6c-2.5,0-4.3-2-4.3-4.3v-8c0-2.5,2-4.3,4.3-4.3l0,0c2.5,0,4.3,2,4.3,4.3v8
		C13.3,61.9,11.3,63.6,9.1,63.6z"/>
	<path class="st1" d="M128.7,63.6L128.7,63.6c-2.5,0-4.3-2-4.3-4.3v-8c0-2.5,2-4.3,4.3-4.3l0,0c2.5,0,4.3,2,4.3,4.3v8
		C133,61.9,131,63.6,128.7,63.6z"/>
</g>
</svg>
