<svg version="1.1" id="svg01" xmlns="http://www.w3.org/2000/svg" xmlns:xlink="http://www.w3.org/1999/xlink" x="0px" y="0px" viewBox="-1 -1 265 155" xml:space="preserve">

  <path class="st0" d="M261.7,154.5h-30.3c-1.6,0-2.8-1.3-2.8-2.8l0-69.3c0-1.6,1.3-2.8,2.8-2.8l30.3,0c1.6,0,2.8,1.3,2.8,2.8l0,69.3C264.5,153.2,263.2,154.5,261.7,154.5z"/>
  <path class="st0" d="M223.7,154.5h-30.3c-1.6,0-2.8-1.3-2.8-2.8l0-69.3c0-1.6,1.3-2.8,2.8-2.8l30.3,0c1.6,0,2.8,1.3,2.8,2.8l0,69.3C226.5,153.2,225.2,154.5,223.7,154.5z"/>
  <path class="st0" d="M185.7,154.5l-30.3,0c-1.6,0-2.8-1.3-2.8-2.8l0-69.3c0-1.6,1.3-2.8,2.8-2.8l30.3,0c1.6,0,2.8,1.3,2.8,2.8l0,69.3C188.5,153.2,187.2,154.5,185.7,154.5z"/>
  <path class="st0" d="M147.7,154.5l-30.3,0c-1.6,0-2.8-1.3-2.8-2.8l0-69.3c0-1.6,1.3-2.8,2.8-2.8l30.3,0c1.6,0,2.8,1.3,2.8,2.8l0,69.3C150.5,153.2,149.2,154.5,147.7,154.5z"/>
  <path class="st0" d="M109.7,154.5l-30.3,0c-1.6,0-2.8-1.3-2.8-2.8l0-69.3c0-1.6,1.3-2.8,2.8-2.8l30.3,0c1.6,0,2.8,1.3,2.8,2.8l0,69.3C112.5,153.2,111.2,154.5,109.7,154.5z"/>
  <path class="st0" d="M71.7,154.5H41.3c-1.6,0-2.8-1.3-2.8-2.8l0-69.3c0-1.6,1.3-2.8,2.8-2.8l30.3,0c1.6,0,2.8,1.3,2.8,2.8l0,69.3C74.5,153.2,73.2,154.5,71.7,154.5z"/>
  <path class="st0" d="M33.7,154.5H3.3c-1.6,0-2.8-1.3-2.8-2.8l0-69.3c0-1.6,1.3-2.8,2.8-2.8l30.3,0c1.6,0,2.8,1.3,2.8,2.8l0,69.3C36.5,153.2,35.2,154.5,33.7,154.5z"/>
  <g>
    <path class="st0" d="M236.6,129.4h-18.3c-1.3,0-2.4-1.1-2.4-2.4l0-47.6l23,0l0,47.6C239,128.4,237.9,129.4,236.6,129.4z"/>
    <path class="st0" d="M198.5,129.4h-18.3c-1.3,0-2.4-1.1-2.4-2.4l0-47.6l23,0l0,47.6C200.9,128.4,199.8,129.4,198.5,129.4z"/>
    <path class="st0" d="M160.8,129.4h-18.3c-1.3,0-2.4-1.1-2.4-2.4l0-47.6l23,0l0,47.6C163.1,128.4,162.1,129.4,160.8,129.4z"/>
    <path class="st0" d="M84.6,129.4l-18.3,0c-1.3,0-2.4-1.1-2.4-2.4l0-47.6l23,0l0,47.6C87,128.4,85.9,129.4,84.6,129.4z"/>
    <path class="st0" d="M46.9,129.4H28.6c-1.3,0-2.4-1.1-2.4-2.4l0-47.6l23,0l0,47.6C49.2,128.4,48.2,129.4,46.9,129.4z"/>
  </g>

  <path class="st0" d="M261.7,75.5l-30.3,0c-1.6,0-2.8-1.3-2.8-2.8l0-69.3c0-1.6,1.3-2.8,2.8-2.8l30.3,0c1.6,0,2.8,1.3,2.8,2.8l0,69.3C264.5,74.2,263.2,75.5,261.7,75.5z"/>
  <path class="st0" d="M223.7,75.5l-30.3,0c-1.6,0-2.8-1.3-2.8-2.8l0-69.3c0-1.6,1.3-2.8,2.8-2.8l30.3,0c1.6,0,2.8,1.3,2.8,2.8l0,69.3C226.5,74.2,225.2,75.5,223.7,75.5z"/>
  <path class="st0" d="M185.7,75.5l-30.3,0c-1.6,0-2.8-1.3-2.8-2.8l0-69.3c0-1.6,1.3-2.8,2.8-2.8l30.3,0c1.6,0,2.8,1.3,2.8,2.8l0,69.3C188.5,74.2,187.2,75.5,185.7,75.5z"/>
  <path class="st0" d="M147.7,75.5l-30.3,0c-1.6,0-2.8-1.3-2.8-2.8l0-69.3c0-1.6,1.3-2.8,2.8-2.8l30.3,0c1.6,0,2.8,1.3,2.8,2.8l0,69.3C150.5,74.2,149.2,75.5,147.7,75.5z"/>
  <path class="st0" d="M109.7,75.5l-30.3,0c-1.6,0-2.8-1.3-2.8-2.8l0-69.3c0-1.6,1.3-2.8,2.8-2.8l30.3,0c1.6,0,2.8,1.3,2.8,2.8l0,69.3C112.5,74.2,111.2,75.5,109.7,75.5z"/>
  <path class="st0" d="M71.7,75.5l-30.3,0c-1.6,0-2.8-1.3-2.8-2.8l0-69.3c0-1.6,1.3-2.8,2.8-2.8l30.3,0c1.6,0,2.8,1.3,2.8,2.8l0,69.3C74.5,74.2,73.2,75.5,71.7,75.5z"/>
  <path class="st0" d="M33.7,75.5l-30.3,0c-1.6,0-2.8-1.3-2.8-2.8l0-69.3c0-1.6,1.3-2.8,2.8-2.8l30.3,0c1.6,0,2.8,1.3,2.8,2.8l0,69.3C36.5,74.2,35.2,75.5,33.7,75.5z"/>
  <g>
    <path class="st0" d="M236.6,50.4l-18.3,0c-1.3,0-2.4-1.1-2.4-2.4l0-47.6l23,0l0,47.6C239,49.4,237.9,50.4,236.6,50.4z"/>
    <path class="st0" d="M198.5,50.4l-18.3,0c-1.3,0-2.4-1.1-2.4-2.4l0-47.6l23,0l0,47.6C200.9,49.4,199.8,50.4,198.5,50.4z"/>
    <path class="st0" d="M160.8,50.4l-18.3,0c-1.3,0-2.4-1.1-2.4-2.4l0-47.6l23,0l0,47.6C163.1,49.4,162.1,50.4,160.8,50.4z"/>
    <path class="st0" d="M84.6,50.4l-18.3,0c-1.3,0-2.4-1.1-2.4-2.4l0-47.6l23,0l0,47.6C87,49.4,85.9,50.4,84.6,50.4z"/>
    <path class="st0" d="M46.9,50.4l-18.3,0c-1.3,0-2.4-1.1-2.4-2.4l0-47.6l23,0l0,47.6C49.2,49.4,48.2,50.4,46.9,50.4z"/>
  </g>
</svg>
